<mxfile host="app.diagrams.net" modified="2023-08-27T09:56:21.076Z" agent="Mozilla/5.0 (Windows NT 10.0; Win64; x64) AppleWebKit/537.36 (KHTML, like Gecko) Chrome/116.0.0.0 Safari/537.36 Edg/116.0.1938.54" etag="EdSMCNDUbhU3J76oQHBr" version="21.6.9" type="device">
  <diagram name="Page-1" id="MBGqmfNPHNSeKV77uNF3">
    <mxGraphModel dx="2183" dy="821" grid="1" gridSize="10" guides="1" tooltips="1" connect="1" arrows="1" fold="1" page="1" pageScale="1" pageWidth="827" pageHeight="1169" math="0" shadow="0">
      <root>
        <mxCell id="0" />
        <mxCell id="1" parent="0" />
        <mxCell id="OAXY3ePAZleAso7HOR-Z-28" value="" style="rounded=0;whiteSpace=wrap;html=1;dashed=1;" vertex="1" parent="1">
          <mxGeometry x="-150" y="120" width="740" height="330" as="geometry" />
        </mxCell>
        <mxCell id="OAXY3ePAZleAso7HOR-Z-25" value="" style="rounded=0;whiteSpace=wrap;html=1;dashed=1;dashPattern=12 12;" vertex="1" parent="1">
          <mxGeometry x="-130" y="190" width="710" height="240" as="geometry" />
        </mxCell>
        <mxCell id="OAXY3ePAZleAso7HOR-Z-23" value="" style="rounded=0;whiteSpace=wrap;html=1;dashed=1;" vertex="1" parent="1">
          <mxGeometry x="-413" y="190" width="240" height="230" as="geometry" />
        </mxCell>
        <mxCell id="OAXY3ePAZleAso7HOR-Z-34" style="edgeStyle=orthogonalEdgeStyle;rounded=0;orthogonalLoop=1;jettySize=auto;html=1;exitX=1;exitY=0.5;exitDx=0;exitDy=0;entryX=0;entryY=0.5;entryDx=0;entryDy=0;" edge="1" parent="1" source="OAXY3ePAZleAso7HOR-Z-19" target="smmiEtzyFUiKkL1P5M1r-3">
          <mxGeometry relative="1" as="geometry" />
        </mxCell>
        <mxCell id="OAXY3ePAZleAso7HOR-Z-19" value="" style="rounded=0;whiteSpace=wrap;html=1;" vertex="1" parent="1">
          <mxGeometry x="268.53" y="272.5" width="120" height="85" as="geometry" />
        </mxCell>
        <mxCell id="OAXY3ePAZleAso7HOR-Z-32" style="edgeStyle=orthogonalEdgeStyle;rounded=0;orthogonalLoop=1;jettySize=auto;html=1;exitX=1;exitY=0.5;exitDx=0;exitDy=0;entryX=0;entryY=0.5;entryDx=0;entryDy=0;" edge="1" parent="1" source="OAXY3ePAZleAso7HOR-Z-17" target="smmiEtzyFUiKkL1P5M1r-2">
          <mxGeometry relative="1" as="geometry" />
        </mxCell>
        <mxCell id="OAXY3ePAZleAso7HOR-Z-17" value="" style="rounded=0;whiteSpace=wrap;html=1;" vertex="1" parent="1">
          <mxGeometry x="-101.47000000000003" y="277.5" width="120" height="75" as="geometry" />
        </mxCell>
        <mxCell id="OAXY3ePAZleAso7HOR-Z-31" style="edgeStyle=orthogonalEdgeStyle;rounded=0;orthogonalLoop=1;jettySize=auto;html=1;exitX=1;exitY=0.5;exitDx=0;exitDy=0;entryX=0;entryY=0.5;entryDx=0;entryDy=0;" edge="1" parent="1" source="smmiEtzyFUiKkL1P5M1r-1" target="OAXY3ePAZleAso7HOR-Z-17">
          <mxGeometry relative="1" as="geometry" />
        </mxCell>
        <mxCell id="smmiEtzyFUiKkL1P5M1r-1" value="" style="rounded=1;whiteSpace=wrap;html=1;" parent="1" vertex="1">
          <mxGeometry x="-398.47" y="240" width="210" height="150" as="geometry" />
        </mxCell>
        <mxCell id="OAXY3ePAZleAso7HOR-Z-33" style="edgeStyle=orthogonalEdgeStyle;rounded=0;orthogonalLoop=1;jettySize=auto;html=1;exitX=1;exitY=0.5;exitDx=0;exitDy=0;entryX=0;entryY=0.5;entryDx=0;entryDy=0;" edge="1" parent="1" source="smmiEtzyFUiKkL1P5M1r-2" target="OAXY3ePAZleAso7HOR-Z-19">
          <mxGeometry relative="1" as="geometry" />
        </mxCell>
        <mxCell id="smmiEtzyFUiKkL1P5M1r-2" value="" style="rounded=1;whiteSpace=wrap;html=1;" parent="1" vertex="1">
          <mxGeometry x="47.52999999999997" y="227.5" width="190" height="175" as="geometry" />
        </mxCell>
        <mxCell id="smmiEtzyFUiKkL1P5M1r-3" value="" style="rounded=1;whiteSpace=wrap;html=1;" parent="1" vertex="1">
          <mxGeometry x="418.53" y="230" width="150" height="170" as="geometry" />
        </mxCell>
        <mxCell id="smmiEtzyFUiKkL1P5M1r-5" value="Source" style="text;html=1;strokeColor=none;fillColor=none;align=center;verticalAlign=middle;whiteSpace=wrap;rounded=0;fontStyle=1" parent="1" vertex="1">
          <mxGeometry x="-333" y="80" width="80" height="30" as="geometry" />
        </mxCell>
        <mxCell id="smmiEtzyFUiKkL1P5M1r-6" value="Extract" style="text;html=1;strokeColor=none;fillColor=none;align=center;verticalAlign=middle;whiteSpace=wrap;rounded=0;fontStyle=1" parent="1" vertex="1">
          <mxGeometry x="-81.47000000000003" y="80" width="80" height="30" as="geometry" />
        </mxCell>
        <mxCell id="smmiEtzyFUiKkL1P5M1r-7" value="Load" style="text;html=1;strokeColor=none;fillColor=none;align=center;verticalAlign=middle;whiteSpace=wrap;rounded=0;fontStyle=1" parent="1" vertex="1">
          <mxGeometry x="102.52999999999997" y="80" width="80" height="30" as="geometry" />
        </mxCell>
        <mxCell id="smmiEtzyFUiKkL1P5M1r-8" value="Transform" style="text;html=1;strokeColor=none;fillColor=none;align=center;verticalAlign=middle;whiteSpace=wrap;rounded=0;fontStyle=1" parent="1" vertex="1">
          <mxGeometry x="288.53" y="80" width="80" height="30" as="geometry" />
        </mxCell>
        <mxCell id="smmiEtzyFUiKkL1P5M1r-13" value="Data Warehouse (Staging)" style="text;html=1;strokeColor=none;fillColor=none;align=center;verticalAlign=middle;whiteSpace=wrap;rounded=0;fontStyle=1" parent="1" vertex="1">
          <mxGeometry x="98.52999999999997" y="352.5" width="80" height="30" as="geometry" />
        </mxCell>
        <mxCell id="smmiEtzyFUiKkL1P5M1r-14" value="Data Warehouse&amp;nbsp;&lt;br&gt;(Serving)" style="text;html=1;strokeColor=none;fillColor=none;align=center;verticalAlign=middle;whiteSpace=wrap;rounded=0;fontStyle=1" parent="1" vertex="1">
          <mxGeometry x="458.53" y="352.5" width="80" height="30" as="geometry" />
        </mxCell>
        <mxCell id="OAXY3ePAZleAso7HOR-Z-1" value="" style="shape=image;verticalLabelPosition=bottom;labelBackgroundColor=default;verticalAlign=top;aspect=fixed;imageAspect=0;image=data:image/png,iVBORw0KGgoAAAANSUhEUgAAAeIAAACGCAYAAAAB+4lbAAAAAXNSR0IArs4c6QAAAARnQU1BAACxjwv8YQUAAAAJcEhZcwAADsMAAA7DAcdvqGQAABuOSURBVHhe7Z1P7B3Vdcefu2hVKd2kcQNS7R+p1IrKdEN3uDaYDeyCuoiNhEWTBSA1ZhVYxJGNLegCuoqJSliUUqPyR2prdniDzb9kVTaBFiVSws9eNMFJNo1atRv6PvPmmsf4vZlz5547c+e970d6ejM//34z98yMz/eec8/cu+fTOTMhhBBCjMJv1d9CCCGEGAEJsRBCCDEiEmIhhBBiRCTEQgghxIhIiIUQQogRUdW0EAOye+WTxffVT6rtK1evVftvv/dh/f3B7KP3n5vt7P+Dal8IsflIiIXIwPmX31wpshYkxEJsFxJiITLwu1/6y3orHgmxENtFpxDf89VT9dY47OzfO9vZt3BKhw4eqLblpETpSIiFcOIffjWbfX233lnDXb83m13643pnenQKcYpDyQVOCkE+PBfmB44dkdMSxSEhFsKJLRDiSVZNU+TCeNuTT786u/X2R6qo3Tr+JoQQQpTERry+hAgjxnwokhFCCCGmwka9R4wgP3Ti2UqQw2siQgghRMls5IQeCDIpa0XHQgghSmejZ9YiOn7q6VfrPSGEEKI8NlqIgYIuibEQQohS2XghBomxEEKIUtkKIQbEWAVcQgghSmNrhBjuue/U7OPdX9R7QgghxPhslRATEb/06uV6TwghhBifrRJiYKxYKWohhBClMKgQV3NEGz650XSYQgghSmGwRR9iJ7JHLIlc3/nBh7PzL1+qf+rD4YO3zS6+frbeE8IfLfoghBNa9GE8EMvj9989e/7ciUo0PR1TEHkhhBBibCYxRowoe0cJSk8LIYQogUkVaz1/7ptuYkzKWwghhBibSQkxkfHhgwfqvTR2r1yrt4QQbnz8f4vP5f/67MP+1NgUO8QkmJQQw6E7fIRYCJEIwnTmP2ezIz+Zzb7ywWy25/3FNx9+Fj7L/8Y+f4OwlUIfO/iUZoeYLMVWTa+DsV3WG/bgf375L/WWD6EAbPfqJ9X2lavXZvv37a1+hu07+4Z5PSsX2LRsG2BfsImMxVRZZRv7wH1bvo8WOze2ahrRevFXi0rW1Ajxlt+ezf7q92ezB+cftofE2w6qdu/8wsKeUvjG7mz2sw7bTt+0aHtOuMYv/rreWcNd82t3+uZ6p8FYVdM8F13nbfLCTq9neXJCDF5tShVinPZLr1yadw4+jCr+WjjzA7MHjh0pWryCfczTbSXc4+Nz27CvWEGZE+w7P/+wbQWbEGfu4cnHj9Y//TwbJ8RBuJ6YR4HeBCHDEecWZOwgksW554D244xzi5uFP5r7pC4hfnMuXkcyt5Xr3fXc0IH5+/l121PvLzOGEPOckPWIgfP3vO+TE2IcJov+p0JbaFMsfZ33OmgHDp2UO69rjQ0diso+p3e3sa8kUQ73L6Zz0ca6+7dRQmxxpB4gYjjkdZFRCjk7EqsIduTuWLQhIe4Hz8rdP+6+dgGHztfkxojHeu0IB870mHQCPFdy4jiI3kMnnq2OPaZ9pPz5eE6gwnG5Xiy4MeZSlM3750Up9y8LISoYSrw4H+fCcXvCOC6iNJQdgHgcmTtzb1tEXngGEf0BRRgmJ8Rh/C4VUotWcjjwVeDUcehDzoe9OOe57CLCebh+nGdoQR7y/tGR4XpOHsQLEcYxDQ2CGTs2t45KEH8ym7Xm/TLBteP8EuNpEETYWoDnOAwxKSEOznwogmMd+pycb4gI8vzLb1YC5T2FaBvLgsx2Tsa4fzDk9cwCjgjxGpOQjkwRUATQS9D7kivKF/7EijCpdAcRhkkJMdGiF13vIxMd5o4S2wiClUtEEHnP6xlLJZLzzkYuMea+/emfb1iqeAhwRHf3FGGc0hM3Lz5ECnwY++vrrFKiSZxqn1Q0DpY2N+1gO8UWiXHZ0PGMEeGf3eY6tj6JYi2cNaLh6VTbKqY5D5FUKXzn8aNrq3P7gG2lCBTPBDOmeVaPE+mP2clIZbRiLaK32ErRIFyWAiuO36dgKrYatU9Ej9Du1LZ0gR2cA2FlO4bQORkCFWvZ6CPCzhQdEeNQw/iep3C0OTnOee88UisJomKvcceSRBhCJ8srDT91ER6VmDQuDgnxwilZq5z5G36Xv2HbSky7EMYYEaYdOHDaZRVI/obfvfQni2sQA6JkLQQS+SlAhGGwiDimh58rXRlYF2GWFgk3OX7/kWo1qr6UJsLLeETGpd8/K6NExJaoJUD0QSS1KnqxEhsdWyPJGMfK8ThuKpX4/9geHWd06J9DEXE7hYgwDBYRI67WT05wcKtEmPOW7sQpAiLi6wMRZ6kiDFz/lEh2CvevWHBGVkEMEWSKCAPHIQq1igDOvAt+x+pYcdweIgzVNZlHx3xbQLBjonzhT4wI86xk7jhN7vWlVJhYYhVTSWc+9cxr0Z0VBHjoyuE+LMT43Kw9R7MapaMT6Jp+MJAjKiAKsggY4tXlOGMi+r7jiesIYvwVoxhbRUD4w9SfMSLs/aysYKuEuIqGH/tavfcZpUeLy1SRX+QY9sOPfq/eKp8+UX/JKffiQeBI/VnwiiCXQcCsxz3z83pjBVYbIJdjxZY352JsgetuifKFL2QiXjA+KwOJMGyVEDMGuWfPjTk1r2gRoWf8mc/F189WY318OK9nZTBibBUrOhkf7/6i3ksj2IctwT6+2Wf82mtc82/+9rV6qxsEWCKcgFUMcEp8cmA99sf/W2+swGpHbseKGFuLvmI6DyIdRNh6zQcUYRisWGtsFmJx41zOpEJTJ2BAgJhP2fKK0SL9mv4qFudECLvwuH+cy9KRwDaveZzX3a8mmxgND1qsxbJ+FkhJW1LIfbEU5ADOsSna1r8dyrkS7VqLt6xFaH1QsdZnWJ8R4FipxYiRbEVE3ObUU0UYccJxWt/zxcESRRJZpmCJij1eCeLaYZ8lmsc2roOHkDAW3oV3NEyb10X8/Nwro1EM1ugAJ5lThKEprut46zf1xhJnjdHwg1+sNzITExUrPZ2fWBFG0AcUYdh4IW4T4dR3c3HMOOo+IFipYtwlVqmRadu1a6PqbFw4myTGto6GPYXdBu0MHQ7uCzZzb/k53+zz8yDOGyPIq0RtFayzmxvEyyLGl1e02RJ5Qq7IcxWssWzB2nbRjxgR5vkYMB29zEYLMY6zTUhYR7gvldj0FOHAwumvruK2gFitiwj7vuYUoJPQR4QDQYxTaOtoYJ9HNIydiKvV1nDfEe7JY60cHUrALFF3c5w4JqofEmvHAlRBnQeua4wI5yhGNLKRQkzEwhSWbZELjhwh68uq6us+nHwsLSpmTHbVKP87P+jfyQA6CakgWilRf1tH490fptkHb1w409tOhNsjBT8aOClLNDakgOEIP729/dN8fYqo3vK62+EBovomp2+qNzqwZiaEHZ5v6wxrI4swbJQQI7xEK5ZINVWoUqLFZXDkKVHxIqq/0ROljH2ntKfJuve2rbyzJmvx9nv/Xm/1g4j2zr/4s3qvHyHqX1WJXzzWlGjuseFUrNGkNTr15JbfqTc6sEb1wsbERBg2QogRjiDA1vG7lLQ05yBa8/qkiBV/34waU9PStKfZxr4fSO9o3Eg4dh+4f54dqe9/96/rvQlhjcJYCKFkSu5QWM+pcWI/YkQYAS5AhGGyry/hTB84dldvh7opr2UB6dXlFLDHK1mlgNCRAl6GjsbDjz7bawYu8E4p0ynweCUtMEjK2zrFX+7XllJAwCyrRRH1rHs1JjfW67zqtaxUtu31JYYCWMLT4hcQ4CGHXToYNCLGuXg5mJ39e3uLcGrEWBpXrn4+Oty9cq3emj6IXFPgGFboK8JE594ix/FOPu5TMzAYbZNjLFNyatpqw5jcNcLY9DbCs0Cnx+IXEPyCRBgGE2J6+Xy8ipyI+FLSk5tEU3h3G8IsPiO1OG4dO/smWrTVRunjwzFp6dKH8ZWeTsN6/YiEv16WCMPgY8REsV4RSd+J/q9c3ZyIETZdeJsdrtTXznLAca31CUWwTY6/9HFu2JUQZ4cO2RhFewZGKdbyegeTlGWfNPO2CdfU8eo4eVaDr+LwwQP11oZgrfodiymI1xQ6AdsCnU+mHu0aNx+BUYSYyMErMumzLOCmsen2NztOpdq7f9/eeqtwlAYdDmt6X/ckDWu0y3W+ey7GhTGKEINXVIxTZlKLGDapmKnJxotygn0bOY4rysYqsKWPx5cO2RvGfy3rQXNPrDNuDcRoQrx4l9MnVcicyjEOmoprMR2WBTQlk5IytryVlF6VbE37avx1O6AzY10POmYO6gEYTYghddalZWKi4k2LjJbFKVcxUkmUauNkigA3JfrapChSY8k+8ExYJ+lAjAtZ/WpUIfaOir0WwJ86mybGzbHXvh2p3EV6k4q4lQodBkXjw8M7wk/cXO90wEQjBYjxYDNrrZstiJTyPfedchnbbM4wtQ6qrVlQvg/YgC0lk7JYPtfPY8GHnKTYFzMNaiy5/6+4Yp3xiYUWSoWxPsvMWhTxDLzQ+3VIf1rmktbMWukzazWXMLRe+xBFj/hq06gRMeBwvF77YCH83MVKHL+vCEyB85GFb2OQ8rx4rWHchGdvI7GIdemMOdZtvX45XhUr5fWzsSrCT8+jYmslNaI9VjvnjC7EwGxHt+z4RACWST5Sx4hjq7SHJkWoptDRODS3r++CR9iWwz6GRiaFderFkpfoI5KxpNhxsGM5Wet5NVTgT4h0rc8I7xiP9JwUIcRExQ8c9Rkrxsl2TfKxiML7pydLHwvMtfRgKSw6Uv3zjH1nZFvHvfedrrcmxJ1GIb5c+Fq51qhvjKjYkhaFMec9HkJ4xuoEASJ8yVhJHcR4BIoQYkA8vMbFLJN8sHJTXzh2yanI1I4G6encKf4UUu3DNsaZO8ojTPAcvPXuj+q9CVGigDGWyNh112eZB79o65OVHtlvMmO/BhciYwuIMWnqdNcQxejFWsvg1LxSfF1FRzjjW29/pN6LB1uYlCS18KcS9WfSbKYT02xH6rXEPo+iNLITrJaUwvPnTtRbn8FxUyNbrhnFW33xfF6XGaRYCxC1sZboWwWFV13RE9HjslPl9ylK6nKcOGOWdBwSiz2Q6/qyJOCljvvLOKq1wrgve96vN1rIUazVxFI0Fmg+Z5kpSogBcfSIxjjXxQtnW8+ZUn0LlnN0kdoG+O9r/zzb0xg05ZgcO4XUCmqPNvB62yohTu1IBbh3sR0qzu25/nCTwYTYWlU6lFOyOGza0UzlWqqDYagOBVjEI5CrMv0b8/O/0HF/LQKWSilCHKJdawEdHRQ6KgNQTGo6cNxpkg+cZVdRVUp6GjgHr171TVM//Oi5ZGe+eA/7xqcXYUmN1on2HjpxrlfHiL/xqFBet2whQuXxDnp1D+edBezsuhcLm16tOgC5RHhQSOtaGKJy2jqeugqruL7463pjAKyp8GanwhPLJCG508Yp99WbkKK2TIMJA75jXJwQE4F5RQMISZuIeIgVx48VrOD8//Gf0quvSUuvqyD2WKyedZ9jOxteYsW9aXsWPNcWruyc3xPaHYQZO/iwT2aIf8uRih4NxoktIkYkkdshWUVyVXtPGaMWOhRDdCo4h1WArJ2hXHBvc16TITs/FhBj6zSYwH0c4JkpLjUNOD8vh9eVXvUYawxgHxW9zGV96I4D1/eZ0QnxZQpEz0IohKprjBMR8YresCe8GtW0L1RaewoVKWPWr24DwUREN4nBUtNgSfsBDozqU769QQwsE3O0pcit491DpGJLaQttaBa3rSJXCtZ6fhgiNb1MTNtyPvs1RQoxEH14CVbXuT3Fakgss0Rh173ziNahQHhQLJ0M4BnhWdkkooUYIXuRnvtvFqnGKtL9gs25WkUQ2oQwBatwrRofDsQ4Vhy2JRPQB2vHBtrsWYZsBPcWGxED2s7rZ11/a723HNO7kC3muYKhhRhiircyi3FxqemA11gxdEW8HincoWF81JJW53e85vMeEus9QbC8ltScJDgTHB4OBUeNA+SbfX7elVLGsVjEAHCI3inqSmQMIgxt7cQRW8U1pmAnBo5JgZQVi5DSuQj3NvwsCJPl3lquCcf0vq/WzsiYxFSMV/ci3zvGxQqx51gxUWFbxItYWeaoLomY8dFvf+uoSbRLwdrJCJC+ntr9cwGH3NajD067S3Ri0pKcz8tp0y7rsSydhdM31RsdcF0QCr69wBZE05p5skRvOP62e8e98BI8nhOP61EJljHDUQIPzp8rawcuPDcZKFaI4eRjfpEqFbxtqW6EfyrOnJRtTCdlSlEjAvz978a3ddW71BuN1SlYfo/IKSbl7BEZxwiXtX041NgIx6NTwTGsaXGwRO+8A0wbu+jqaMV0TlKneKQdZGGmIsIQni2+LXC9M4hx0UJMpDNUVAxTcOZ9JxHhOqZMXjEEoY3Nd6IthM6G1/NSPIwJW8G5djlHIk5riprjhdR3rOOuHP5cZGKEK6aTEBvhpET4wZa2rEQTHD4rHnURI2Znfl5vrMAi+oHKnh6dE/4utjNSEtwT6zSY4NERbVC0EINnJMfUl21rFgdn7rUAhTekbLuqiNtAwEuN+sO1T6ES8sQJViYDzi8Gy3utpKitkQHQBsSYD85pHfwewoLzio2YYoQEQoQTQ+hUEOl0tS2ITrA7xhagbV39zNhjdr0LbI2KAfua16P5rDXvJ5+YzkiJxD432Otoc7FV08t4VlBbUtCci8lASnpnlDa3vYYVA/Z5rQHtQRBhr2xEafbFYvq/QvQR47CJdi2OBidrmTJyHTg0qrb5Dg67Lxzjp/NnIj5Bsjhv3wiN81bfS3ZAii3A9bdkHTgPqemYe0DVc2j3KhDNscSSjlTXteO6DF01vYqY68T15p7GdBTXUHxEDK5R8Vxcuxw0TrCkMWPStV4iDNhXSuSI+CI8nkMCwb6pjPn3os3prsK62hLHRfxijx8I4ts1dtkF5ydd2EeEAefYJU7rwIamHSm2ACJhTf1bF+RYpsvOmJS9J5zTkgUohdhKajoIoaOWwCSEGCft+QqOdT1hxI9OwFiCxXn/49/+zlWkAiWIFefONW6NfYz5b6wYW4U1EOOEgwj2FeNUOC/OO/X8Y9sBVRvmIhx7/WOwCDzH9LimMYRzTg06LUeM9wsRTi1ymzMJIQacqheknK1pS8ZkhxYsRIQOAJHiLTtfrn/qD+ehs8F5hnzXOETBnlH+Ksawj3MO8qzg2K3OHUcd64D5/TFEDJuIZGOEq41gh9WxehKEqI8tpGmtWKfJDNfC69q2EWwf+vnxgDZz/a1tD2KcwGSE2Dsqjll6cNmh53SywYkvhKN/UVYsnJcVjjhvjug7wP0jAubDOYdiCPuW713uDkZFcHRdWH9vFfwtjtuaqkuF83iM8zXBDiqVhxIGzoEtKR0KOk+Wv+U8MecIz0POe5pqewmEZ99KJcb9q8YnUawV8C7C6dsmzs+rUKyzmzrPMednFjEi/tTr40Ww76VXLne+8tVFsG8QcTKysO3S/PvD5GdpnX0p/2+inkscwLpqXxyhl7BxHl6ZylHwg+MmHTiESOa0A2LGGLtoa2sQ1BSx4/jMBNa1ZrGVdW3iPF0FgKUUazWxnHsZ7OjR8e0UYoqbPPByxCzSwOIJHuzft9cl8sSZ49gXizss2hYWeggEx8oiCWHhhJLEdx3LnY7F/rUbbIOmfYfmn5zRtRfh3lWivMKuJkF4oe2ZTvl/E/1c4Oh4hYXv3fkHcgkb50D0WVUnpYCJtuG0Ymb18iTYwWtdONu+YEfM3N59WG4r56M+wDPa5PhhrvLYexruY9vzFo7fBks2cpxVpP59Kjwf4f+VhR7/9zqFWIh1IFqldyT6EMQYYQ4sVtXaPFuTWBYItqHpyJcdUnCUY4nvOmg7HZmwZF/YDzZBsCO80sTHWxBLINxTCO+eh+sQ7AaED9vDvkhCQiyE8AXHvSkOepNsEcUiIRZCCCFGZDJV00IIIcQmIiEWQgghRkRCLIQQQoyIhFgIIYQYEQmxEEIIMSISYiGEEGJEJMRCCCHEiEiIhRBCiBGREAshhBAjIiEWQgghRkRCLIQQQoyIhFgIIYQYEQmxEEIIMSJafUmYYZ3et9/7YHbl6rXra/UeuuNAtU7v4YO3VftjsNyuan/eNtoFx++/u/oeg1XtYl3j/fv2VtdL6xsLIUBCLDp56ulXZ+dfuXR9wfxVLMT4wOzb3zo6u2VnGIFB5J56+rXqex20C/E7+fjXBusscJ2eemZ+zV6+VP9kNbTt+LEj87YdrX8ihNhGJMRiLQjcPV89Ve/ZGEJcELqHH3129ta76wV4Fcfvn7frsaPZIlGrADehPW/865l5B+bL9U+EENuEhFishCj4yfmnL4jLR+8/V+/50adzsAztunjhrLsYI8L33HeqNWvQBu1RdCzEdiIhFjeQKsIBbzFOFeGAtxgjvrfe/ki91x/a8/y5b4463i6EGB5VTYvPgdh5iDAgUA+dOFfvpVFFnA4iDCF69eqDPvzo9+qtNBbX69nqWwixPUiIxefwErsA46VtxVRWEChPEDvGmVOho/HWuz+q99IJYiyE2B4kxOI6pKRzkCos519+00XMm7z93odJ0Sd/G1uYZQFbc9grhCgTCbG4Dq8o5QDBShGWl165XG/5QrteSrCZCulc8FqWEGI7kBCLCqLOlOiwixTByxkdpnQ+iKhzESZMEUJsPhJiUfHuD/OJCvQVLToIOaHz0bcDkrPjwrGVnhZiO5AQi62nT/Q5hEjmFHohRDlIiEXF7pVf1lt56Bt5hnmaS2MIkSzVdiGELxJisfX0EVWvyUCEEEJCLCp29n+p3spHqeJV6kxWrNIkhNh8JMSiYv8f5hXJviJ86OBiOcPSYEUnIYTwQEIsKnILHksk9iG34LEiU59OAn+TO5Iecy1lIcRwSIhFRW5ReeDYkXorjtyCd+iO/h2Qvp0LC3QQhBDbgYRYXIeVf3KAkKaIKYv65yIl6uzbubCQ89hCiLKQEIvrIJY5CqpShTRVyNeRuvYv14rOy5499Q+cIBrOYa8QokwkxOI6QVg8+c5c7DxEhXZ5dhJo08nH0iNt707C4h6cqPeEENvAnk+9FmUVGwPTSnosxYdAXXz9bL2XDu/7ei3A/9H7z9V76dAu1jf2mOSD6+Up7EKI8lFELG6AcVMi2RS8RRiCgKZExt4iDBzz4oWzye2SCAuxnSgiFmshwiMyjplXGUE5fuxI8vhrG7SLJQhj1wKmc5G7Xawy9WTkus6I7xsXzsz2eA82CyEmgYRYdEKqmjWB2wR5CAFuYhHk0C6qkFMi1hgsgkxbeEeaQjZFwUJsNxJiYQaBYaUivsOCBEzDiJAMJXKrWNcu2jSmyNEeCB0Y2lZCu4QQZSEhFkIIIUZExVpCCCHEiEiIhRBCiBGREAshhBAjIiEWQgghRkRCLIQQQoyIhFgIIYQYEQmxEEIIMSISYiGEEGI0ZrP/B+d31uIN/Q9nAAAAAElFTkSuQmCC;" vertex="1" parent="1">
          <mxGeometry x="-393.40000000000003" y="275" width="179.85" height="50" as="geometry" />
        </mxCell>
        <mxCell id="OAXY3ePAZleAso7HOR-Z-2" value="" style="shape=image;verticalLabelPosition=bottom;labelBackgroundColor=default;verticalAlign=top;aspect=fixed;imageAspect=0;image=data:image/png,iVBORw0KGgoAAAANSUhEUgAAAfYAAABLCAYAAACCyKWjAAAAAXNSR0IArs4c6QAAAARnQU1BAACxjwv8YQUAAAAJcEhZcwAADsMAAA7DAcdvqGQAAHWtSURBVHhe7b35s11HcudX2AkQxL4DxA6CIAGQzZ3sZu/q1tLaLI26R2NrxrJjLFsR9i+Wf9Zf4B/8o2MmHOEIxWgixqGQRiO31CuXbu4EiYUkiJ3Y933fnJ9vVp5T99x737vvvgc8qP3yvbrnnDq1ZGVlZWatZ9zE5X94N40SjMtXwTh/Gsc139/l746hdzejqOs4vR41pDPcFY7gkp0/GV53hOfdcApsvznMAwPjxtu/Of4MN3ANvO9wn4EStVA7l0O+d/svUcTU1dJU3vLxtPFyeoKT+wPjx49L4w33OqzjrPh2aWIU+BdJZOBNM3Q/kPPN+FYAPnYJ/nB61+/v3rmT7ph7UCHKE/iLVvZ/x9rjnbt3vKQUfJQh8ITaJb31x0v87cVdwxncRwoi3+ECGIl/rC3C28bhwps2WPG1yRTlJPTd38s2/Pz7BeFtf7RFx9upgR/4yRm9Hc9WqPEfPRg3foLhPT4/GV8HzsYnOOegVhhpvJvp8RzQ5s+z/Yve5bsu9K5LNgZjMAZjMAZjMAb/7GFMsY/BGIzBGIzBGPwKwZhiH4MxGIMxGIMx+BWCMcU+BmMwBmMwBmPwKwRjin0MxmAMxmAMxuBXCEZcsbMqb+LECemhKZPSjOlT5aY+NFl+/awoJA6rLidPmpgesbRmz3w4zZk1XY77eJ414+E0/eGHlO+ECWP2yhiMwRiMwRj8/xNGfLsbCnzqlMlSsjNnTJNiPn/hcrp46Vq6ev1GunXrdg6p1fs1ZKUv5Z/vWcrP3cTx46XU586enqZPm5omTZpgb1KVFtsWuL905Vq6ePFKOm/u2vWbenevYGy7G8H7L1HE1NXSVN7y8bTxcnqCk/sDY9vd7g9EeQJ/0cr+x7a7OUS+wwUwEv+MbXe7r/Crvt1txBQ7PeqHp01JMx6ZZr3o6eo5A1eu3khnzl005X6lZ8UOk9PLnzHDevwPT00zp09L8+Y8khYtmJVm2P1E65GD9O3bLhhhrBs3b6ULl66mYyfOpt37j6Wz5y7p3c2bt9vyHQkYU+wE779EEVNXS1N5y8fTxsvpCU7uD4wp9vsDUZ7AX7Sy/zHF7hD5DhfASPwzptjvK4wp9h6BIfHVKxallcvmp6WL56rHvGPnF+ng4VPpnPXYr1y7IUXcgny+CjJCEHvChAlS4pufWJEeX7M0rX50QVq8cHaaN3tGmjZ1coU8hQKogpv02C9fS7v2HUk/++X2tPeL43p34eLVdOTYmXTx8lU9jxSMKXaC91+iiKmrpam85eNp4+X0BCf3B8YU+/2BKE/gL1rZ/5hid/C0RYU+wbkPjMQ/Y4r9vsKvumKfMH7mE3+puyECCTCXPX3aQ2nxgtlp7arFafOGFWnFsgXqbaNQ9x88kU6cOm+99uttPWaYYZIp8AkoFyHjCOE/ceLENH/ujLRh3dK0+fHl6dnNq9Pja5fJb+6cGWnBvJlpoblFlu+i+bPTwvmz9G7BvFnpYcMHmGWGxoql89NcMwYmT56oPCj4rdzLHzZknElXzp/st66cFshhHhio8PZrCWUJ2nBuKUf/JYqYujbyB/AqcwoIeneD5puBQ3Z/O1QYFN8m3rkxPqgQ5anpLQ/QljApSjKqEHgGBL76E94B0DvfjgBUNOkbSqxrvOVv11ZU2+k9/PxHBlrwdq8arBD+rh26+d8vGIehXeBQ05s76N2hPAYjjXfP9OGZf7t2xaGgd9+KHaU+ZfKktMx65y8/+1h65bnH05c2rpJS3/rpgfTxJwfS4WOn08VLV9Nt65k0G9VEU+rTLCxD+LI2sj9W1CTzY34ehb100Zy0duVizdmfPnNRw+0UkF69em/Z6qJAPE+dOiUtWThHPX0MjdUrFqYFc2emh2RsXEmXr1xXT2nYQlUEdCLL+ZP9dkk3h3lgoMLbryWUJWjDuaUc/ZcoYurayB/Aq8wpIOjdDZpvBg7Z/e1QYVB8m3jD8yOpaUYYojw1veWhdjym2D0fEWQYUMYOvPHl2orqmGIfaRhT7F2AOXSG39esWJSe27wmrXx0gfmOS4eOnk7vfbw77d5/VEqdIfJmgyLzGY9MTcutd7/EFDer2lHIzJPTo0ZBPzz1IaXPavdZpuQvXbqWtu88mE6cPq9RgmkWHgMgVsCTJkpeeFl6GAW4WTOnp0emPyQjBAPj1m3rtRtO5KUqbODWOwShdVH+/tclQb1/gCDjI/yFmKhROb0z1waEz28iTD+uBk/Nqcavv3WcalA8+xGd9S4H8IgVNKK1QJ06wN1AoQcGj+2ZB64tqYWfI13hnC+GzOgqdlAI1wmENn/CPeNtv7UJPnq4AxXuuQDCxn7CP/CuwRV79V5+/YOnPZxUWunnNLb09F+ma+Ey3iUMP/+RgZrOrVgLwFvv2qGb//2CUOxVE9TVH7xddyiPwUjj3TN97Bkv/Jm26YicwPGeMGHmhr/kZqiOHvTypQvSmpWL0jrrUd+4cSu9+e6n6Rfv7Uz7vjiulem3bndW6ijuJYvmpq88/3h6/ul1ab31rlH0J05fSOcuXFG4iZMmmHKforxYePfp7kNK//ip8zIG5s2ZYUrct9ENBCh+hudnzZymnjtpnj1/yXr+hp8p+OHOc2JWOMHddQUqJN8+EBA4+605Kqp03WEkylH2Qdpzy7TiJ78M2jrDm9N/Vq1FAjlYAe5TmyrEivv+IegVqZSp+dID+8kEDpzHjXNE9SjFrsdRAVDoDIEj+LKewa/y0y8hLMwo4g6AUkbLQSjZT37hFw/AL+9CsY8EKB3VZ7/OMeEOCHrjrwvINhik8vZHC8ddvw5wHIYDLXjj0cyiAMJV3sTLt6MBjnfMsWeEW2jeit+I420JKh3RrgPkfCpscjjao9pkVyzc3xR7fz32KaZUWaFO7xnlSU/93S270ud7j2i4vFNPHSAsw+9LTbE//eTKtHr5IvXY6al/cfiUFt3Nnf2IGQ3z0rpVizWXTk+chXGnTPGT35Prl2u4nd45Q/oDAfkxPUC8mdb7Z7796rUb6boZIuR17Ua/2+KctMHY4TqCvOuqqEIpgVFy9gO6erQfCcUmKNy9gm6JO17Va7sGWUVB/dfXDlh3gJxABsUfJigFfsAjX92FZ77Xf87RnuMajUNBRsGV0OrvL+FlFurUvC3vik94Lh1bUFnYioHOSBvTbLfNsGeUrBl2RJxjka8OureXaodxzdBJsedgfbmWhPoCT0R/lqBccd+EVh9CDg88j+GlUuNrfCIPT6+ZKhyj3AhbXIcD4sJOCqZH0MLhSrEHhKFe/jo08R52/vkKzbwucvrh5FPn6w/eJnFNAJMSG1PsT5piV/QhOVa4s5Xt5JkLae8XJ9KufUfT0eNn05Vr16ttaJ1gkvWw2RbH9rXFC+akqSYM6Dmzcv7YyXN69/TGVenLz29I3/zKJt3T0543e7pWxj++dml68rFH03zzIy16/70AVg7D8cy1M7SPcXH8lI8QsFrW66i9nN2dX7winLGrCijAfeqKquPgN4p/Qqi+tgF4+s89AhJudx1IKAhcuLbh3CVOKxDIXU/BBwFwEC6NP72L+yqMR2i5GozqHDu4gUggkyFoq56Bta3gVY/QXaBhPLOo9dElc9O6lYuk3FlAe/nq9RxiZKGmol8Db/1nnB1vh06KvfXhfgOZ1wiUOEP7bpxRlmk44On0n5Zi2k+1Sttcp9QC35HCO2C4qbEq3ofj9WQOisMgGV/9dofh5h8AXcINCIThQpvsoPOa/NL3HDvKkB4vvfPTZy9q3zjPg20poQeNdU+PH8V89ZqlcfGK9aBvmpU/xXrpS9Kzm1anZ8xtenx5Wmo9c5Q9B9SgzFmstxi/qVPUk+8VEFLkN8V67I88PE1xtbee3rt68DedcD06gR5yxei2eiPoRAmCeOhRBqEA7vHQwMkeA8+O5cjXfiFTzB8KaJCwAoXXf4lzfRmY69qBaMNx/OjaBrWvh8tU1LXEHUUzVKzvH0iAgHN2AWCMkqx9HDhhEqW+duXCtHH9o+kR67l/ceR0OpPPkxhpgJY1FPfCl4uPNgBBZejdgrfej6arAVxRkEHvQTlD4XTpy9lvdn1Cjhr4kmik1gl3hRlhiLz7c80eu/FGoEhx8u1A0Dnd3pz9tKQxKOQwwSMVeIOsgDe4CeNnbOhLsUdGQwWEgvf2r6dT1ttnj/mxk2el1L/ywob0tZc3qke+zIQEwoKeNW76w1O1hQ3HwjkMhG4QArMTwVDoDMeTJr13gPxjbn8o4ALO8lA2fiVvOftroXgFEX6YYEkPJxmJOBKAUXJKbdiat5OyQzmGmb/zD66ZNoybbxvQpHX+qcBp3vTtBJ7HsFyDLk5Pcx1AjVd5EoZ/E9wVjzxgkFECRyGLM7wrbMXf3PjbAHro9NRR6s9u8t0xO3YeTEdPnMshRhjKMxTsljMVQEu0rpyfdxDOfwjMhfc8jybUCATOjlTGUfi2QngprOIPxw0DcvTAWY92Dfya1yrMAwJh+NXyrcY9sL6X+EbaUe+hszqB3kBm/iJ89SJfGtGtxz7wUPykifRwp0qxak7ber10ystDTIYCRCMuC+uuXr2Rbt+9kyZb7331igXpm69sSk89sTLNnfOIFD053Lx5q9ouR6+bfe8+BO+K3RVpUs/75JmL6fjJczIWGNoHfwyAmCsE1HM3pY5jHpD4TAEwakA+uAYJOjtd7E89G0tfHvlFC5SRiMHFfodxuEvAcFIQPcwFo2RPvwK6z/jqt9V5nGG4Kn4TSDvfAla38AF+wqa4tgZshYHeRLS8lm2YIET8tsy15ZY83enZrg+sYjcUQdNpXLgA4e1Q+MrgXrN8YVq/ZnF6Yt0yrZl5Z8vudPDomRxipIHcAzeu7hd0Vs+mMaKnIEAuj9fHaLoaAm9w468bKGbGf1QBVPkT3u7RxKriE5XpwYJQ7CXEUxPXe4n7gHVZvrPbit48SijqTQV6n/8mTJj95F965XR2DIE/unSeDqFh8RkKkWFrVsH3A56uH0H7yPRpafGiOWnD2mVS6Ow756AZgO1o7Dlny9wZDfVfTucvXtYRsVPMwKDXDaDUMRJYLf/xjn3p3Y92p7c//DwdPHJKQ/isiGfov7nIDsOAnj/AVrprZhhwZd2AYTjonwoh5og5JpR7QWm8+FN5a2c/+WWEzc/32YmxjQbCCz9dS8hh8a/eedhoFH7fn/P0gbh3p1cl5Gf87W2OH/f+DihXovOnawfXMpQF8/QLOT/+LMGcvm7dKZCH8H8Pozu7kvUDqdgzBK4xz06h8AFj8Oa+hJmPTEvLl8xNy5fO1ZD8+YtX0y/ft3Z4rxR7xqkGx7N03i79ncCIXr5/kKDEC/fgckaGTFfHN99zacCDReUaXIbh9NR6NRd4x3WkIeoX+nUE89cb3uvfwwV/VH7uXYC/nzBhFj32duAljZq94M9uXqP96iw+Y6EbW9lYJNcP802w3ja9cY6MffKx5enpJ1dJoT+2eokW32AwsDp+74HjaY+5A4dPSmkfM6ejYS9dUa8dxYxDqbN9bc+BY+ntDz5PW3bs1x56PgiD4p760CQpd4YGSyKSBuXBhzRYHU/PnbL1Ju+dqMYamdBB+oDWp07g4rE/x+9woMK5DW/Di1f5vgLCk6+u+b179ee6QE6+DSp/xQdnuynCllUWYYvXFUQ8vRuO9KzyiMQ6g9NLoXjI4c0Zk42+YnfcOjou9iP+MAEIqs6vjrWXqHau2OdpN0ut2Hdlxd4aduRcDXqyH1HYcK4NOMdUlB6OIXePQbiWrgcYzdI4ikFjnp3OLUBR8u29gOGUPxR7EzzNjHXrpQ1Ggv5BvzZo+Ad15d2J1hkivQnjZ3VePEeZ6eVyVOzvfOf5tPHx5epFM8TNITF8ra2forElhi1sXzKF/nvffSF952tPKe35c2bIWPhs9+H04ze3mduafvHeZ2nH5we1OO/oibP27lA6evycttGg1FlRz+gBRsCW7fvSL97/LO0+cLQ6vpZ3gA6qmfGwiNIkJOmwFY7teRgHlI3h+MH2t1cM4InqSX7249eBaeOvBw4zIFjU1pIMEcrI4C9FkzHKaJVBanxpzH47rPwryJlVkNPP0JZv5MrFPHhTBSGw+VeNQL/t4O/zr6XRj1PqjlZOyUG4AJVXHV5exLc/zv/mTOrRA8dJdxWuJZinI6wnIKa9opBltPveYxcUuOVrVT/hwJkXzkgVtD49AFDibA78SvegAWjab773q/Au6dwFcUKPdplcsYMvT/B15m3uuXBnN7lkLTCi+BsOnfIQgB85FZk5qesYjre7AMrVurqkcJMnTkyzTRnOm/2I5tiZa2e4+vLl8tx3MhiamzB+gk6Zm2/K/fF1S3UGPL135t0/23MkvfneTnN+0M1bH+7U0PqHprQ5ppbFONvs+s6WXSY0Pkvvbtmd3v94j3rph02A0DNfs2Jx2rh+RVq/emniK3PgjfJuYbgC6Mlz4M3q5Qt1et7CebPSQ9aT70STFlcCaWe/YAsFw7uLs19++gcjJyn061rAPNr8DJr4tl65698BTSbtDSw2/0rI71ug+WygYNnpWYHM1Ww5dGeQk4vUque29/mmeuavCjx6UKNQF4xeOf7+rvCXR4Sp71tdEzqFGUnXCqJr8ec+9mvIl9cHHnpFshNJhuTsp08XfFKD+fcII1YHHfDq5tANqx6drzUg7KxisSfTyoB4Q66dP3yUqhWqMB3y6dlFfIM6/9LlMI3848NbCmM/4cJPV7vput2Nz6+uMmXHQTIQgA+6MHf9uSlfLTS7TTJkMjTH8Ddz648unqe5debwz527nHbsOpT+359vkZX/xeGT6ewF3wLHQTIMq7Ot7trVm/pKHEPmBw6dTJ/vO5I+tR4+PXYW9n31pSfTd7/2VHr5mcfSM5vWaHU9J+MxxK9hd0Ohsi4z8MiwPIvv2P7GvP6Zs5d0IE6Jd5sr08n3zbSr4B0hXvbrits+nHA1x7WrzRjhC/AiDmBl9go5gUgvnD/XUOWX/ZVz9uO/k6iOevDfVoiogvaoQwNLB3zILlyVtm68V+B+UQaVwMAwV/48jYbjF5z8vg3MP977XHUdDpr72xo699hjKP7+gZfH8S5xFhjBo7z69aCj5OyncOClv3wPa1Ts2SG8ew4POimtXkEoCN/gccef64B4j5SzxIfSfJcump2++cqT6akNy6XkwZkRYrZbB3gd1BB1UZeDq14ZDC3/Jji1Ov+RVytNieDP9UJwfwYCD69P99ccexQA53PX43T624Z1y3SQzKmzF9PufUfVo2aomhWvatpFvF4dC9kwFBgFIA+GwKWo87w6B1rw/fU5s6enWTO8x33h8lUtbLud986fO3dFK+BPnLpgcc+ns+cvK+xLz6xLmzassB54/cU3zo2nB25ZK/8m4Ed5KRML88gfYYRhISIFARuOP39VlM8TrK+Vv19j3g9nP9X9aDj7EZ7NZ0Bz7NlfTvjzxp8rQT8M52kHk+LV6lc6f5/94U/8uAdjvSacgtXhuLLwywPIr6J//OWFYf04+6nS0LxV+BVOfhYm/Lmv/R3K8PfXtdMZZz+gWT0HzfCvsW7Hm482odCZZ390yRwp9rc+2J0OWVtqhr0Xzn4cb9GYR5djwpWfLP06xR0NZz/2X9aBrxmSXy6D8NVPhCmce7f79+xyXh3f9ebsJ99HOnnOmlf6iff3yPHXyb+DW7l0nnX6NqXHVi1Kt27dsc7i9XTaOnCXr9yo8LVg3HbB28z04lkxhkm/jk7yhPucNhgV7x0H3jmeAR4OL483YeLsjQ3FPk5z6xwCw9fasG6Y52bum/l1lJ8SIlExYh23F8dQwo1bt5TOdVPSJ09flGK/ZX4cE8tnWp9/aq0W1DFiwJn0p8742e53+ICLKWAqhr3wN8woYLHdtes30tSHpug78NOnTbE8zOywcrDynq1xlq3yHgw4vOby1RsyYk6evpB9PW67c38ZQhDT8pO/R8j3+Uq48OvyfN9d4CtDzvDPeOP4qxkohzMnP4sXp02V74bqKiGm57h3YVw+x/vwL9/bD5jaBewjbKTteCpMDu/WbnYKE6dPDd1F+Wt8/LnVub/9ZHrbs10dD/PmT/ej4cADvOqyhPNnaG3hwlV8zSW/19Uda1ik2OmxL55j7fWaFPvhY2erMCPtuuEtGged4y/CdCjvaDjHI+NnNOVez4Ff/Okempu/ypSdyojf6DiVAdx4Fj5+lX/Gu8L1XrkCn8Hcykfnp2+8vEE9d84sOXX6UjpmHcNLl68btpQHBnfe7pgXdVO4TnkMzeW67eBCppCvnkvXJa796Co+4v2UVd9vGVHQYTDTp+qc9m+8/KR61D/82RadAe+Lyjw4PfZ+hiIwGpjXZtgOw2GFWVLTTBnPnfWI5rrpxbNNDcWNIcGiuL/9x/fS9p1fyBBgCkCH02QBgxIHJ4TKqy9ukEHAHAqrc1cuW2ACZ1rOeWCgnByaw7z9v//rn6RffvC5phwYIegElJ28g/gBoomPsfYFGCLQJw7RmTxpgj52QxYsXgTPGzfMKLpxU9MHPPuRuAPnqUq3Cp9otNN5BErbXD4TAJqSF+kw/YEBJePJ8rxqdLlhhthNM7603qsu7qAQ+Ua5mBKZPHmCvrk/cQKf7L1j+fnX9jDSfPrltnYqCAwfSqYsobUu8J752r/jPVFlitEgwpDnFO7tykJIygLvkL6+EWDuZi5jXyBCOGbUDVDXgJeXeqMewWniRMRd0qgTtLxh+UNX6q+Eup6sLMSxZ2gB7lwHO9mxn/iEEb7wXaYhfCKELTg0gid0SqPVk9PMyx5AL/3lZ9alLz+7zq5r06FjZ9L//u9+mN77eG+uG+e3CRM8DuwKLvCU17vzdq/1MQGesjJyrsZk0rey6swKc+TgaYO31bUZ6/CXDH7+LADYt1PC5RMGPvVGekzTUXfQFKjx5hwObxe91Es7kB5Dpl5X0Oihh6xtWLugbJKvlhkyl7xY13T9utOI/O6yuNdRGhCCF6hX1jZBJ9o7EDTqpxyin/1ASxDhCm2jXfLD+6AnW5S5Qku9tXe0S/K9fOWaruQdcgzaw5NRF9yDt+eX0i0LfxVZQTvuwDcRHz6GBi8+vSb9+Z98S4r9XePJdz/al97beiAdOn5WyCCHSAPXCx8iN6dORZaZM9rCJwD1pfYt+ey4dQQvZgXgyKfIo54mU0+GO+GcB7yeuLboYXAXrfl1lhCPT175g5YsOO2Nnu+qRxekx9YsThcvXk0/e2uH5tiheRDekxs6MATPUPlzm9ak3/rWM2n9miVq8Aj8UGg0VvLhcJptn32R/tM/vK1FcsdOnLOKvGEEMOa3MDQKGJ75dxiIg20wFDasXapPyX7tpSfSimXzc84DA4SCYB9/sj/91d+8kd549zPN9Q90Ih3ll2LXkzgbAjldoJX96a0HcIiX1W8riP5GnwVzZ+jQj7mzpmtKAUY9d/6y8DlnBseJU+dNeJ6VXy+MGIxO+gvmzVC6pM+OAJiJrYFhBDG1AU3Z03/m3OV0+PgZfQuf4SvqpGpdPUDkS49uGeWaN1P5MBJD3tCc/M6cvezTK6cvaIqlPmPcqGiEqgSILp4/9HvYeGb+3EdEL+j08DQzguwPQckCGQQJ9LlmjYw0T529lI4Y3Y6fPm+06264DQ7k3qooHBw31o4sWUh5ZwiPh4yveYeiOWsG68lTF9Wbhc4lBL2gDV8khL/Am7pg/QcKaiDoOX7m06Bn8B20pK6mTnF8MfCIyymR8Bt1hXJHKOfaEGBYv2IK/ZXn1ul6+Pi59H/8X/+Utu08qF0wc2Y9nOkwSeFZLItCp/zU+ylz8Hav9YHRxmjirBkcNU1bmZqmPcSZFQjYcUqb9PiWxaGjRme2seoNzhVQXWc1cFR11Bk7eHQWhhSin4MReNMGqT8fzh28XtrBMZlidKY9zDfZBQ+ztgllhrHlMvC2tbtr6uSctF4mV4aPb9zkCOxOJWgFZCtlmDt7uup3lqU/KfOil+NqLsfFnG7v5ai3xXob8CfDSf9+DXouML5S+zSaAkHH0yZf9h08KTqWcoz2C13mzTH5N8foMt3klOENPwOMCB0xpRzf+2jyTcRHzlB3z2xckf7kD76cFhkuH33yRfr4s0Nyx0+eV3h2WjECzNoq5AIGw0BQtpe6fad0zcpEG2EkulP7bkKQDYNumskuOrakO9v4etIk2krwm9cTRzRfuXpT9eS1j3zMvGxX+AYYN2lla4+dL62tXblIc9QQhTPgP9qxX8PlJUTF9QohcOiVs9WNT7b+2lefUl5YK4FQEzAofm6GBQqeirx67bql48ofJ0FpOFK5WH40doZdXvzSuvQ7v/ac9seXgAK/k7cZYWU182Vk4u9+9H56/e1POpY7IIpOfK8cvwaBuUJw+ZZZiGw14WpBPCXNsUpdsmBWWrV8QVqsLXrTZKzQKMD1rDEcSoFFfuztP3jktNHkXP7cLQ2+XcBE+nOM+R5dMs+Uja89YLcDgp+Gh9VJg0OgA7Viv2YNzhU72wyPnEAAYFxcHlQAR77MvVImRlFWLpsnIU+5aBiM1NCQKQ8NnOkPenr7vjhpeZ0TE9NLLOk4xZgdvuQb+6TNx4EWWmNlN8OCeY9YOR5S/t6waRwTRRMaKoYJaZLHoSNndJY5tKO8/Sn4WrFjbSOQpxtejD6x02PF0rkmSLy8TBWBP+U5d+Gq1R8LQE+Jp1FqF02ghHUP3aijdSsXqk7oSYH37gMntLBzoJ5VCJzFlj9Ch57w7v3HzSg+rzxoLwB5TJ0yWWe6o3QXz/cPuMjwMuGPkQ0wbcYJkRhEBw+fTl8cPZ0OcrKj0SymxAAp9mfXWo/9MV2h9d/88P10wGgM/yKwRAfLE1AvxJQWfMa6naOGH4ILvvZ671wfnEuBjJpv6cFLMuqs/mdaXVP3KLKgM/P8lHufyRDqXAaj4XVXMsBbYSg++Ilyk14YIhi7odiVrkHgTTsEX9rFUZMRrEPqxVAU3Y22nOQ529of7ZJ1TJEv9cfIE+0d/Oj5YZidF8+c15oiDBUUcVmfAcgj5CkGFF/aQ6EjSxZbu3eFwWpwN1K8HBgo3r6PWtq9lgMAP8k/ozdE554ecpwdgnLCYIEXnR9rxR50pA2+s2WP1dEplYdOBrguREZlusjgKegCoNjBG2OTKwq+5Bvk22OrFynfR0xerF+zKH3zlSfSTKMJhsT+Q6fNncprqaDzLcv/quTp53uPib4lxMiDt2+j6YKZ6kQutHaDnAm+vmodT7VvoyXrxkivbN/NDhjy7OGHGbGebm1otsnJOVZPc4x2ZoBlniv5jfVfONKkrFLwxssCrtSH3Y6buOJfZF8HGiDD8DA0Ao8CYq3TIIYDCFpWzrK47be++Wx68Zl12mJGI4UhugH5nrSGT6WhUCikK3UfJoMBz5y/pC/L0YA5qQ4GYMX9b37zGZUlAALQAwlrDJxIq4QvjpzSd99fM8X+019sk2HRCRDpgDN2Jqb9hcHDtSL4AAAOWHxrViw0Y2RtenzNEvX0EIIIAazUWNEPY1CRDEOpsZvg2m9M+v62venTXUdUfuqshEh/0+OPpt/4+tPp8bVLxKCkCZ1g2Biuc1r4MKOYUPndlpA8bPT95PNDZmAd1PbCwc4Aj3zXr16cvvrihrRh3VI1choZ39rHOEP5q07IxxoWdclBRJ/tPmJW9YH07kd79TngEuCXNWb4rLdyfOnJlVKeKHp6Vwgz0gS4Uh7KJmPOHArx5o3bWg1LI9luvcmtn/ZWniZEPVMv1D/58xVCttO88NQa47tFEmSUl3oMvFyg3ZEQoXF+amVla+fOfcekLFHE4MzWHFbxPmF0Q8kgwP7hpx+lHVYHA/UQifftr2xMG9cvk5LG+Pvbf/pA9UY9hvEQBsAGo+MLT69Ja8yIoH1yzHKJr49k3RXN+Fob+P7oje3ajVIqAFfs69KXn3PFjtEFjentO7/5cGqkS9Og7sGHNFBaCNSPP/1C9Y6w7gQIvReeXp02b3jUOyCm1EkbxaspJaMdIDqb4YHBj9Jiu+xPf/mJjBzyDMMIHoVmj69d7Pxkxid1JtmgNuFyhjoBAm/oj2DFMNux63BuFwc0qjgQBN0fs3bxpSdXqBOCEIeHyRNhLp6SRHG+pSwyTo03Dphx9f7H+9JW6+jsMnqhiEuAvtB5kSmcjdbm4Z8nzSFTULjQKeTtcMoB9XCkFdOROGhH52HdqoXpS0+sMBk/X20Ww4mpqaifoOPOvUfTf/7xlvThdutEWZ6M5v72t75k9btcHQ9GnkQXK5Pnoeh5JOm6DJ1OfLNmxYL06197Kj31xKNSvou0mPoRpUP70QiWxUe+AfTUSetj683/8Ocfpz1mREdeAEYeBiTyDP5jER6GR1v7NrzgLxR53b4/r9p302By/ltg8nmZ2s9qk22d68nksBkNu/efSK+/u1P1RPtCJ2KkiqAG8A3R2ra7MXdAIRi6PGo9NY5zxSrEyu0HEK4gSo+K7WcvPG2N33rrKFyGK2k8AwEFZMgYIblowWxNE/jK23n6UAxH3WoFvBEZYcJQPw2RK+8wULxhOuERUCfNuvOhp+vV99g1f2N/NJ4r1vNn6HnXviMyajqCaO7MLOdPeDrUtO4ICAqUG8NMKL3nN6+2in1MChjhgsVJPZA29MeggXlgdIwvrFgYFqscxiI/GJV5OOZTqyGtyZPVsMjjO1/dJOGFwEdZIGSoG4QJ5Qcn8pBlisVtdId5yQdLH6HPnDU9OOb5YeBQFAFt5TKl8eXn1kvA0IulzqESyoL5VUDTALmOyTOs+vPWEGi85EFDBmjsa1csUsN/6Zm1opeGvC0uaUTvCoFM7wH+wjgiDxQXuy0Iyz09J9JGqaC0aCCDHUxUA4ab99QxKODNzYbLsxtXpqdMYGN5s5AFfuI0Q3oG9DJo2NAQC5/eFAKdhosRhTBgHg1h7gJythaioXwx9BAMnCMBTThTogQMNRQEYb/+8hNmIC4WX9Bz2G5CAMMXnmBemnpnjctTTyxPzz21Oj2zcZW1K/AdZ/j5EDYGIoYji0kxvKhXcOL+4LHTmjq5UhgY8OFySyO2uxEWhQSRoDG8Se+ctJVujguO86w+oAW8AS0YuUHQgm+zh4NwfWbTSpUPYQ3toTHhz18yGlvaDF0jrqZbncPnyAam7jDeGB0iPOUA6MGhBNgG9bIZJAhWlI8UqdUVIw+k28SbnuV8wwW84TmAzgfvO+ENT0J3aCO6b16VvmS8wmpt+JByExf8oRM8wxW6QT8MR+LOMLnG0dqM3FC3hCkBXKjLJ9bxlcxVJnOXiRdp5ywUUzksDoZl9G6nW4+R9g4v0mZIEyMQGkW7awKiDeMWmYcicflnigoetLyfNqVOW2CUjrIjv1BCwVfwOuVFmWJs0eOmDjFIvmE96ycfW6q6pS1EJybwRinTtoL+8A30phNA+tCSkS6+NIjsUtnyyAvyDVygKQ45BFCn1DU03W1KmHQoD+HBn1GEzaZ81b6tbEwrIjORt+CmkVS70r7xh97Rvhkhvm1GJmVmu7ahJ6BNLbKe/3PGz6wBgC+Qt9ABeQEPSCaorY9TOQDnxSvOb1fhdabFDCxd6gJoU+y8QMgwrA0RaQRh3fYDMO08E/KcBf+9bz9nQufJtNJ66ihhhG5YJYMB4SCEeutGbAiOwhbhTXBTufSYaDzMPwEMMROGRUEIPgBifLLroPbjHzx6Sg2dinNlMEGCnd4jwoUDcfioTEcQ3lmp4/xJrwIGohrKD6MDy/03vvG09Wofl0KHIRF2MB3MxTG6nxuj0fNiNIK64MQ9rFgEMVdZjlZumAxDhQYTliHvUXj0SlhYiGAESIc8EIJYltBFQjEzH+9jvQMAnTGWZkyfJnqinDi/vylYmuV69YX1JpDmiClJE6bUkcFfnNCQGD0OaB71iFHBMB51h1BBuEigWuMGUPyrzcLlo0GMcjCUCV8EHyGsWH9AulEeGgYNuFN5qMfjJy8oLDSj0Q8FpFDNcNpogui3rKfxjAlT+JOh33c/2pN+zsiP9RRfe3unVolv++yQlf+00c34zuKisOmFUmYscAxOBBPlhrYUi14ddRwjN/Su4I0SMLygOcIcY4q29faHu9MvP9glwUla0J/2QQ/hWRMm3351k77GhmGH4qcnyNqSn7y5I/30rU/SLyzuFutJfbb7qKYuEDInDT+2sCHIoC3yAWjuY79qtKQH9Yv3P5d7w3oZr7+zU1f2t3+wbb9GmZhfp1wYAvApo0jUBXVGnTd7OBipjIYg9OEf5ktJn17Ma+98JpxJe//BU+Jv0oNnkAO0dZ2JYenD4wDtjbYBL601h4CP9N4y+tHbGghvFC3GIoYaigGjtxPeGD7kQ/18+9WNpviWq8wI8I+sh0xerxv+r71tZbB83rR8f/HB5+rJ0pOm/hhSh28ZvcFIoXfabH8oII2cWCeBURt6ysiO97fuSz+mXo0XOQSM4W96p3usHdL2EV2PLporZYTiYXQLOkW76wa1/PMrQ9SMPG6yvOFZjFnyfu2dT42vvC1AU/LHn/rbe/CERn/gmdlmiLFGCiObkQPONXnD6A9tSrwxxtEtzL3DN4SnXbEmiDqkI8p6IKZfKCO8y+gOShe+2fH54fSu8fv72/bpHke97tp3VHSF/5AoyCP4Z6MZSGrfptiRIUyHsAjv529/mn721qfp5+bgD0YAGYK/cPGa+IP2vczaN/IPmcBaAto3tELO80VE0mX0BhoyUvCPr29L//jzbSr32x/uEY32GM6UjSkZZBzGjTokVv9Kz6tD6QJtih1lhBCkwdJTbFqeQ4XZM6abwFliwmZt+popdfbGI1woVCDRCxCWSonedwhz7kmLYR6law2ZBs3QBT0+hi9mPuLzZYTHYEFZMy8fgl9WoDVKzRmakiEcyo4T744c73LAhnB3HOT8Sa8CBlLsNDhW7sMo9LBgZvVyjN4nzlyQYOLcABr1jp2H0v5DpgQNJxQjQoOGR1mxQhGqKC1wpydHuGjwUuwmvBiyjuFZAAHH/BaMxFDWnv0nJAAQ2swLsfiDNGBwGGcyc0GmsOk5TLU0wZM59zhbH6UBNMvF1AINEGMDhv9sz1ENI+20617LW70oBLnVEw0GfMmH8kBRygpeZ7Iio5Gh6FBOlIlGrXo1AYRi3LX/mKYMdu077uWxxkR5aBQazTDrNvgFnoBXTrBGwQQLgj8Efq+AYUHviPI+t3m1cP/c8kZYI5QpK8NxzCGCH3lBM1nhRjgUOnN1lLcUTBho8Cb87ouqmJNlMeAEGZ0c6QwPAAgfemUMqTOSQQ+VfBCGCBqMBSk5i8ucI3jimJZhlTS0Qlh+YEKOIU3ox3w+c3nMUQffUYcoNPwQMOAXhlBTsYMfQu/tLbutzo9ZHsdkzDGvSbrUO2lRb9Qf5WfEhvpHCNM2VU67L4HvTCDM8SdN2kikjwCHpzF8oDFD8RgtrHNgxTk8j3HMfD48B9DBoFe5avl8Gdaki/JBgUAXvlcxEN4sfmNuHB4n7SbeyCmM3ZruqzSqQjm/MGNpu7Vt+ATh/Ym1dYwwygAvkB9loS4xHOh9w18oFdop78kP0IiA8QhGz9df2qChYoD41C3TTeTBNBftEF5EMbC2BbrAZxgFKCJ4DPl50PBrGpBNgAZy/NmVHjejjxgx1CkyAkPl3Y/3SHnuNnrSLpnai/bgBqLLNDoNyHEU4FbjRegDztClxJt2Splpw/TKLetKTsCnvEd20J6OnjwrgwgZS/rIPNrkFtHDjNZMS3CiU4AcQL4hzWlztBO1bzPKaK90tJgq/NCMvG0ZP3iENDAkWFjJFmzkF/XVqX1DK+Q9U3dMndFzZ5qFNDGuP95hBk9Ok215Xk8+4kLbol5Y/0VZe1Ls2V+Cmp4UQns4sNisFYbeX/jSOp07zzGvZQ9rpIF06QmhqLd9dkBCiYpHAVC56sFbI6Fh3bLy0Qg/+mS/NeKjYi7QmvHwNKucy+ndLbus0lvneCsQ/pmpcf6kVwEDkY4G8LJZ1i+awbPWGiENCrocN3zeNaHymgnFn1uvCQHz+d6jmj9HEUZPl8rVynZT2vTcaYz02qk33lMuV8gTK6FL7ywUO8oOwUsv5+0teyXUGaFg3lnCfRfC/bgaGL0jGhDMGT1qhvtDKdOAQsA3y0UjpZGwUOzHb25PP/3FDuVF+hgv+8xgYa4QfMEVQ4URCQTZNBPGKEBOJWTIDoBO+tiIlYdhasoGIMB++ssdygMrnzwQCppHN+XK4UfwArjQwwIvANxpHNCTPGg4Q4EVJsC++7XN6okxPEujZ44OYYagYfgRI5l2BJ9QP1jcKB6mhGhjGCooLPDD8PSekhtUxHO+HKcdHvRYUfrQm3D07OFtn2rZLIF6wowyhOL71qNgdIT84XuEDEPYv/GNpzSFwYjIJ7sPp//yky3pjfc+03qN02d8weLtquH7zhNodMLqCEPJ6/2KRrbCoGsqdgTPj17fLtoTNozRSJYLAo7yIqAoIwss6dkQ9oIJey1uaigWDBRGiliUR9vEAO2UPrix0BM+ZcSIkSZwReGirOFroBPe9CzhHY1YmjE4HLxjBCvoznQNdMcY+cfXtsr4on2ztgTBTeeCvKh7gCv1h3GHwoRvUbjwVqnYY0SAIXC2G2JovPPRHvVyt5gSoszwIgobOpAubYG6psdOOWl7rMxmGpD3GBrR7rpBLf/8yjw2BghGGumDK6MRKGbyCn6Br4SDPROOTgnv1Ms2PkP5oshjyhSalXhDd9oqzyhOyhsGKAs9qWfqiZ4thgPthjbKtAPykblq5r0Z/aADAx0xzDT1Z/EsWUlzjL26fU9Mn1vH4Yc/26pRHcoW7TvKxdXbNwYeo5F3VS/evs2IsbKQF/5MQbEWgakw5MCb73KE+h7JKjoat+5YXRkit4yHSVNryfIiUwwmtX/xZrti94nnBhAQNxIAwbWv3ISx5r9NuUbm9wIg/rzZrJKdJoY4dIxeqVmJxiQwFgod5canaB81vFBYDHdv2c6w4Wfpg617FAdm6Da/NByg7NAA/LDWaPAoKxgbpkQBMlLwtlWwhuGs9xQ9BpQGPUAqn/3Bn+w6IkFLbxdFyJDPamMiFB6NE1p0A2hDzwDLlR5aDEch0FAK5M1Q7jvW48LS32c4QBPSxIrFukchaVGO5d2tXAgqGioNW1aupfupCQwaLqMQpEsZP8rWOcNy4IYBQT0xL0861BvpdwPmD5WWpeFl4YpiL8pjdOMe5UWjp3EpH2tg9Lq47xXABZxYlc+CGuhw2gQkZSPP3SYAKLeEkimjABQTgoQFXfQ2qVN2O9CzRAGhXNjHGgIMwUEdURbSw3igx8fiMQxWhjvXr16kNQya1zcFvtPSpZfGzoLIn3pjbQZtkXlkFBqr3OkhUC/0OsAJ3MAxABxQWCgqBAq9G6Y5muVqAvQlDgqUsEHvgEgXIcyIESM49MQIpxXqVuecd9AE2jA8jxGCcdpMP+iGAAVXlAM9bBQBo030kgZa10PZMRRoiyiF4eINT6HkUBAM9bOdjZ4bhifD+vAK7ZCeHOmSfil7Iz8ZWyYjugHrXzBQUCLgQHhGx+iV0vaYw6Y8kT5lAmcUIMobAxteJBzKj/VJdBwwSug0DBU0pWnpM7IBDzf5KuoJHsIFXtQldcsITHQcUJxNvGkzhKFsjDiwpgbjBsMHfINumnqxvF2es//fp7mQmZSd9HEKY3lHHdTt21fXsyDQ2/eRtN3aIvn20r7BkXbA6CprwqJ9ayRnkk8/co+hDo4xahh816wnN+rOyGiALt2gu6QcIaARYc1qYYYR/14DFUJjwkIiTxo0e9NRlnzeNSqMLUlrVi425bRA4SA+n3390esf60oP/pJZ7CMNPjQ3IfcU5mmhSwxVo5hQ3Dju8WsCjAOuvEfpMgfKc6SL0mX+mS1z0L1fiHzoVWNIfLhjv4aYAmjwCBEc9OtWLno99EhQTAg00iwbeMAlawyskEVYwsSRHr0I6opy8dwvBH0ZqkcQq0FaQ4c/vacyJU0YAn8GrRHajJrQADEgacg00MGAvMEBoYclz9Dd/LkzNd/OwpsAGi/Dg3tMkGCUsLWKHgpz+Ux5sPDry8+vT08/uVLGFWWkvhh6ZbFdAEpt2WIWn3q9IKQYHoWHUCqjBdANfoAWLAhDqQIYIiyQGi4gdElb9d2B7/qFXvGmnbAynHbCPb1j6P7WB7u0UIs0SGu4wBAzdQs/opwYAWCuGN4ZSAEEMIXHqFcsssRIwXDEuB6KwXu/INqP6tXuhw4D05z2zUgYhjPrV/pt36xFwbCkTuhA0PmifYt/bvp6Lu7RSdQdbiTo3dZyMBYpstzw+U0CGgtKC+WqAYN7Bwi3GJZm5TyK5vDR02ZZH06nzMLCgqMRMsTDqn/m27GSmHM/cOiEWWSH1HvfufuwhmZGGmTomCLEqo6V6TARFjZzPFirWKooQCy1JoQlirWI5UgP8eLFa1WPGQVF75E5PZilX4h8OOADxcxwOUOgYUnCfGVPt1u5xMAmvOADFq+wSIl5d4brSsd2Kylvs2wJG+Uh7Vi1Sx79glv53si40pOgjOSF1QyuQ+FPaEvZmb9FCNJYtRPDaP/0kyu0gKnpGCINxwIj5lsfW7XYygetWDXt+/PLcoZiovdNL5weIs2SLVPscHjh6bXp6SdWauQAQY7yR/iwdYj6C0DwO18wHzlOPV16HYyakP5oQfTcqB96KqGEqBeXQr0BbR7FySr30uFHeentktdIQa94B90ZecIburOeheFgenakMRJ4wX9LLR/4AiMOYxVjgtX+LzzFjpt2fiwdw8GMKjBkDW9joPhK8snGj/e+Q9YNajkwSTIg6pWRF/CUvLAwUBAyipJ2A02bTq/89aDg7XuGphar9m1XRiqZ7uhEw9K9VLXvRcIV+YJM9PY9Pit+n3ZDH4EfI25PPLZUi2CpC/IPOTpU6KDYnWFHiuEQ7AgnCmLkzb73Hhjy2rh+uRF2iZQmQ/HMiTHsvnv/UbOYd6a//rs30//zD29JmdObRwFBaOZ/cdyPNFBJWIAoMRpPgHpmpqxxvVjYCGN6ZwzTo6QCSBPlioPphwvgQg/XD6eJ+a72nm63ctE7ROCghFj9+YPfebnNff93Xkr/1a8/r7msZywcB4UEMLRMeux9d6E5PGjpwRmP9wuUiz239JIYHWLnx1deWJ/++PdeSX/+r7+T/uJ//O3K/W/m/tf/4Tdb3F/8W7v+2ffSf/MHX8l7dgcekaD3TS+c3jj1zjqRb7yyIf3WN59Wr52hRaZOWE0d88clSPBbb4FRAUYHGCVgtCDq8587YABiaDHUWTr8QrDCS/cbUBAYwPA0dSTD8h7QnSnFpYtnS5ljXMJTf/IHr6a/+LPf6sn9+b/+dvrj330lfeX5x8TLDwrQ5qk76hDjqFm/0Ja2MNKg9i1DqWjfz1v7NhpBq0407OSog07tG11DByNGVpCzHEjF7qhfe3VT+vrLHI++XHUKLkOFjpxeWjjDBYbC6fUxJMTe+PsFMPryZfM1JM2339kzzeKw197aYe6T9Po7n6Q3WX34iZ8uR+8GYwahR08e5ysbRxZkfVpjp8GXiip6lMzt9bLlKsLjuA/QXJNZef1aek0IRRhzUd16ut3KJcFm9F+7aqFWlSI4SseBJjgW27GPU1MI1ohruKv0WPyF9T5cwNCEXiyQYR6wX6DcQWcdYmLlpwEyQsRoiRZkZYcA0tWMgMplPwwhThfDaELoM3pEo28C/EkvnBEdLZ68fFVCh2kXVnxjhDKvz3Bhp6FCDDF6C8zFIkSY7ug0h/ygQ/TMWfnPSnZ2erAbwA/G8bPqucbIyFMbHlV9aMTnPkwFNoE98eBLO6AOqRsWaI003ekFwosoQC2mtWeGkUs+HMhBI3rCtDF4kflceCQW290vwIinTdBG2A/PanR6vzqq+Fm75vpVXZsfi0CFt8VFPEhC2A3laDq98teDAnym9m1pt7Zvzkdpbd8DOU4XLNu35Du7r6Rr/GCmbTsPaR0NWwOpP+b0n39qtb5WSjlfemZNYnskBjyLE3sZqr/nnK65092HE0e13os5626A4EXIspKYc+OxuF57e0f6d//hJ+k//O0b6cdvbE17DxyTQIyDUgCG7OjhD7ZYZaSBAwxYyY/iHI4l3+xJjxT029OlHmioNAZ6t6W1XTreEYawI2GQ3G9gOI2DYFiR39F9sFurg8PxzB7zcPTEGWpHaUPjbgB/MHyOgo/De+jNsyKYBUWD9QQ5zALD0ef27h9/jxRoCsgMRYYs2SYUPaj/+d98J/2bP/xq+sFvv5y+/72X5P7oey9qFAhBOdiIyL0GVjfXdL93ilIjf6YsmGZhgV7JY0NxH39yQAvAtA14GCNbQwWMIEYd2FnDKN6ffv9r6X+y+v2z//pb6v02R/s4JpZ56aFDD9q9AG/fhzrSqhfHmQ7QVO22aN8s5GXnwn/56UfapUS9YQTC39/68pPp+7/9Uvq3f/yN9Kd/9NX068bLGLIYG4PBvVfsV6753uJdh7Q9heG/Tj0SYCRHCrCwIBBDj5x4x156rFiG3I+dOOtz61ZZjCiUDY178MPdT0t1qIAFShlxJYtCP4SIT6Vkz1EErFLWDDCvGCvGOzkWDMZeavY+x8EmWt2NgBmmwTPSAG1F5zx3y3oMtge99eEuHZIS+Lc6/N3x9UAO6gingzc+peGfUlmboBES680w1+ijIuPN+PSteuDCtAvD7bxjdONXDaKnjvH39IblflKXXdkutCSfMAl/xCrocKx0RqF6PeXE7ivEkcY+yqX22kuXsQ8gH+b7WbG/94vj2glS8thQHFtetavCeBFZcq9BBpspaE6Le3bzKvVY2enBQtE5M6fLKKOzhcwunbYI3gv8jFlqOZrbt3VQMcrVhjvQbCDHIlVoKsO9aN/c820M5Nx7Ztxrt9Pnh3UgFLwMXRi92Lh+qdZKcEodu2CY+6etd4O2fewjDRAGQQUrsw2NYVYfmmqdN3Clnh8MRor5aUgsTqIXi1DUxzgMG3qgGpLtYmQMCsKvGOrxJ70K6CRHqAxfOd66r5yDFah0VsqySrmTcC+BcsHsbt0+poUXAMKMLXMsdmPRG8OtnfI7cfqCVqqzJYhRCxRwYNwJb4Z9WfDFIjcW1SAoicdWHRQz+XbKhy1S7C//p9e36uCPn3HyVKHsUHBvSdnt9EbQ8H936x5ZsazipjfC8FinfeyUhz3rbAUBLwy2ToDwAD/2LUfcshzsp+8FHpk+JXFMMqtcVy6bb0LmqvbQa++4pcU2K+01zs4/VuHbxXQghvw59IT9yHEwUL2OoTlaFPuhmYfjDHl6oSgy2hcWPG2HYT32USMAoVUJXu5lafH82TICWJ2NMUUcAHZu4d/c/oK/A1gnQ1slbMntUfexHxx6cBIXe617gaiXOBnR65P68LPQGQaFp556fHn69W9sTs9uXKXzDhjaJBwGFWcycGIcfPSm8RAn/fHtB9o9X4KEJxhiVrpnPN17jTdfJ2MxlC/Cmip8EeLN/eFBZ/0V9AZoj+DIdAP4+pan1n3sjHihDBnKhf/YYYKi4IArwg3V8QVEeATjET4rZXMJTbxjHzt0AU406BHQLCNb6+BPjolmnpnTJeFjzmFgRw692vKEt3CkD22Qq8K9QZcA6raiXy6j9rA3wonaVlgWwlJn0LWlfW/dl9u359Ori/aN0dVs37QnhusZeaNuGZZnkSz64KT16NnHzoJIttwxvYKBT3XQSWa6xNujQ9D1npv2KE8YhANW3vt4d3rHGuBnZvlQAQgx3h21HjQLgjhQhu+uHziEgvMvJjGXiBLuFyACKz1XLFuQNm9YmZ4wpuOZs6MbvHVfAEHMGdQo0nJEICxWXC9zKDHEjaOMAdC7mqsfBt0CmquNMZAwKigHZVA5jLG6lSvwYR8+e6abQ1SDOe+xn/Uh5hEoz0gBvcDoFcboDlfmUJkLd8XtDkFQPndyLKDBqGuumQjAIGZHAQfRsKCGXrlO0DLBzbw8dcQJWQhVvggIT5RrHRDOHMJDjw7+QgEgLJrhHlTwfdpzdEYCK43he5QFxgm9nHKU5JcmY2LKgzMYKv4xHr3fEHyCgQ3dUSw46ou2NVIQ+dDLQ7jDjyiRTrzWi6vn2O/PGgyMHnibOXOOzmWEg2Frjnz1o5F9FK8pHzAa6LmPNNCW6aWj+NW+TcZB407tuxfH2QvQtNm+Ucre+eWI2As6hCx4+u0te7QtkhFMFD2GDrtf6L0/uW6J5HE3uC9jdiDPF9qY4/67H72X/um1j6yydmqvOPPcH27ba9bQ1vTXf/tm+o9/94v0cwvHJ1PZosYqdlaTDhdYYMSqSvZEM6d+2SqIw1PuN8AkrIptVjANnd43jvvBQKtgrbcYH3gIgPlQ6rhOCmKogDBiZTHDnRxwIoE0oT7LHivzpvUOeylX66K4f95Aj5jevRaFGn9SB/TetUre6makgTO8WWxIj4YDgRgR4GTCf3pjm46vpdEjFFlsw0hG1FMAPS+MB9oho2WsOWH/fTPcgwp8LpOeL4sF2SfOgSo/srIzN8mQM8ITAS8hfB8UUa/gfML6h0tS5NQjW6YYfejFgO8V4EGOM8V4Y5SgKRcedGBhJ0PM7KBhsTVTcozwcUY/hyf1uh9/pIDRHUYDvH3f9APAjKaxnfBeA2Ulb4blOeP/h69tS+9t3SdjDRwwcAeSp22Knd4YgolIDG/QMxwJix6LmWGVj3fsS798f6eUPN885/OovlI9nv36yw92SrnT0yduv9DsSTE6gPLhK2/N4c77AZoHNFzAwRu8K0K2VKCoWT3OPJMfZNDOQNGD5vAIvoCEsEPo1ZbfdTVwhliH0xCqOU2znhkie9IcQil6eHzsQsPK2fDqVi7tp13GZzGXpJWPzqtGJOCoJlfxzCpi8mAVM2E5+Ymh1Bq68eL9FeY0fEacaPwM0zG8zTTF+jVmSc+YpnYUw2K9AGGJ04wHraADp8Vp+4vxBY2bngqOfesMD9JOoLV69dDaaE79BVQHkJw4L16hLuGzZrgHFZBF0IEhW6YDWCzIFA179judUNYNoO0QqmXYAN0xqJiG4dhWtqFyKuMGc4wcwuuq8xy+F+iEvxtuZzXFAB+wVYuTNXsdAQzoxof3GqhfP+xpmsmR6xq+3vvFSU0rxvD1vR6x89Lar5UbXjp19rK1bz+yWO3bjEoU6kwziIdKnyZdB6NzLFamPpmD51RAviHP6ByjG5wVAu8ATIME9gFtih0hijDFouRcd5T8SC3GocFBpO2fHdAJb3/9t2+kv/qb19Pf/+R97Stnqw6NlUPwf/zmtvTWh59br/1IumiNtl9AedObYXj/x29+rNXw7Gnn85ScI+0E6dcNHcLQQPHt+eK4piCowOgZb1izVN8vf+FLayTEmhDhOMaUuXU+/ciwZKSLgGNeEWEy2Dz9QBD5+OrjTenV59drfieAYTrm8GE4egndyoXSYAsb+9iZo+cb0QxFBozLMjiuWtVvcRhdicMasOYdapoPILsdLKjaS3/VNCiwZYVV6AyfnzDlDmAA8aEPDpZAEAzFICYsRnTTkIZWzOHGSXO0IQxe5pQZ2jt28kJ6awvDznv0sQho9dxTa4x/1qZZ1n6ZfcNdvnrThOU5GWMoAZQK342nThASECrC1jN2Dw7QS0eQsfUIoYdjePRBBxZ3IZhRUoxo0WF63uj+ynOPaW4YXh+JERPaOrslGLkAmI/loCR4smxvg0E3PrzXwBY9GTnUr3USNPJy9952vGJdgP8ZhCyyv5u37ibOa6eTFOtu1L43rTZjyb/rPpz2PTQ6s0j3ttXxNS22CwOnI/fjaa5t8Ry9xHlz/Yzu5Uv4XOSMNN6sCgBreLi9XOa5EPjq2Vmvkp4lRzIyP3Tt2i3r/d3UvAY9ahDkk5iPm7KLxVidrJuBgHmS/dab+XDrnvSzX+6QUcGiA/ZnugDr03HhDsYQc+CVPTN0JLwBwhkDCsdecBQzi8JQpjw/xNWYHMamPtizi+VNnTCkzWpRFCX7wlk1SjrMnSK0+ZoXc1JYujQO0qFhI0TKRW3Ql+F6FDLxWYAFwzISwMEr9BD5GhKGAyuQUc5Y1Rqisjpj7+Ub7+3Ut4sxnKKnFOXixC3wpmyUgbPQMRDBh/POKS+GgspmOLFQZYn1RvliGz3ftSsXpTXLF6ZJRgtGWjBYAIaPKYtvk2sunuPc7TO593azqo+yHqDjSCyeo6zwMoYvhjAfGWEBFWWF58iTUQ94g7B2U/EKVnrQAAXLSm960NANnJkiIhxpcQLVy8+s09w5Sps65gNBOz4/ovqjvWBYER48sOahK/SmLLxDUFI/XNWbs/qdaeEIC78x0gK+1A3pwBOhNB1XvqI1WZ/UpEfF4klwJRzpAsFj92oRGsYHPEmvDuXIR3IwHukouFxyYQf+lbM/wvPJTdIHmunea7ype3iR9kA9My/KN8uZGsSfNsEX4njPORBqP7pOlD8jV5Sd0xoxwqg/Lchi7tausfiLXRLUGWsRKAenGKq9WTrwKbVJXYIP9+LJ7Ede4ht16Py0NT70xJqZwabzSlpz7XfxnJ/YuDzNfuRh1S1TfCzg88Vh3iHqBG2L4hp0CeAbCXSW+BrjeWsT6B9227B3nAwm0KEw2kI/FC0dDeQn9aR2hXw0OcX0BnGg4sSJHB+s6KIpQLmCpshUpn41Bdxo39QX61xoU/CFt1lT8vae9QUqr6WNDCFP2iyjPMgD2iDz8eykoQNXQlC1TbEjqGgM602of/vVzdbDWi4kKCRH4CHERwpaqjYzh67mKBAMvkhDwa6QwKPJEAMBzMtxsgzvv/HOJyYMD0rYURbn697TaoMcFXzk5NWaXlR2J6DiEKhUIo2A4VsaIQxBo6KilxszMrSLgoUGHPuIkn35mcc0nwrDoGxhRIYj2S/9tvXkOG+9VNohvIKOAIKfHjmGAQpy7YpF9n6ZrHwOi0GZcEACfmU+fH2O1bZauPKZNdgzF6UwnJ51uRhSD0Ec1jhlZIqBXviThgujDpRv4+PL/HhUE1yvPPuYzj4nXxoUvcvdB+qvcQ2m2MtV8c36AEIQD1exB5AHX1sjJ+YHFy4wA8WuNFYaOF+vgt/o4Su80QIrfdbMaWmFlYHplBdN4PAZWviVkSSmOYhLXYHrN155Qj0wThl8fyv7YX0rEulCb+KRP8+s/sb4Y7SH4UQO4qF8LKqSEraA4Ez6pMlUC8Y7BhY9R+oSml/PAp3P9aJINZpkfMhwJCMSGB3UMwYlcK8VJG0CmiEIyQcBTLkwbEo8qvaoNjn6ih2gfpBdqifDi7YNPTVcbnli3IEHShzlgsGHEYdioI6YWuF73U8Y/am3TgoMPqDe6ISpo2Bx4UcUAidCMjJA/bOPHmUdCwmRN4Rn/pg2h1yh4zBzxlS1bYZ+B4KS1lz7VezgsHLpfNUx29uQ/8RhlwcGBmuHOkGvil3bJJ9YIbojE0mPcBgQjNwi35YarVHAws3kGfRCPiNLaDW8r9v3bLU16E67g6ZRv7RvyoNshRYd27fxA193Y10BuwBYOBhHzaJjqSfLUu0MOUCdvPrCeslUcN978GT6cNs+nVxXQlC1TbEjgPn6zHIjMp9b5VOr+GGhQCyGfLAMKdBwoaVqM3Poam68EW2cKQcqjLki5jXAA9cLMFzBogeOj2X4/X3rsbN/naEMCOy5t2AwNMhRwVVOXq3pDUQhRj4YuYCWVB5CFYuNe3pHlJvFaihVHAuiVjw6TxUrwW3vULQINSxPGg+rRvlMJsNHlB2AYUN4lYodOmL58QlTlCVWOo2EtOkxw4g8w+gwKoIT44EvymFAsCeTs+0pg8iZIcoFTZjKmWxWLUB+WKikh7FGA0MI0EjALfKlfHw1ju0m8Bo9VL5SderMg6nYqT8aIjSg1zPD8KZsKFaMJ865h87Q3ec9ffvMY6sWqtH7dMMSa3OTNLTOUa+kR/l5z2l8XBHE7IVlZwEf01GvIROeq/CwOmckACFN2TAUeQdtENCkQbuVELJ44MVIAzxAr5AFQihxaIyiqvjB6oQ1EpuMbizcgVfBkXThPyB47F4pSHgQpcbCP/iGdoKyZPSAe/9gx/SsNGcoHdJct3KRaMg9I7vQuEz3XuMNUAc4DECUBT0w2iXHXqPEUMIod/APhQ+dqUcMKWhPOViYiVzrpMCoV62psYrFqGZ7JLsjGB2gjBjVKHHuMXZQdJSX9oahDR9utk6ctz1GRK7LkBzsA0HjKvnn134VO1sXkXuMVkIL6vS2KTmuGCbIDeoWR9rQiW+Yo/CYUoKmnegSQHxkmhtRPlKF8qQju8jqDj7HyMbApX3A38gQ7pF91B9tg/ZNW/b27R84o71A0zDUSEudl6p9L1b5YtqONkPxqXfWHzESw4eCKCu0x7ihjKTFOhjm9Wl7TGPyCW12C2z//LC2xbFNuoSgaptiN/y1pw4GoLe+0oixZCHfM2YPpn9+jwUhFHi40FK1mTl0NYegwjKh8WLFPjTFKxzh2Qug2E6dZa/2wfSzX2zX6XdUVm2QkHsLBkODHBVc5eTVml7k1A1gFqYEWAjE8C2MA6MhvLAqmU9EANBbkdIwBy0QcqFAqeTX3vnUP87PoRLHzraUs5tiD8A4IAyKhHAwm4ZazQ8BDo5YpChYFDqrVFmFzaps8u80NaM4Vi62MsIzKDiGtCgXDYoePI2CslIuzzcP8eZ8GWLVoTZ7jmi4nxEI4EFT7FCZtkCvQkPj164Lx3km4DBg2Jq1ecOK9NxTq9LL1oA55pSV7c89tVq9Iz5URINmRIJDnDDSoDdC/Vtf2agFc/ABtGAInlWyDE9GjyuAdgsO4AOdoa1Wx5thcdjqjvUA4IkwQ2gjXOA5eggIM4ZCyVPTL9Y7BEd6Qvq2vvU4mJJhOBjhyxHM8ANbUuEBIHjsXilIRj7AmXqNNkH9I9j5hC1KaZ3RGiFKD520wjDimR4UMoEFZmW69xrvANojPWrSZ9El9UGl8f1zRk1YWOoKYZF66CgZ8Eaogxfpc94826IGUmDwDh9rQk7TzmhPGDrwGZ903mS04rvu1Kvq95l16fmnV4vPMB5QHCyy3LX/uPZRN9NvQi3//NqvYr9j/IyxCn/KSLOOC8POtBHqliuje/Ag9OZwItadMMLIglEMpoHoIllj8pX2AL3VWTK6cuTwC1Z+jiV+ZuMKGRGnTR5zbsaVK67cGfW6aj1tevfIVsLQvkkHnoP/gqbsSqGNi6aGN3nU7fuw2g3tD/02yeQc6aD8V1n9w4dsx1b74/hcqx9GTVm3g4IHf77u+NYW/6T34WPnNKVaQlC1TbGTIQIAQYuFg3BagoAwwiBQ6EWxdSMa9HCgpWozc+hqDjywTrVK2pQBCoDjYVHuTaboBFjHfLFt196jWmHPwhIaF3E1h6I0Bk+nK+SopCMnr9b0elPsxjAoBBM6DM/wzLwo+/fj+8BsZcEaRzDQYOmRo4hYEcw+XfY5ctgMPWqEX228dFfsMnyMgc+S91WzTI1eMDH+zHEhgJhLhxGx3Bn+Ze5+286DOhWJT7hqaLcDhDGAcqYMAPjD0JQLPiJPGYjmzzv46sLFa8IJ5caivK2WJwdteGPwoVYaKL0cFAzGAYLuxOnzGq5n/yeCGxqxpbFZHwBzy/RWGEHg2wXkBy3ZE85CzaYFPBhQVpQstENRwnf0LL0OTLCaoGTXAkIZowk+phePcQaOzPVRPhYifrb7qIQ+MN+EsXryJhR4z+E7H2zfJ6HrdG8tG/lhTPG9aXACEAT0Nli8dcraAkLJ+Qna3xTNMQaCf1mgRs8HA9KHc6elR0yBYiiQ5uW8WhkBxRoOhBVpAQyNI5C5Mvd4+OjZ9N7Wveql9AKMHCBswYH2QJ0wUgN9AMpMWWTQWPEoL7SFv1FejDbAD8gpaM1QMnxPDwvDEl4Edxbnlunea7wDwNfb8A0pHaZG4P0bN26nG8YHlCvqTaIpA3HoNRMW4xslM5ACQ2aq82X1Qp7QjZFPZAtDvQzJU7+M1kAf6MWwN/O+tE0MdhQxsgUaxBRHN6jln1+ZQmC4GqOCxWfd6EHYEuggILuQG7QNZDRtlHqljuFL6hmDDrwxntEFyAH4nsNmmILcb/jTuQm5E0BnIYD1DKStDo3RAh4hfWjAmi/wlSy1NGjXGL9cRdeW9u1TGbQzRkQYCWBtAx00b9++mJh6Ajd62MyNU6eqayMBOFAf4MeHrihPtD/KyTP5gQu0ZESWXTC7TV6FYV5CUHXcxOV/6BgWANFZLPWNVzalr770RPrKCxuM8adoX/mb736a/uaH76QdO78Q4t2Eey8AElXmYo7xfjXH0D8AA2JgfO3FDemPf58v5fDdacdxIIBJj5mCeP2dHen//Ksfaa88AMN4JY9LNw33qKAhQ84ePOTklfHm3yoO42QwIC440cAYZmLIiGF2rGy2NlHBCCwaJoByPGnMAePxxbUTZhGz+BBlCcPEiskAmAOrkQ8mcLYyyh0gPj3vE6bYJqshkb7jKyGe8/GV1+eUDz0B6IpSQBgNVLygM4KEYV6GqnwInmHSmVKwVbmMBhgWGIsIRxoXjrOq2dOK33UTgADlYZgSYbrE3PTpU4THGVOI0SAxjG7c9B479VHiCY3p1RGXRg3QQJizRrmi6PsBGh+NmYbNMcYsRGQeDiMCJT19Gh/YcAVFu0Eg0+OFrhhQzGeiKBHgNGbopQ+8WMM/Zb0dfQUKQW64Aj6r3g4x3MpeaUYLWBSEEqB85BMGObhOM2GGIEax+TCifyqSNodBAdkQmhgAKBeMpsPHz4jvzp67ojOvMUQBhBu9fuhK3ghp9iJjpPUC9NDorcL/ALRAGHJIVQnQgzbhUzozVZ/0oDCewBklrrYIsQ2k3O44vcGFLbdluvcL74DgE9oFeccoHUPmC1i0ZvdiFGNa/sDnqLXBVdZ75Vx86ob1LTql0a7UbSco6QQP0uNn+Jr45EFnCcDQoH3B9/Sq4UfaHkrZZUrnExzhDfDDoFFHiT/DG2X72OqFqhNCdKIH8iXqJ4DnkINz85QEn0RmOgGFKUPeDC/op/DmkFk6k8T4kPaDsYkS5Zvy4F4CRqDX9Syt7aGTiBx6eNpkFYZ2hQG97+ApdSZOGM1dnsLfVk7LNz60Qy97obVx0hJtra1Sn0BL+6ZdG011Vfu+aPXJQUkuy5CPtD/a+jLjQf9Uq9cRvEwho37Y8QLvsl0VmlI+jDzSgp6ScdBVKVvUToodoMGsX7M0vfriE+kPfvMlEzKLDNkrOh3uP//ofVMK+zTUih/MBwOQuCyRHgEkqtBWsZ0UO3MYDHm8+uLj6b/7wbfSM5tWOyM1GKMJVBSH27z+9o707//6J/qyGz2msKTYU3rFFBT3fUHOHjzk5DV0xd4ELEmYBIHBnBqVjB9lBmDiE9b4GDKGYQYbOemm2Nla+I+vb1NPlcUjd5mANHxVh/bXLR/IHuUcSvFqQeMrb1HsdbnYXuINFAuXfBnC11CYKWjPx8tP75EGypwVjRLjgPf0/okbVj+LXjrhGXjAV1jIwC1TXvSgiB890H4h6MMQ6wJr/DRaGj7HGsMn8AQH+py/dEXCA4HHEF/kG/WPsOeKYuI9+FGuMKS7KfYA4iK4mMK6eZNpm/byZeqIPjKYjN/AFfpAJ8h26xZDyNdN8F/SCtwz562Xbm39jvFMiUHgjWDmA0TgWhoSg0HUC70pIOqzW32QX/RuMExmzeQ63Xp4k6r26Hx124zUa+nChavCHYVVpnu/8S6hVHDwIz1drs7rXjcIdowqvu71v/y33zUDbJY+zYty51QyFNlAEOWDRhib4EpZkYOARjYNX5QFI4HIzZLPugG8AX5NxS7DcsZUDekTphM9Oin2JgRdtWDSjARkd4l3QOCP8mN6AyOduguDswnRLuhkcKXOWQHPCCX8jayjA8NIlkOUtBXvSAeaSrEbboBGvK19Q8cTJsegay/8gDzkRMkFHBwFP1n5gSgf++kZrbtohgGjIeBDw9UfV0cw871xUDfF7oSdnl5+dn36U1Ooz25eIyuP4e1Pdx/SnPWn5nbtYw7UezpYD0PpATv7ZjBkuyl2LHP2dg9FsaMY2LvOYTf/93/6uZT8hnXLNNfL9inwPW0VSMPpC3L24CEnr4w3/0bkfhQ7ZcOSC8GF4qLxRHFj2BdG6dRDb0I3xc6w0N/88P30wfb9+sIQPXRWFzmT1MPLzXzAI8o5lOJFTwXLmcbPIq+qXPbDHBv8g1BhWoL8EC4M0Xk+TgCGDVmQx+JKLGhLQu9vW3jWK9Q8CJO34xl4QOMwlggfeQ8m0AaDoA/7calD2hFlnjTJP9wivrD8GFG4brwHjct8o/7Bk/KBO++jXMQH6ibcGbSrxOjMiEi38mXqKA9w5TsKXjdGX8Mf4J3wNR6grWBokY5Fa8GgiTe83wt/BkS9cAXAc6D6ID8NL2c6007orVPuuk2OE/9Q9ls3fDgVgT8Qve813iVQlyHH6I0im6S48LN3/IEb2974dOl//4Ova9EWXwGjx86xoyxgHQiifNAHXgzeZ3geoN1BExxtnXZf8lk34C34NRW78rM6YdsW7zvRoyx3Nwi6Urc40izxDgj8yYMrw+m1DGiHaBfTpj6Uphi/S4aYP3V+1WQgNCAd0nWIkrbiHel4+2YkIRscFoa8wQd+I91e+IFRU3rpU+DlycZP4+ED5yfwuW6yjSlZzo0flmIPhtj8xMr0r37/VfXcGb6gx8QcO4py594jGpLfsn1f4lvQJ07Vi2l6AZCoMjdkOyl2rLbVyxemr1mP/V/+7qtp04YVBKkI3IRgJPD7cPve9M6Wz9Mb73yqd0wpIAw4s36P4XvGLLwHTbGPNHRT7Myj/ce/f1vnaWvO3CzeUOwD4S3a53IOp3hRe7qSqCUWyXFtz8djoBwrxva3wlnxIwGDkcJzqNAt3/HWUH26w4ERkrsdFh72CoMp9l4gYyk8vT0Vadot6Etw650DZyugLCnj8DEYHqjeAzK+lAN8vU0WfNKDsrrfAD5Od8cbpaU/u+cdf+y7ZkqG78z//nefk8LjGF167CykPGG9wtEAKAl+TcUeeA9E77LcowXjZSS4MqbHjsyL9ij8dAdESe8t3lWqlhG5Qc/wFBXhD7xye5QfOPPH1RGs0qklTQMIiOXD9psPtu4x5b1XQ4JYUfTkGZpHUX73a19K3/nq0/rmOfMrIw0McbA9aOWjC9PDDz+UCxfotwNKnd4659D/7JfbNbeOVcWnW194ep32C0IY5mEJOwZjMAZj8KACc7DsL2erE4sZWUDLXPCho2e1cHQMxqATDKDYfUjhvClJtuHQK+c8apQmFho9aT6fuXrFwrR82TzNJU6ePPIfHSCvGGrjfjBgjpXe+NZP96etn+xPnA2PIcLJQyh4evScbY4bbHhkDMZgDMZgJIChW+ZlWZzIFja2hLF3mTlzFrixQEyn0plcZX2Tbz1cou1cbO1i6+J1k1ksXmSBKAuxGKIdgzHoBF0VewBD6/u+YCvRF1owR0+YBQoBDMthOeLuhaJkzoPtTGy9YCHGYPM/rAF476PdOnue4XiAVa+sgOawmo9M2bPoD1wHSmcMxmAMxmCkgHlYFluxX/x3f+3Z9EffezF9+ysb07ObVmmPMtNlOPay85EYzhFg6P33LCz7mFH6bHdi+B3FjlxmRHUMxqATDKrYsQpZlbf/4PFqSP7wsdPa9sQCE1YUX7zEasQrPS84GQqg2FkNePDISW27Yj9qpyH0WLCgYXhT4Mz5c3+D1e/WCIi79ZMDabsZKOfOXxpT6mMwBmNw34DpP6Yxma7kUJNnNq7U4SMcEoOLg03CvfT0GlPoq9Iq69VzAtuBw6fTlh0HdFYDK621wMtk3hiMQSdoO6CmG9DDZYEVe+fmzH4kzXjYP2SA0ue41k93HTLlybzP0BbPVWCM7wsGfBFGgIbOr95IEyeN1xYFDibgkAKG1UtgNScL4fYeOJ7e5ktxpthjixCHLGCM0GOXUXIpn5vdisHQIEcFVzl5tab3IDQ76MQCuuYBNSdOcyrfIc3XsecSAyowHghvqqZZzn4gUtC1qO+A9nz8Pug9GIwUnkOFbvmy6KUVb6PysIzL4ZetTMFxK3zybZPesViHMpbxRx0a+MqVGI5yY9Qq7wko9of1aWaG1tkDzZGu9Ng5QY+T5jiFjCNkaa9s6+TApA+27ddx0e9+tEd7wpG5yLsHAUpac61gEHq3hB0FGDee9uj9WjARukV77IbdvcK7map4t/QUnT3/gXCIN0NS7Jcu+Uk3KAvmu1lhzhD5B9v2aF80B6W4gugVIGRGBcGnwrQizlA/aTKUxVzUrBnT0/w5M6rDRRAy4MZKfbbdsVjuvY/3WA//lLYboNhR+AzRc1Qgc/Ch1J1IynLILkBpKC27B/8COvE2IWrnqxj7c/wODmwTgXZspeAbABxswKEWnLK29bNDSac0XWbfZ7HP1JznUeMX4OWN+/5dgFLTc+FpUOcT/vkJ/zKBTkQ2KIOUgHeLsx85uy+h5Z0e5N0GLeGyh65+m98ZzqwcVkIOriBL4ezv6hA1ELaGoAvQKXSvEGlaGvonrbzaNgB/4Y4AzO8JYK4oyqiA8BRKQjIenMbyahhSRcEK3/sG2llg/2wZZkEwq7CRTa6ga96gE84oI6ONHAjEtlS2tXHiIycI0lt/EJS6Y+t4649r0LugdSdoqZe+gTSG7qo/KXb8SsiIZ+/mW/cgtgPXKr2OfxGmdk1oDRkX82kGzh4lne/aFYyFdfXey9V1u1sTPME4yGKuWZjLtMocBv3Fe5+lT3Yd1ElvDNH3BpYtUkIIkbYJD+XhzyHMUNxsnWCRybObV6evv/Rk+s1vPpvWrV6s9wz/s1fwU8v/H376oebWGT3gkAmMAkCnmxnwXA1f5XyGA46+40xy9ut4828vfdtYzk9AiIDmu6ECeQ2Of+y3pN44xzkOUmAUg1ORLumUNvY4+zGHgXfBMoK4c6rZW9FvOGDxy0TzfeVVpA9OAbHdzcFx9fdc3RdQiJxu4e3+cc0P8b4lfgTMUKZRgXlGuCq4+ZVhVQ5zTUXDtrE7+VOjgN4QTk8FKL3W3J3PDEqEB4KWRD0PYnrs+qU/R5rgbG3H8NY2PfMed5cDdsD7jj3aX45aFKu9DrpAEaxjfJW5JRD/HpDwhHO6OJ4V2AOP0JvOh3jDXGy/iqBl0kOCnEDgCbTk3wXAhe3DHCfMIU0ce0tb5OCV8qSx27fuqm3y0Z5zFy/b9arWBGGQs8ao0zTkaEIt/6A7fOl0DtcED+X0J2y/4Kn0QPgOQH1JsZtzFMGVOgUjxzu3sAz+3rH2PPmN/n43LFT+/DJSK1MFnG4G9oK8m9Dik+ms8zDsUViCc86HdPSecL0q9gCGlDhwgwVpmx9fodXqzGezUA0rs/ceu2VLjwWFbii54EO5884ZBBDi1ijnznpYX/969fkN6Q+/90p6bM0S9cgvXuSEn/Na2Pf3P/5AK+F7wsMKnzPrG0TPTGySs1/H2/6bCkfZKUSAv+sfyKt//CucdbUbQyWYpLtixz/yVOR83w94nkCdSw3CKUMwLuCH2vDgpe+m2LtBpKprfohoZXyy8PrkwRz5cF+CeUQ4QMHw9H9BabCWZUJB3jXF3kyTEEovgiqt1lCOV5HJYFBnmyHXrv0EXp5UTtBfyJWKHU0e++/vjAMDPInPOyJysT+i5ye9130rKLgicilCFHT2eq0hwsU13vJY3Wd8/MoL8MkujHoB+fDsaQW0PrVDK0YOGR2yaoN414QYmucALin2qZOF762bvmuHE8Yuc3yzyTgMqYAWWj0AAD6Vs2eRwAhRt0sera1mvMtwzfodCngq/dFCOGgEzRUk2DiP6C7jFTLQoYmqcjc/iuW4tIPSsVce1cMofT0pony5V/71G7uAX8Q1UEautGWwEifiBXIWREodN1TFTiQSxsKkF8g9w9sMd2NN+jB3L2DZDkGxz5z+UFq2ZG564em16fd/48W0fMl8KXROl9u+8wv10j/fwyH7/nWswfFwQvULQTRnVPAnxYy3/UtwZ4Jz8awIEcA7f98feMX2C8IH3LMTkvzb1RU7EPj5ld86R7vzQvUHKIl82wmEUwbRMT86nzilAfEH91wHSjBDG8bhQRL5FiD7OpeAxpM9Ov1yMvm14+NxVQ6F8WsF8L5wdnorltLjZaSpHweS9BTl5XnozcAQ8QMyDt6DtUd6Lubn+Bnf6iUv+Lc/a98YU/Iwp7ow53T3g2r0Sn6g5O8dNz3pXnnYrV8tHXuAyxyd+urgadXXGurw5iTgaiA30vZUPE0vZz5NrVCQhHYXeTp4+jXU+duN/8uzolkBVdACGslVQNzoxXP6GSNrCGXSAFdGIhlF85Pgarwjz7gGnUYFDAXRQbTmt6ZPV8WuUA7UV/9g6Vj0SHeoAN9Hz1eYZHxBGbxUExn/TsAbL1ddphIXj1rE94CVj+IUryP/mLLzg3+s3eVn4nOt2yPRA2ecP5Ouwg1VsY8cgIm5QJqBDQlt3vEDmgTxcJwBzRw7X7z6yvOPawEf55gfOHRCR9sePnp6iCMGVJ0y6w9yVBFR+ONFmuDbqthr8HD+o9Jx0x9IcfSPv+gcuPPgnGH/MEmJV74v/Yg7zPwzERwHuyj1Ig/hlCF8wS167Gp4FiQYm7hcimitQBC76HXOkOduQDrdkgKI6/lBvyKs0uVHGOq9B/BwVUgiE1J4wyt42Q9B+cth/cIvAeSlH8+D+1Zwr/KFEmwDZW8KBOHhw5LkOU6KnbSD/nqfBYnyFb5EtjC6OgQ+1ft89SBwCgLJ86AONT+oZ963l5NokY+n4X45uNKQ4LN7vSav6n1Oz8AVuykaRhlQkJGY52AucDCIVwUo1SqK33gssomIDo5vhgKHwYA8oHFNn6BzZzlS5uuvWt83gfhNXEcEMr5yPNqf06tVsd8bsBxJPuc9VGhR7ODKn3AmWfhVNxn8pswn2omXWpeuoBCiEw8REF/lovyDXqon+w/+1nOl7O2a8Q5wnMHErwGjqNiBTBgVhgJTEPz1Y5CRNjdhwjidp8sn9jjAgcNwGKZiK9uFS3407NBGDCBq5NMH5Khiapw/mbMy2X83xvbyOeRq7QuIeZduT5/geNf4C5OMcye8vVzmiJMxH07+SojfgiBlvi3+1bVQ7MKjxtfxGbhGhX4RoMiuDQZKJ4DiEy5q38ES1b/TKOhLxp63R9KwsHrt+s8QdwSsff3ZIcrO2ypEUZDSj3vPsx2IYpSsBIXSNQHiVWo/6EzlVQtAXPR8CVb1d/wiqOqjUqTuVyotCSZL9y4Ci5QyjlyUlP2YOqvTMpe9I6jS0NoZS8+BcPFIXn6tcXHlrlSUHOHrEYfIQxC3hV/kEtAS3sCTLMJXeA0AypcbBLrR2eIEjfA3DJVPMy8g4g0GHiwrjJGEnF7gyzM+wtXcfVHsbbUSaLX7Q4kSHfhHfGgQNJZzH/1m4sk1U3TDND8AVdj6IrAw0MjbEbSytqZ2Zq5ItTY87QFEGxkKX9KYUPA96RR4cxXYdZQVu4OYDudUaCkTyNLI1TvIiBPeb4eDeithhww5qleaP2TWFs6Objt+OagADPoFYg5LsSNUM+413o5z62rtAC+Xhx9+/pRevwVBSnpV/naRL7jZn1uyOS4+wpc3dfx4W6fscXlNsryJ525QxnUMIlUH5ZcfWsLmNIO3ohzqFXvm9m89Y2vE5dBwSQegpAX3VTp29XTMQQd71yxGS9zitwTND+Ik4Dw90tWiSP7ljxByB5AuC1BrxZ6hgSuPUT5/dmpQ7lDId0lT9Ui+xNSPwOsmnD/7f50PfOACztPlHW+5VxEoD/45nQofIuvHcQPIOVIWFjmQ3uvf8I8ABkozX0uoSqAbcq+hNTxXe6uCkw/lAW+EN1fzVx688/cepwb3b/UbCJTmSILSc1zd6anCqzf8ese/HTz/Nsh4NMGwacmu4kO7b+Lbirffe4otCTj/Zi/FIQ1/kJ8g04d6lXI2xzNGrdoaQcyF4RlTRyTkePBMMnXb0QdiiG8oKITyVkiS83b9ICh2pxqNNFdJLjAA0lHAcugvRxoGGGHyXV+Qsw/G1r3SzPgKb3m3gJdPt8MDssi3/YArdpjM8SY1R9ssx4x4iabXgYPKO8z8q9Shn12UVkkw0bX28kurYuc5+KPEDyCEp+xgIZRWlFfP+V19U0MZU+/lUaeIV9Ou4bFEA3Xm/GHvstDmAT8OHbljruKd7B8Q5anKxnv5eFg+YjF+Yv6iVAEqVQsO2Y9r4R+GslK1f73iKjyQW5Y+eeSP1wS9+LZ5GCTjywQDslcIKV2zoUheEnBGi0qx53KV5VcSlrbKLh+D8t4gwiqeXeNdpIMjr6BfDMk7ZD/12AHC5zQtiNIr4vlCx4jj8RRKkT3/5r3ueMhZVnFz3tYAFYZn/kucuUZ4f+3X/COo0ukCwqME0s23IwKWHrkE3u7leAOt9O4EvBvo/WDg+bdBt0JaVqJjBpTjoIq9wN+LWD+XH5FR2vBIIx0Ft3hBI3eu2OF9H7FylImiuGovXEmHe/f3uN4uwfuO3eM8k/oCKM0HQrEDVmBhzm2+AjWh2hU7YmnUIGcdFaZ74ZTxFd7yfiBBOGdlwy14898yp9eCf/kwEnQfJA3hZ1ehVefdXbH7cwB1Uebgb/h1f+6qdO2Sq7CG/KqESJFfXxXeCkq3TdtDX3dlz5jPzKLc9U7B3L8JyoPyxVPOdPzEiWnCpFKxe1z9FskEjlWdBvCMV07bal1hAodxJrgQfq7cXbED8AfKGlBIefNT5G8QgqkeAseT+ssKt1Ls/HvZm+Vv4hw4lODU041jkdP3q+FN+QoXOShtw08Rq1+AcFxynKyg3EDxe+UEruRDTP2TJ/FbrwquNDEQcnwcAt7+zEfJ2a2eRQdiVGE9fgRz4C5wyaA8HTS6kNNrgmJYvCathwwWH2oKX+HMVUmDmW6gXQUdsiOFfsHLMbQyCK8M4m140CBoLec+ngGFyXRq4hpGb9SB4qq8no78zFUYZjq13DcUu4B0lIYedOVZoewfpQ7etFecoLhEeg+AYgcNLiDuaJVMF5YQUCt2L8KYYu8fhDPChYv9OK7gXNNbZL5nMEjdCTG7QsoCkVbFDpmd3qBMOL2xuOXQaSfgdRXeHshuIJx4U74lLso93nTNzxM2Ujuf8Icfe9jrbz7XEPyEq8tJ/fhICmVFWTLXhvK1YB6CG+L5g18BvBUfjGtApOFfpUm9o7z8tSVh6Uux+/Cf0jfwdHJa5mWP+cfTy//ywzt67qKYXUKxq7cR5RO+9qdHpSLwVEto98m5GThOFe3y1XmjdsrHIwiq8hiOlfLGEFFWxFGwKk4VG9wLPow8FULefvX4pAON/YqnRnAsTPjXKTkIjxyWq7/nFz/+SRiXwV41StbyugSl50j2DxZf1LSrnO5Jm2z5sd+GYidMDbzrgmBPAO3ybR8QvO1ogLH9SfbhZSUr0g5aUeIK8FOBPXzLq3wFCm/de06moC0U9S/wZPwWWuKQF9nwIB/FU5b+voog3Ll46uE/buKKfxFBhgxlAfqFiqVBVhcXOQEittkmLYQ2nyreKAIoVRXBn6EUDVLoitgPKGQ6V4wCTQ1dp3cwtkrYldK5lH0CqQ5Qh8LJocwHxe74euxKWBoI7yLNAVLPKeZ07RJpDgR12o5RjZf7d02BtM1VeNtVijoLvsAf4B0OqxzFrj97ppxypnRQwmXDJwxKRnFzGvLPz3ZDJhW2QIQLflXPOgSb/SimvQcH4UJa4hkHdZaUrMd3IIx+lR8ghWnp6t68lA73BOEmx6mvHj/H1m9n8HQCKB2hI3+V3Zzw48/wqMqVwwHghH8YIOJ/1Qsv7JIDRppGDt0zjKoHgERyfvhwBRROiXgejovfQwdTLaIN9ao0qnBcMx56sBc5Xz3oH09chpx3CxSvayg922L0DJ5KLrOcPwsze0k5dBNgr1ox5F3xfojgZOlQ5h5Bw+ihOC0xpzt8mnHKF8pV5VKgK/71O79ROA8bNIloAEFwIa/G28MEouYw/t6nGrW+BcPdrrTzjITCeCaWvj2EThTu/CkR++HdpJXfz6+HBo6P//YHwsKcMNW/npqK3ZR6IMuPvynijRKAAcSkAktL3VHlR7+OITcPGhiyahgwSUZcaOoaCDu9LYQ/ZqjKyU+f4DE9XdKv8zQAp3xt5hH4lu/DlRDvS4OwCZEnYctgnaI4pvkdeYVHvqny05ODpwNuvLI38LYH1BuF0L+HFJCGOXgKhRr3Egj2mnJWipKwikLaxCNlv+quuDp5inwAhXfHe5wMh6wEFZwwlkATHyk2rhbOae/41fnbvUmtEl8g3hOWtPNPDfGoAPrpAhawjGpBhUFOs8Iz4xeO/D24P+eHfG3kR3LKxuPEL1cvf0TlN7/VJWI41KmSp36l1Kt6xagglP1X9Ne1pJv/Wol0x6/iZOBNmWcAfuWbOnZ96Qc8f0vbyiCHJ4WnPNzr6hmoDUaYDP7Gf/sBpyNli59ewfHQVBD4AqRFgkpRD/IGPETnDFwpE94uuXy1EWwut5fI564RgnxkyFkdj7sdFJKW07sIL6Oe+Lmdub/9448cIaJHVjzdciVtg3GTV/4gvx4iKB/76RsCM9LI7KrkhD03DmFFKbj9GHE8V483WiB07E8ViCtwqQjNLyjr/sECUVH/jr/7Oe5+Bzity7LpzsKrjJmJ+gGlTHS7kH5QTOCZ6OK+9TuntzF8fg5a13j7G0/CfjOOEd6hfPL3dRr2rjVwC5AbwZxkJWVyNPCzi1LNuAkUwZzw5ypPcxEip6Ufgnk4t+Dds07TcfDUCefhucnR/Vk3CuFhIyuDnIqEkFPTw5dKRQIIsKsLLMeFq/3IlXyga8bBU4t8I+Ps6xfeDACKmWN0g/Kthw8I+gGBY+CJL7fxDAhr//f7AtqfLa79lL0t/XKTyz8QEAwJB37ViAbRwTFoj78Uu6dOqs10/Y1D+a4ZLmKW/opblH+oQEwoXtPZc/EUobVfga6KfQTyV75lwgNCxoEI5qTcoTl++erTvfIRKHz9aOAP+lXGFRb4SCFHO5Gc4tnyEa94cMW4i1K3+lU6yjsr/AxKD5opnl2VnqeFI0QEJ27+V1rAuMmr+lTsuSD9Ak3eUeEup0UpVJgibRDVPz+xirURrw8os+gHyBvUwjoLqIkMjg4WIt+VYCGKiuwPhlkIiw5uLfgbToG715G/ixC6WvhcLf2D8iE9IaHEKpp5JuFd/QI0FmgeoDekVeGdqU298Ip7kDXwWJRXNwJ/5TFVHzle/Oh1S/jIBeHMe4UQuADTnTl74L/KzK6kbQ78QymI9vjHvUGdovupUfuD+5kDVcRCGa8FPIJuHQzTImHwRqEghMTD9ie8KF9WKjiiEFZCinDV1Z3Kn2kiqLIkRY+rl4SXfwBvqlgVeJjWkBa1DVQWfuwdKbekZhGiXapODXyYPcLjQRyHRm75WkPTJ8pd5Weg+5x+J+hUev0SR879fbSkUOwZf2IrjfzsUKZZ+7fkZN56hh7yMLB70ilTGioQG1SgRdkeA6r3+Rko74eTN1Dnz1N7/u05OD94cPtFOaJwCad/v/JDGOebrGHk71eFCyCdgo7ceR72lxVxDKsrLP9cCWvxUOT+ZEA6+GU+Db6ItGmnEyzNWNAqw7KOLVDYHGfC+Nkbe/q628iDIw5ujjxIhivAsfWCCprxhgONvIYAnrfFzxXlSTlSvKvQBXIYBL97K4T++gfSzHkPB2A+c4GJMNOD/UTydtvyPj+F30hBW3rg1UJIh2gcQNkAqqDl+3wV8KBX/PibKCsXvc7vlYe5qoFmhx/R7Um3egA8uQ5gZSjiIwSxuLlnH6pb+PYOP4RNTpt/t/K59+fw13MG4dQFmiiV/ObCw5MDqlQyLQU5r8Dd86U8emuQQ3LJfnUOrfeCEte2lwUU4YoYLeD1nh/AyX5xHpWfcIT1d3qPR5V+HU60lesMET+g+cxT63MnqNMntKnvCjdeOZ39GmGD9uIbf+mYojDyO8LqEqAEa2zIw3OsoRdsBwLHG0VmD2XegN7lmxKyf+XbjDcEiPzbyp4hyhxAGDkytRvRbyKLT7knjXC14RoR/b5+DpAhz7XIR7eWuS7ZVXhUSUQbKvLUy+xycC+kpWX2nXQH/uYIpVe68luDP6f0/wEfbeeHBB2YdwAAAABJRU5ErkJggg==;" vertex="1" parent="1">
          <mxGeometry x="-393.40000000000003" y="335" width="200.8" height="30" as="geometry" />
        </mxCell>
        <mxCell id="OAXY3ePAZleAso7HOR-Z-4" value="REST APIs" style="text;html=1;strokeColor=none;fillColor=none;align=center;verticalAlign=middle;whiteSpace=wrap;rounded=0;" vertex="1" parent="1">
          <mxGeometry x="-81.47000000000003" y="282.5" width="80" height="30" as="geometry" />
        </mxCell>
        <mxCell id="OAXY3ePAZleAso7HOR-Z-11" value="" style="shape=image;verticalLabelPosition=bottom;labelBackgroundColor=default;verticalAlign=top;aspect=fixed;imageAspect=0;image=data:image/png,iVBORw0KGgoAAAANSUhEUgAAAHAAAABrCAYAAACv8QYTAAAAAXNSR0IArs4c6QAAAARnQU1BAACxjwv8YQUAAAAJcEhZcwAADsMAAA7DAcdvqGQAACBOSURBVHhe7ZwHfFVVtsZXAoGQ0DskIST0Jr1IFxUVG3bH9izj6FgeOpZxdEbfOL7RGWccR0fFsWEFC9gRUFHpvfcSegm9BkJC8r7/PufgNSQkaMy9eZPv97u/5N577jn77G+vtb611r43KlewMpRaRPt/y1BKUUZgKUcZgaUcZQSWcpQRWMpRRmApRxmBpRwlmwdyqdws729hiI7R6MK8vo5m+v+cCFEaq8YZVd5/XrIoWQLTp5pNvMVs10L/hRPgnNFmSef4T8KE12uaZe72nxSAijqmze1mXR71XyhZlOwSP7Tte/KwrpgqZnEN9Gh4/KNcRe+4cKJS/fzHFltH4y/nHZO5y2znPO//MKBkLXDtx2bjBnvkVaxh1uJ6s3a/0USJxCi5otKAo4fNNo83m3Sb2cHNZjkKCcnnm531iX9AySI8QSY+waxyktny180WPm2WsUlxMcd/M4JxjDy5zOwMs7rd/DfCh/AQ2KCvWaeHRWIjsxXDzBY/q9W8MbJJRNBs/tqzvKwDZs2u0T38wX8zfAgPgdGKb0mDzDo+KBKTZYkiccnzInFDZJKIm9z0pU+eLK/5dWad/+jF8DAjPAQCREqj88za329WJSDxBZG4PrJIzDlitnGM5zazDvrkPRIR5IHwEQggMfkCs1Pu9UjEnS59MXJIhLz1n/sxT26zxQ0+eVX9A8KP8BIIHIkXisR7fHf6WmSQSMxbJ9U8VSo5a79Zy18q5kWO5QUIP4EgPxKXDA1fTIS8tR+aTX/A7Mg+s9a/VryWYImp7B8QOShZAqs2Ud53l1niGf4LITiORLnTjeM8uV7S2L3YbM6fRN5eszaQJ7GVH3kUIbgf8sAwIfL2xASua+1HXnxE6BS08ilzkUMe2uFN9tFD3ud5EL+olrAwysV6f3F/lL7i6ptVqqPlq9fyA5WVuf9rVusUETjErELkxLy8iMxNTRCwf42X8OeNOYdF1o7ZmuQFZgfWys0GBO4JIVAJN9Kfio8jz3+wECrW8ghENFVvaVa7s/5vLDIr+BfwsUvnr5Jy/PUjDJFJYL5QLNww1rPO7SJwz3K9pqEzybgyLKpCNbPy8R4Z0bI+bg0iIZZYRt0yY6uIl0BCmPA5rCzhTLPGF+kcdb1LlSKUHgLXfya39mfPvWE19Xqa1WjlkYBVQV6MyCtXSeSV96yPW8vNFoFyp8TSLJ/EQ+lm+9K0EGaZpU8R6XFmrX7lKU3OVYoQuQTiCkN7guNkIeRk7e9TXDzXrFpzs9ja3ns/BljggXVmWyebLfi7rhNlduZILYq2IlsJO50TxFRw/QhFZI0uR9aya74m9G+ytsc8VxdgzzLvfSwIIfJTyAPENtpCTvDIzWKRgeLFKqdIXU69Wy77Uy+mRigiwwJzj0q6LzJL+8Bs83eazJWeahzwtucq6XqPaKbXV3nkIT5qtTOr09WspiymskSIi18naknpNilCsyj2Kn7umOs9SBkQQpA4eJpZ3e5mq94xm/mQBNNOnTtR19C1Ui+T5StdYFwRhPATSDxaI+JWv6vJXOLFsESJCtxkw9M8wkBAYNOrvK7AEblArLBidU9dUt7iWGIhihP3y8LAwnCJWC5KFRJJOQ7rOaRC2C4tHrohAYEuRupaWyZqXCO8caFU6/dWWnGnYnBHb0wRgPASiFSnlbROsY3JJudrcoXiUBs/TwuR9gGBl8licHXbZ0rQyIJIJ0g5IIi871jc9K2R8/LA/ZbX4oiXRSF+anWQBXcxq9rUbMItXp8vIND7oEc01rlFXoG+JSQztrYisek1/nXCizARqEtu02ShKpkchEObO2Rx/b24BAl5ERB4vZJ3rIzOAJaFRRGjIBXhgdLMJg8MEnnyP6lT1CXWynNUJ1ZbXg8U6xey9g2j8xAYAud6tUiWvGi27GUvP0W1UoQPtlaECeEhkFRgzqNmG7+U1Z2tiZCyrKl8jMktCD8gUEQcB90GVuYsjlvybwsrcQ9NdEGTXRiBDjrfoe1ehWj6b7UYtIgo++FSw4iS9wFYCWKFpDxJ5HV8xMvrTkRekSCXieU6C5OrxMp48BxX/JMtRedHKDX9hVkvuVPIXPaqPMlU//3woOQJJO6tHu6px5Y3y322PrnJ3T7Dt7BiAor0SCFbB0NB+pEki20rl793hUh8RS8W43hOEiVLIPEJ95mxRYquj6cyT1YIjL3YbPLt3nl+ChAki54xG3eJrEiC6GQQq3iKGsaNIqLIUcOEkiWQeuT+tV75q6bUXH5ipTAgTth6MVJSfniKFORNev6cpyLJH1kklM8cZBnUQTM2e5a7Wvkd8evjXmbvSYlOGeJPvuLmSUHutEINLw/NUjrDPYUJJSti9q/z2jQoz84PaxVf7b9RBAQi5gpN+Or3zFa84VmRa/jq4W6Dv/pDBoFl85p7Xy+4faf81es82JdKvtlKKcQsjWVT3jSiEJBeTJOI2THHrPtfvGJ4GFCyFoicj6vn5WxURH5Mt72SPs92vitlbZfJffUdatZOlpRyoSeGaBrTLsJCSPRpGxFvE05XzJW1dnvc7NxxZpcr9vXXIqgna4z+EQKK1GKvxoBQwqOEC1hgiSHnaG5u2vu5ucOq5+aOuSA3d89y/40iYHjT3NwXNdzM3f4LhUHX4npFwehB3rnTp/kvFILsjNzclW/k5r4Uo/s4Pzc364D/RsmjZC0Q10UlI/Ess/TJcoOve9b4s8B3lcUNcs2d870iBN+TaDxYVijPEiaULIGANhCxD1e4Ui5sqVwgtUcS8KKA2FPUYwuFYiQdfoROUUDFZ8css6n3KQRoHMTQJlf6b4YHJU8gOV/CAK+vR/xY+KzZvCeUHy70ymGFYeaDEkETPOWH4jzpHEzHO2WqVIZuBL3APUv9904AjqcfOUG5627FXortCDHuIYwIUy1UQH5Tllr8vCflqfA3v1754alm8UnHV2YCFUrHAQtMOMOsgXJJXHKwlYLPlPOrLs59okJ1LG7PdSX8rjzkb1NaQVcjQ9aPIAltJ4WCytH+NLNVwz2Xz3WSRV7Hh7yGb5gRPgIBOR0d8eWveqkFLoovvrAbjdpoNZEWxJeAwA7K49gKQUqC+8vRZ+IbaTJFOqqTOml5yme0k6RyIQ6CMnd6VkQXnmI3x8UrhtXu4m1f5NwBgYwDV82x1GtpdeHm2T+TcqlSD1lhhOzODi+BAZisdZ94BeUd8zTBmnAmssffPAsjfwstZmNJNH5xu/tWiBy/z0d3gv0vJPI5sjxyP776DJnUR+lAsEUQsjlvXVk7raVxIiW0mL11klci2yRiKT7QQOb15v/lJe8RhMgg0EHD2CuCsAYUKlbQ5U8+gUJB3QjIpNKCq6PA7EhkmwTtJLlRty9UcYpWEsVotwlKOWLod9rzdiNWvKbY+A8vZ63ZQR7hPLl25Yth+h78iRBBBIaArX+HRYbblymrAe9KvZI4Xye3SS2yuICbHSOC+AbShRDYTR5hg1z6RLnM9rI+WejPkY4UEyJzZFRS2IcSkAewHMTJ+k+9TnlxADWKuzykBUMjGQEEEFEUq7H+CCYPRKYF5odlL3k1S9o5iBwshdjEXpWTERS4ZsQMrSDiLZZHLE293CvRhbMs9iNQegjE6lZKxlPIZms9yrO63CpSHouNVXxDoGC1x3Zmyz2SHqA6+TxVH6yNIjjxlq2ElaRc+bYwddJqWhBssShFKD0EAqxn23RvQxOpxG4l4Hw/ApLID90+FwkWpzwhULfGey4HlEqFRJ5DdvUWXoxDVbJ1kcpQhLvL/BCZBBKbSO4RMfntf4EQdqIdkNjAosjRAgWKKg2UKDGTPBJS3cYmqU+I4uF+KUPu1ynSfIjjR4lIMfLdfxM5iDwCIW/lW2ZrRippvkSx6QrPNRYIDR/LJA+ENPLAHNII5YIujcCdkkroL0RCaGFbONiZPesRj0B+zACSIxQl6zNwfV8qaV78nP9CHgTkLfqnt1XBbUgqLCYpWWczMCqSPZ9VUz3pj4pFRVZV/sjPmfCrS4idwsgD5IyZSldoGs94wCu/5Qe+IcX9zHvcf6HkUbIE8stGWBZd7LwIyFso8tg17b7JO1AWI3JKGpDe/Umv1EYNlO9I5Eci5TnuB3cbJkRG1MYFrnzbszwmhQ47ZSvEhtsfUcKg9Nagn1lveQoULrVQvuxSXPlnMSL8BELeKpG38ClZHuRpouhKUPYK5++nQWK9Pmb9X/NET9r7ssTIIzG8BEIee0Tn/83L0dpieTd45IXD8vKC+EttdMA73pjS5C4diXv8A8KP8BEIeWlyTTRzA/JIpvlSSySQF4Ccki/BnK6FFhdKYmRYYngIhDy+UjbnMZG324t5bO9zX9qMIPICoFxrd5IlBiSOEokaM62mMCM8BPLDcdQ16ePx5ZDWt/m5VgSSFwBLZNfAMXcqEtkXGmaEh0CqJplyQW1v90SLq3ZEMHkBHImyxNMhUa6eUl6YUbKVGLruYwfrnyJcsrT8Zjb4j/nFXlo19XuaawkV9oiE7jfF8fzGFvqgneW+xx8elK5uRBmOQ/jSiDIUC8oILOUoI7CUo4zAUo4yAks5yggs5SgjsJSjjMBSjjICSznKCCzlKCOwlOM/nsDDmZl2MCPDjh49+Z88oYx85EiWPltc39k/Hjk5OXbwYIYdPnzYf+WHOFbMPnw407akb7Pde/ZZg3p1rEF99qWUDmRnH7V1Gzba3n379SzKKlaIsbp1alud2v6PxRaAQ4cO27ujPrO0devtxmsut8aNEv13CgcTu3rNOhsx8lNr0SzVLrngHCtXrgh7Tk8COTm5uq9N9tKw4dYktZHddO0V/jvf45gFbti02d4YPsr++vQLNvrLb2z//gP+O5GPQ4cP2ciPx9hfnh7qxv/4U8/bk8+8aOMnTHGTUBAyZT0Tp860Dz8da9t3nPjnTjjPkuWr7K13P7S16zc66+Mzn40Zb7PmLnRfwyhuuGvs3GkffDzaJkye4b/6QxwjcP2GzfbtxKk2Z/5imzFrvm3aku6/E/nAAlelrbWVq9ZYclKipSQn2ZTps+39D0dbmqykOIDFTRbZb46AwE0WHR3tLO+xP9xjV18+WNYXnmjkuqaH5D7Xb9ys/6KsUWJDZ7Yb9Lxl8ya2Zt1GR2y1qlVs/8GDtnxlmtWtXct6dutk02fPt80i+rS+PezM0/pwKlnCFzZv4RLnktu0am4D+p5qNapXt+8mT7dFS77/Vb+aNWtYn1O7HpvsiVNnOCJO7dbZep/axV1v7NcTbMmyldahXWubu2Cx7di5y87o39v69+nhJjAv4uMqWZ+eXa1RUoIW4FZLW7vOVq5ea6mpybZ0+Uob9/VE23/ggM7Xxnr16KxJP75pzP1xXVxytapVrVvn9nb2Gf1s2qy5Nuar72zj5i024oNPbO26Dda3Vzdnfc2bplj7tq1k0Udsrgzgy28myT0fsk4d2lq/Xj2cK580bZbNmbfQmjVJ1Zyut02bt1rP7p1tQL+eVik2Vpb8tc2cs8D27t2vhZFiZw7oo7lp5I+qYLg72KmJWbl6jTVsUNfFvolTZjpCCc7p27bbuPET5C52W0LDeu64rKxsmzZzjsXExNiCRcts0dLl1r93DytfvrwN183FaSIRBTPnLrB9iktXaYWuloVMmzlPQf+I7d67zxrqOqmNk5ylD33lLduxa7fOm+Umiv28p/frZbM1OZ+PHa/PzbVorfAlS1fa0hWrHUn5ERilD1asWNGqVI53Y4mKinafwwoJD8vkAuPi4twkE696dDv+x8unz5qniZxvsToP5EzQwuvWpb0b/0ZNOnOyfuMmqy1SmssC31MMZUERAxdqLp4ZOsyFI1zq1Blz3EK++PyzbfHSFTbqkzFWo0Z1EVbRVmge5y9aah3bt7FK9WPt/Y8+d3PGuF5/Z6Slb99pf7j/v/1RFQw3C9t27HQrr17d2tbxlDZWtUplWyM/v2PnbjfgDAX7alUr2zVXDHYWgnJr3jTV7rnzZqtWrbKtkOvamr7dTeAjv7vLHnlgiN112w2WmXlEhMyzSpUq2mUXn2d/krsZfN5ZjqiEhvWdJc/Q+0zMZYPPdUKCm/hmwlQ3Jlb0/gMHrUfXDvbAXbdalSrxsqRVei//eMU4J06ZoTj1kc1fuNRq1axujZMTbdmKNJs2Y65179rRbrrucoutFOsW3R4tpLw447Te9vv77rSH7r3D+vbs5hbynHmL3IJqkpKse6lkl190nhMUzM0BKUQ8GOOcreNY4AMH9LXbb77WLeTAGFi4HHtKm5Z29203WWKDBnL76zRvO5x7vn/IrZq3u+zh3w6xKC3O7yZNd/dfGKL5MFa2YdMWq12rphtkPSm4NWtl5nJDASprVaPSEjXxWF69urWsWWpjq1GtmhtAxqFMR2CTlEbO7c5dsERWEmUHdGM5IiWhQT3n4hYsXuasfNDA09xkpG/b4RZMS63m9nKVtbRCceFMSICG9evJrTTRcVXcpB0qQFIjvHBFoz4d4855uRZNUkJD2ynr3r1nr4hcbV9/O8W2bdvp7nnfvuOFGp6BDXLTZ89zYwccX7dOLYuPj7NymlzG3yipoXsvAOMlnGBduNRT5FLrS81v3pqu63+/k5u5bab3a9So5kQKxsDfpnLzm+Sep8sDlS9fzrn6glKHUETv002zEliNqLEHHnlCk7xUBG5wlpEXuK7QDYDR0eX857mOyFuGPGh/eeoFZ1kHDx7Sq3pdA9y3f799o1g6T7GsX6/u1q93d3f8kawjVkGyv3xMebm/Cs71Zeqmjioe5sUxt4l/ygfVq1ezC88dqMXQxJ0HwsvLJZGrcS3yKcgnxrSTJVQWIXkxUm7ungcfs48/Hyc3t9ZN7lF9tjBkZ2fb4SOZuo8Yl8ZwTxViKrhrZ2dn+Ud5YKGzuB38exnywKP2xyf+aZMklIKFcyIFHSCa1bl0+Wq5mxpyVR2dGGnZopnt2rNHynSTHVQwLioQL4gNXN59Q26xunLJgMnjGsPf/8TFjUsHD7I4WR8uJj4+Xq7loLsOi4kJrirxUKFijPvsyYBJ69CulZ1/zhnOGohfxNP4+ErMmnOhv7//TinHe+UGz3UuNhSQ9cW4b5QPb3dudNDA/t8vGiGakwmIrbwgZrJgEC9YI4uF+8JzVZLLPhEWK7bPlCBkUT360G9k4fX8dwpHNHFuiRRasyaN7ZYbrra777jJzpV7YzCr16x3Lq6o4AYROORJBHAWB0iXC8KtoSKxLgI2ySniCdexV65s1EdfuNfWSN11PKW11ZE7P1kwvSwKSGzWtLFbUMSlpIQGcv8JTk2/8/7HynO/lfKdY9lyx1ghVjJWChNXh7dAePDZGRIzkOrOLSJxjRkZh+y9Dz+1kR+Ndq8HqCmX2Kp5qlziEZcbDn31bSdcWknJ48ZPBKwRK9+oMEa+R/wPXidEVZBVE0e/krrNi2g+hKQl/qWmJDnLSEps4AQNudUW+fCiom3rFrK+TjZLk/bWex9aUkPvJzsI4Nukqg7q5lGWr735vquAECuJhWcp6COhUYCnKj3htRpyhz8OURp/Qzvr9H5OUHz17WQJh1ZOeBw4kGEvvPymPfXsS25yiWe4c9KOCRI/u3bvsQsGneni8BP/eMFiK/i/GyOgDgee3teaaqHPmrPQvvjqW/8dD7jsnt27OMtevnK1Fss0ayVPxvmIhScCXql3j66uUPDsi8MspVGSex1Xi5dgPojX32mMeREl95bLqmP1Bu6CNZfr+31OEroK8dnuuV7H4nCPvMtkAEQGVs2KDEpLwTm8s3jgerzOg3PsksjgtarK/2I0GcB9Ro/Q40KvFQovXnx/LJ/z7suLNzzPkHvbs2efc2nkeCTfvI7XIN0IzotazME6K1d2A+U+OSfg/lCHsRVj9ZquG3INwDiI91h19eoKBbIecNy9+M+Da3JvqOta/rz9cE5z5C2y3bmCcQQo29hbynH8Ug4DgtX5/xE/930VaIHObCWNA/eKu/GqGz804Z8KVCdFYflxq1OnpovBJQFuG9eZJYkfHRWt3La8c13FdX+cn9QMRVpTMTW/lKU4UCCBCBiEBYPgxurXreNqoyi6WCWrJ7pRTklrB2VVU2LkRMei9v4uUYHyu/+uW6xrp/b+Oz8fiDdblchTnVm4ZLlVUdLfvm1L696lgyba/4HZnwgWJmU1xNoDd//abzcVv8Mr8IyU1l59631Xp3xj+EglmU/brXc/5Aq9lI5OBMQCpPzx8aedFUcatktkPffSm67tNP67yTZ63Hh7Xs8pBxYXWPRUrShyU8yOChL3Yka5/xH8/38AJDh1zFbNm9mtN15tycmJtmDRUlu0ZIVL+En8cX1Ua7amb3NVF0psVFRWp62z5/79hlKHHdarRxenbnlQVqI8R75FMkzivV25YFD0bZra2Kk4ci0q9JSUUIR8hsScclhOzlFX0gJYOSkQuSrKkFKdzN25LQrOFMhR0xWUDoQqV8pVH302zuWaD957h11/1aXWtXN7S1Y6wZiOZGW50iKFdsZFhQhCuP7mrduc4mTcVExoCm9XioSX4d65N8p0HE83oWunU9x9UWLDI21Xjse94NkISVyPAgbtPFKt3Nwcp5KL6soLJbBB/To26KwBrpg7b4GXGHfu0FaJcZK9IOscJisd9elYozHKIBksjVXXUlLSnrZ2vZtA3nvyny/aiA8+tS+USNOuoaaI/4ZAJovCAdV9uhiNk5NcLjp5+mz7lxYDr5OAUx0i38IdvTXiQ3teYxj79XealK2u7UTOSUvrmaGv2fgJUy1di6hBvbpuwQWg+M41WQhdNMEUMRKVszKZgPbWX3UPkExliWQ6Kamhe/7Uv15yE04xguoSi+ul10e4Lgh1TgoFNH0phFBP5fiGDerpGiluTilW/Pv14a7DUltjqlWrhr078jPlf6/bl99MdIWM1q2aWRVSmCKgyE6Z3Iw4GKvVyNYLOgrEuv59TrWrLr/QtVtwubyG6yBfwoo6d2inhL6+O0ed2rVcYtu6ZTP7dtI0l7gTjwCuNjUl2XU5Fi9baWNE1q7de13lpnWLpvaLSy9QPK3qKjpcC8sc+to7tlcrmSSdhYPwolsx7J0PXBmvS8d2NnHyDFdSCwUVFZJseo2vaPLpE+ItGAvkELuwBq65bv0mV1XBkmmDLVOS/tFnY53wSZFXgjRaQ5wL66LLgRchD6YwQLECj4ClsuBGj/vGzWO71i2tguZyzvxF9tIbw13xhLn5QIuPgntRcVJRNUYrlGQ+I+Owcwf3D7nFrrjkPBvQt6er5NBAzRIR1199qTse9XXLjVe5GiQT/FsF8/PPHuAsJVuTvVWuDyUIKDddNvgcu+Gay1xTmYkiIaYKcfP1v3DF7w6ntJErLOfceEYGyXaOE1RuT8qF5zjXQ4WFc7Zq3tRdk9hDE5YFFwDvwbj79z3V9Rf//Pfn7PV3RrmQwALYLLecmtLomGhbsmzFsbhPmOjXu4c9/cTDdtN1V7ieZvVqVZwbp9y1ecs216nAg4SC92guUxu967ab7Hf33GanafHPklDMPHzEunfu4Fp5uN7Z8xb6nyocJ0UgsYkuAQ1TLvTtpOn28rAR9uaIUW6FsfJCJyoUxKNRn3xhL7/xrk2aNtOyddzRo9laCD8sDKMIK8rlUnYjTqbJrbJx6NU333OrnIVDvKunVXzJhWc7S3zsyWftsy++Vkzc5+IUY5kxe7599e0kV0WBWOqeAYhhTNiQW2+0a6+8yLn3t9/70LlL1Gm2xoSr5r5o69SW58A1e5+NdrsFggI1i5RSHdZGq4wCdqrIoxwXCmIe7SGsr3LluGMxbqc+xz2xY4HrJTas51KaoqLIBDKALQrgOQqyNGMJ4P947hUXL1ilBPAAweAonuGWIJWmKK6IgI/bCa3yh4JqPscTjzjmPcWal+Xm6O8RV4LYzjVYyTSBaRy/KHe6YkWaJ6QkfrCCgQP62HVXXWJn9O/jugV5gQu86bornWUjXIjXXlYV5a7Flgd6irf/8lotrCreh/KADju9v/Tt222WYjfkNlW8y6s6GRPei8WH5wjglcfMWTJbSX51w9V28QVn++8WjkIJxHIwc7ZKLF+V5twSTV86Day6+hIi7BuJVbwLwMTTsHSWMGu+iwMUxSGzebMUVxBGgYVir9wlDdcpEhdcMzkxwXUWULS4ZSazoQQV2yQA1yaH66w4hwvFxR3UCqcDj3fA1TLWlnKlNRQ7Q1Ud7gxxhJXO1qRzLs5bvVpVfSZZHibOLQoWKk1m/ga1zryIj4tzIgi3vVwLiPjfXM/zAsGGtW7anG4IvhkSODSuGWNM+RgXv2lat5GAqV616L8BXqitrlA++JrECQPEcq689Hw3GNwBq5ydYIF4CcCqYjPPdxIqL78xwgafO9CpPJTaNxOnOUWYVyZT/B03fpJrqSCY2PfiWjQSMOwdYU8LQicoslMwZ+8IapTmM5PIZqXMI5myiJbOTaNsK8dXsl5a2WyeCq7J8e/KLe/e67lbjuvUvq2LzU1EIFsiUNbPDh3mlDDWiSDKDxDLvLCoESSkInQfqGCFgmPYN7Ru/UanVNk2ctlFg9y+nE5T2roNU7htdEYXCT/uuygoMI3gZklAEQMtWzRxVYpBZ51mvSThKQthHTVr1HBd8GSJDnaYsQsNayRvQjrjz5MSEqxtmxZORkMIWxPatmqh87V3qzulUaKzEAI4qz+5UYKd3r+XCOzmOgYoVz5DlwIX00oKlmuw9YFFA9mtWzZ1Yqdd6xbOIiALa8LtJkocdWjrWVEAuvQuB9M4iUm0sC6VCGrRPNW5Wj7PvZNmcH/0F2m20rFopHBBtQhLC4DbdnOlSe+teWCxslS4DoKJuWMh8BnGwf/JWvzccwup7kZSoCxq4mpCg/rWTecPHe+J8JO7EaxgCMsvpnFmEm9cGiC1CBL4vBYIGArHcK7Q87marAQSwT0/y+W1vIGfz5CEk4MG+V0ocOdsguJ6cZo4SMgL5D8FABZrcYIxsxggOADjQJAVNJaCUNZOKuUoVMSUIbJRRmApRxmBpRpm/wd4/+JqEb/powAAAABJRU5ErkJggg==;" vertex="1" parent="1">
          <mxGeometry x="86.52999999999997" y="237.5" width="112" height="107" as="geometry" />
        </mxCell>
        <mxCell id="OAXY3ePAZleAso7HOR-Z-12" value="SQL data tansforms" style="text;html=1;strokeColor=none;fillColor=none;align=center;verticalAlign=middle;whiteSpace=wrap;rounded=0;" vertex="1" parent="1">
          <mxGeometry x="303.53" y="282.5" width="50" height="30" as="geometry" />
        </mxCell>
        <mxCell id="OAXY3ePAZleAso7HOR-Z-13" value="SQLAlchemy&lt;br&gt;Jinja templates" style="text;html=1;strokeColor=none;fillColor=none;align=center;verticalAlign=middle;whiteSpace=wrap;rounded=0;" vertex="1" parent="1">
          <mxGeometry x="283.53" y="320" width="90" height="30" as="geometry" />
        </mxCell>
        <mxCell id="OAXY3ePAZleAso7HOR-Z-14" value="In memory DataFrames" style="text;html=1;strokeColor=none;fillColor=none;align=center;verticalAlign=middle;whiteSpace=wrap;rounded=0;" vertex="1" parent="1">
          <mxGeometry x="-71.47000000000003" y="307.5" width="60" height="30" as="geometry" />
        </mxCell>
        <mxCell id="OAXY3ePAZleAso7HOR-Z-15" value="&lt;b&gt;Serving&lt;/b&gt;" style="text;html=1;strokeColor=none;fillColor=none;align=center;verticalAlign=middle;whiteSpace=wrap;rounded=0;" vertex="1" parent="1">
          <mxGeometry x="458.53" y="80" width="60" height="30" as="geometry" />
        </mxCell>
        <mxCell id="OAXY3ePAZleAso7HOR-Z-16" value="" style="shape=image;verticalLabelPosition=bottom;labelBackgroundColor=default;verticalAlign=top;aspect=fixed;imageAspect=0;image=data:image/png,iVBORw0KGgoAAAANSUhEUgAAAHAAAABrCAYAAACv8QYTAAAAAXNSR0IArs4c6QAAAARnQU1BAACxjwv8YQUAAAAJcEhZcwAADsMAAA7DAcdvqGQAACBOSURBVHhe7ZwHfFVVtsZXAoGQ0DskIST0Jr1IFxUVG3bH9izj6FgeOpZxdEbfOL7RGWccR0fFsWEFC9gRUFHpvfcSegm9BkJC8r7/PufgNSQkaMy9eZPv97u/5N577jn77G+vtb611r43KlewMpRaRPt/y1BKUUZgKUcZgaUcZQSWcpQRWMpRRmApRxmBpRwlmwdyqdws729hiI7R6MK8vo5m+v+cCFEaq8YZVd5/XrIoWQLTp5pNvMVs10L/hRPgnNFmSef4T8KE12uaZe72nxSAijqmze1mXR71XyhZlOwSP7Tte/KwrpgqZnEN9Gh4/KNcRe+4cKJS/fzHFltH4y/nHZO5y2znPO//MKBkLXDtx2bjBnvkVaxh1uJ6s3a/0USJxCi5otKAo4fNNo83m3Sb2cHNZjkKCcnnm531iX9AySI8QSY+waxyktny180WPm2WsUlxMcd/M4JxjDy5zOwMs7rd/DfCh/AQ2KCvWaeHRWIjsxXDzBY/q9W8MbJJRNBs/tqzvKwDZs2u0T38wX8zfAgPgdGKb0mDzDo+KBKTZYkiccnzInFDZJKIm9z0pU+eLK/5dWad/+jF8DAjPAQCREqj88za329WJSDxBZG4PrJIzDlitnGM5zazDvrkPRIR5IHwEQggMfkCs1Pu9UjEnS59MXJIhLz1n/sxT26zxQ0+eVX9A8KP8BIIHIkXisR7fHf6WmSQSMxbJ9U8VSo5a79Zy18q5kWO5QUIP4EgPxKXDA1fTIS8tR+aTX/A7Mg+s9a/VryWYImp7B8QOShZAqs2Ud53l1niGf4LITiORLnTjeM8uV7S2L3YbM6fRN5eszaQJ7GVH3kUIbgf8sAwIfL2xASua+1HXnxE6BS08ilzkUMe2uFN9tFD3ud5EL+olrAwysV6f3F/lL7i6ptVqqPlq9fyA5WVuf9rVusUETjErELkxLy8iMxNTRCwf42X8OeNOYdF1o7ZmuQFZgfWys0GBO4JIVAJN9Kfio8jz3+wECrW8ghENFVvaVa7s/5vLDIr+BfwsUvnr5Jy/PUjDJFJYL5QLNww1rPO7SJwz3K9pqEzybgyLKpCNbPy8R4Z0bI+bg0iIZZYRt0yY6uIl0BCmPA5rCzhTLPGF+kcdb1LlSKUHgLXfya39mfPvWE19Xqa1WjlkYBVQV6MyCtXSeSV96yPW8vNFoFyp8TSLJ/EQ+lm+9K0EGaZpU8R6XFmrX7lKU3OVYoQuQTiCkN7guNkIeRk7e9TXDzXrFpzs9ja3ns/BljggXVmWyebLfi7rhNlduZILYq2IlsJO50TxFRw/QhFZI0uR9aya74m9G+ytsc8VxdgzzLvfSwIIfJTyAPENtpCTvDIzWKRgeLFKqdIXU69Wy77Uy+mRigiwwJzj0q6LzJL+8Bs83eazJWeahzwtucq6XqPaKbXV3nkIT5qtTOr09WspiymskSIi18naknpNilCsyj2Kn7umOs9SBkQQpA4eJpZ3e5mq94xm/mQBNNOnTtR19C1Ui+T5StdYFwRhPATSDxaI+JWv6vJXOLFsESJCtxkw9M8wkBAYNOrvK7AEblArLBidU9dUt7iWGIhihP3y8LAwnCJWC5KFRJJOQ7rOaRC2C4tHrohAYEuRupaWyZqXCO8caFU6/dWWnGnYnBHb0wRgPASiFSnlbROsY3JJudrcoXiUBs/TwuR9gGBl8licHXbZ0rQyIJIJ0g5IIi871jc9K2R8/LA/ZbX4oiXRSF+anWQBXcxq9rUbMItXp8vIND7oEc01rlFXoG+JSQztrYisek1/nXCizARqEtu02ShKpkchEObO2Rx/b24BAl5ERB4vZJ3rIzOAJaFRRGjIBXhgdLMJg8MEnnyP6lT1CXWynNUJ1ZbXg8U6xey9g2j8xAYAud6tUiWvGi27GUvP0W1UoQPtlaECeEhkFRgzqNmG7+U1Z2tiZCyrKl8jMktCD8gUEQcB90GVuYsjlvybwsrcQ9NdEGTXRiBDjrfoe1ehWj6b7UYtIgo++FSw4iS9wFYCWKFpDxJ5HV8xMvrTkRekSCXieU6C5OrxMp48BxX/JMtRedHKDX9hVkvuVPIXPaqPMlU//3woOQJJO6tHu6px5Y3y322PrnJ3T7Dt7BiAor0SCFbB0NB+pEki20rl793hUh8RS8W43hOEiVLIPEJ95mxRYquj6cyT1YIjL3YbPLt3nl+ChAki54xG3eJrEiC6GQQq3iKGsaNIqLIUcOEkiWQeuT+tV75q6bUXH5ipTAgTth6MVJSfniKFORNev6cpyLJH1kklM8cZBnUQTM2e5a7Wvkd8evjXmbvSYlOGeJPvuLmSUHutEINLw/NUjrDPYUJJSti9q/z2jQoz84PaxVf7b9RBAQi5gpN+Or3zFa84VmRa/jq4W6Dv/pDBoFl85p7Xy+4faf81es82JdKvtlKKcQsjWVT3jSiEJBeTJOI2THHrPtfvGJ4GFCyFoicj6vn5WxURH5Mt72SPs92vitlbZfJffUdatZOlpRyoSeGaBrTLsJCSPRpGxFvE05XzJW1dnvc7NxxZpcr9vXXIqgna4z+EQKK1GKvxoBQwqOEC1hgiSHnaG5u2vu5ucOq5+aOuSA3d89y/40iYHjT3NwXNdzM3f4LhUHX4npFwehB3rnTp/kvFILsjNzclW/k5r4Uo/s4Pzc364D/RsmjZC0Q10UlI/Ess/TJcoOve9b4s8B3lcUNcs2d870iBN+TaDxYVijPEiaULIGANhCxD1e4Ui5sqVwgtUcS8KKA2FPUYwuFYiQdfoROUUDFZ8css6n3KQRoHMTQJlf6b4YHJU8gOV/CAK+vR/xY+KzZvCeUHy70ymGFYeaDEkETPOWH4jzpHEzHO2WqVIZuBL3APUv9904AjqcfOUG5627FXortCDHuIYwIUy1UQH5Tllr8vCflqfA3v1754alm8UnHV2YCFUrHAQtMOMOsgXJJXHKwlYLPlPOrLs59okJ1LG7PdSX8rjzkb1NaQVcjQ9aPIAltJ4WCytH+NLNVwz2Xz3WSRV7Hh7yGb5gRPgIBOR0d8eWveqkFLoovvrAbjdpoNZEWxJeAwA7K49gKQUqC+8vRZ+IbaTJFOqqTOml5yme0k6RyIQ6CMnd6VkQXnmI3x8UrhtXu4m1f5NwBgYwDV82x1GtpdeHm2T+TcqlSD1lhhOzODi+BAZisdZ94BeUd8zTBmnAmssffPAsjfwstZmNJNH5xu/tWiBy/z0d3gv0vJPI5sjxyP776DJnUR+lAsEUQsjlvXVk7raVxIiW0mL11klci2yRiKT7QQOb15v/lJe8RhMgg0EHD2CuCsAYUKlbQ5U8+gUJB3QjIpNKCq6PA7EhkmwTtJLlRty9UcYpWEsVotwlKOWLod9rzdiNWvKbY+A8vZ63ZQR7hPLl25Yth+h78iRBBBIaArX+HRYbblymrAe9KvZI4Xye3SS2yuICbHSOC+AbShRDYTR5hg1z6RLnM9rI+WejPkY4UEyJzZFRS2IcSkAewHMTJ+k+9TnlxADWKuzykBUMjGQEEEFEUq7H+CCYPRKYF5odlL3k1S9o5iBwshdjEXpWTERS4ZsQMrSDiLZZHLE293CvRhbMs9iNQegjE6lZKxlPIZms9yrO63CpSHouNVXxDoGC1x3Zmyz2SHqA6+TxVH6yNIjjxlq2ElaRc+bYwddJqWhBssShFKD0EAqxn23RvQxOpxG4l4Hw/ApLID90+FwkWpzwhULfGey4HlEqFRJ5DdvUWXoxDVbJ1kcpQhLvL/BCZBBKbSO4RMfntf4EQdqIdkNjAosjRAgWKKg2UKDGTPBJS3cYmqU+I4uF+KUPu1ynSfIjjR4lIMfLdfxM5iDwCIW/lW2ZrRippvkSx6QrPNRYIDR/LJA+ENPLAHNII5YIujcCdkkroL0RCaGFbONiZPesRj0B+zACSIxQl6zNwfV8qaV78nP9CHgTkLfqnt1XBbUgqLCYpWWczMCqSPZ9VUz3pj4pFRVZV/sjPmfCrS4idwsgD5IyZSldoGs94wCu/5Qe+IcX9zHvcf6HkUbIE8stGWBZd7LwIyFso8tg17b7JO1AWI3JKGpDe/Umv1EYNlO9I5Eci5TnuB3cbJkRG1MYFrnzbszwmhQ47ZSvEhtsfUcKg9Nagn1lveQoULrVQvuxSXPlnMSL8BELeKpG38ClZHuRpouhKUPYK5++nQWK9Pmb9X/NET9r7ssTIIzG8BEIee0Tn/83L0dpieTd45IXD8vKC+EttdMA73pjS5C4diXv8A8KP8BEIeWlyTTRzA/JIpvlSSySQF4Ccki/BnK6FFhdKYmRYYngIhDy+UjbnMZG324t5bO9zX9qMIPICoFxrd5IlBiSOEokaM62mMCM8BPLDcdQ16ePx5ZDWt/m5VgSSFwBLZNfAMXcqEtkXGmaEh0CqJplyQW1v90SLq3ZEMHkBHImyxNMhUa6eUl6YUbKVGLruYwfrnyJcsrT8Zjb4j/nFXlo19XuaawkV9oiE7jfF8fzGFvqgneW+xx8elK5uRBmOQ/jSiDIUC8oILOUoI7CUo4zAUo4yAks5yggs5SgjsJSjjMBSjjICSznKCCzlKCOwlOM/nsDDmZl2MCPDjh49+Z88oYx85EiWPltc39k/Hjk5OXbwYIYdPnzYf+WHOFbMPnw407akb7Pde/ZZg3p1rEF99qWUDmRnH7V1Gzba3n379SzKKlaIsbp1alud2v6PxRaAQ4cO27ujPrO0devtxmsut8aNEv13CgcTu3rNOhsx8lNr0SzVLrngHCtXrgh7Tk8COTm5uq9N9tKw4dYktZHddO0V/jvf45gFbti02d4YPsr++vQLNvrLb2z//gP+O5GPQ4cP2ciPx9hfnh7qxv/4U8/bk8+8aOMnTHGTUBAyZT0Tp860Dz8da9t3nPjnTjjPkuWr7K13P7S16zc66+Mzn40Zb7PmLnRfwyhuuGvs3GkffDzaJkye4b/6QxwjcP2GzfbtxKk2Z/5imzFrvm3aku6/E/nAAlelrbWVq9ZYclKipSQn2ZTps+39D0dbmqykOIDFTRbZb46AwE0WHR3tLO+xP9xjV18+WNYXnmjkuqaH5D7Xb9ys/6KsUWJDZ7Yb9Lxl8ya2Zt1GR2y1qlVs/8GDtnxlmtWtXct6dutk02fPt80i+rS+PezM0/pwKlnCFzZv4RLnktu0am4D+p5qNapXt+8mT7dFS77/Vb+aNWtYn1O7HpvsiVNnOCJO7dbZep/axV1v7NcTbMmyldahXWubu2Cx7di5y87o39v69+nhJjAv4uMqWZ+eXa1RUoIW4FZLW7vOVq5ea6mpybZ0+Uob9/VE23/ggM7Xxnr16KxJP75pzP1xXVxytapVrVvn9nb2Gf1s2qy5Nuar72zj5i024oNPbO26Dda3Vzdnfc2bplj7tq1k0Udsrgzgy28myT0fsk4d2lq/Xj2cK580bZbNmbfQmjVJ1Zyut02bt1rP7p1tQL+eVik2Vpb8tc2cs8D27t2vhZFiZw7oo7lp5I+qYLg72KmJWbl6jTVsUNfFvolTZjpCCc7p27bbuPET5C52W0LDeu64rKxsmzZzjsXExNiCRcts0dLl1r93DytfvrwN183FaSIRBTPnLrB9iktXaYWuloVMmzlPQf+I7d67zxrqOqmNk5ylD33lLduxa7fOm+Umiv28p/frZbM1OZ+PHa/PzbVorfAlS1fa0hWrHUn5ERilD1asWNGqVI53Y4mKinafwwoJD8vkAuPi4twkE696dDv+x8unz5qniZxvsToP5EzQwuvWpb0b/0ZNOnOyfuMmqy1SmssC31MMZUERAxdqLp4ZOsyFI1zq1Blz3EK++PyzbfHSFTbqkzFWo0Z1EVbRVmge5y9aah3bt7FK9WPt/Y8+d3PGuF5/Z6Slb99pf7j/v/1RFQw3C9t27HQrr17d2tbxlDZWtUplWyM/v2PnbjfgDAX7alUr2zVXDHYWgnJr3jTV7rnzZqtWrbKtkOvamr7dTeAjv7vLHnlgiN112w2WmXlEhMyzSpUq2mUXn2d/krsZfN5ZjqiEhvWdJc/Q+0zMZYPPdUKCm/hmwlQ3Jlb0/gMHrUfXDvbAXbdalSrxsqRVei//eMU4J06ZoTj1kc1fuNRq1axujZMTbdmKNJs2Y65179rRbrrucoutFOsW3R4tpLw447Te9vv77rSH7r3D+vbs5hbynHmL3IJqkpKse6lkl190nhMUzM0BKUQ8GOOcreNY4AMH9LXbb77WLeTAGFi4HHtKm5Z29203WWKDBnL76zRvO5x7vn/IrZq3u+zh3w6xKC3O7yZNd/dfGKL5MFa2YdMWq12rphtkPSm4NWtl5nJDASprVaPSEjXxWF69urWsWWpjq1GtmhtAxqFMR2CTlEbO7c5dsERWEmUHdGM5IiWhQT3n4hYsXuasfNDA09xkpG/b4RZMS63m9nKVtbRCceFMSICG9evJrTTRcVXcpB0qQFIjvHBFoz4d4855uRZNUkJD2ynr3r1nr4hcbV9/O8W2bdvp7nnfvuOFGp6BDXLTZ89zYwccX7dOLYuPj7NymlzG3yipoXsvAOMlnGBduNRT5FLrS81v3pqu63+/k5u5bab3a9So5kQKxsDfpnLzm+Sep8sDlS9fzrn6glKHUETv002zEliNqLEHHnlCk7xUBG5wlpEXuK7QDYDR0eX857mOyFuGPGh/eeoFZ1kHDx7Sq3pdA9y3f799o1g6T7GsX6/u1q93d3f8kawjVkGyv3xMebm/Cs71Zeqmjioe5sUxt4l/ygfVq1ezC88dqMXQxJ0HwsvLJZGrcS3yKcgnxrSTJVQWIXkxUm7ungcfs48/Hyc3t9ZN7lF9tjBkZ2fb4SOZuo8Yl8ZwTxViKrhrZ2dn+Ud5YKGzuB38exnywKP2xyf+aZMklIKFcyIFHSCa1bl0+Wq5mxpyVR2dGGnZopnt2rNHynSTHVQwLioQL4gNXN59Q26xunLJgMnjGsPf/8TFjUsHD7I4WR8uJj4+Xq7loLsOi4kJrirxUKFijPvsyYBJ69CulZ1/zhnOGohfxNP4+ErMmnOhv7//TinHe+UGz3UuNhSQ9cW4b5QPb3dudNDA/t8vGiGakwmIrbwgZrJgEC9YI4uF+8JzVZLLPhEWK7bPlCBkUT360G9k4fX8dwpHNHFuiRRasyaN7ZYbrra777jJzpV7YzCr16x3Lq6o4AYROORJBHAWB0iXC8KtoSKxLgI2ySniCdexV65s1EdfuNfWSN11PKW11ZE7P1kwvSwKSGzWtLFbUMSlpIQGcv8JTk2/8/7HynO/lfKdY9lyx1ghVjJWChNXh7dAePDZGRIzkOrOLSJxjRkZh+y9Dz+1kR+Ndq8HqCmX2Kp5qlziEZcbDn31bSdcWknJ48ZPBKwRK9+oMEa+R/wPXidEVZBVE0e/krrNi2g+hKQl/qWmJDnLSEps4AQNudUW+fCiom3rFrK+TjZLk/bWex9aUkPvJzsI4Nukqg7q5lGWr735vquAECuJhWcp6COhUYCnKj3htRpyhz8OURp/Qzvr9H5OUHz17WQJh1ZOeBw4kGEvvPymPfXsS25yiWe4c9KOCRI/u3bvsQsGneni8BP/eMFiK/i/GyOgDgee3teaaqHPmrPQvvjqW/8dD7jsnt27OMtevnK1Fss0ayVPxvmIhScCXql3j66uUPDsi8MspVGSex1Xi5dgPojX32mMeREl95bLqmP1Bu6CNZfr+31OEroK8dnuuV7H4nCPvMtkAEQGVs2KDEpLwTm8s3jgerzOg3PsksjgtarK/2I0GcB9Ro/Q40KvFQovXnx/LJ/z7suLNzzPkHvbs2efc2nkeCTfvI7XIN0IzotazME6K1d2A+U+OSfg/lCHsRVj9ZquG3INwDiI91h19eoKBbIecNy9+M+Da3JvqOta/rz9cE5z5C2y3bmCcQQo29hbynH8Ug4DgtX5/xE/930VaIHObCWNA/eKu/GqGz804Z8KVCdFYflxq1OnpovBJQFuG9eZJYkfHRWt3La8c13FdX+cn9QMRVpTMTW/lKU4UCCBCBiEBYPgxurXreNqoyi6WCWrJ7pRTklrB2VVU2LkRMei9v4uUYHyu/+uW6xrp/b+Oz8fiDdblchTnVm4ZLlVUdLfvm1L696lgyba/4HZnwgWJmU1xNoDd//abzcVv8Mr8IyU1l59631Xp3xj+EglmU/brXc/5Aq9lI5OBMQCpPzx8aedFUcatktkPffSm67tNP67yTZ63Hh7Xs8pBxYXWPRUrShyU8yOChL3Yka5/xH8/38AJDh1zFbNm9mtN15tycmJtmDRUlu0ZIVL+En8cX1Ua7amb3NVF0psVFRWp62z5/79hlKHHdarRxenbnlQVqI8R75FMkzivV25YFD0bZra2Kk4ci0q9JSUUIR8hsScclhOzlFX0gJYOSkQuSrKkFKdzN25LQrOFMhR0xWUDoQqV8pVH302zuWaD957h11/1aXWtXN7S1Y6wZiOZGW50iKFdsZFhQhCuP7mrduc4mTcVExoCm9XioSX4d65N8p0HE83oWunU9x9UWLDI21Xjse94NkISVyPAgbtPFKt3Nwcp5KL6soLJbBB/To26KwBrpg7b4GXGHfu0FaJcZK9IOscJisd9elYozHKIBksjVXXUlLSnrZ2vZtA3nvyny/aiA8+tS+USNOuoaaI/4ZAJovCAdV9uhiNk5NcLjp5+mz7lxYDr5OAUx0i38IdvTXiQ3teYxj79XealK2u7UTOSUvrmaGv2fgJUy1di6hBvbpuwQWg+M41WQhdNMEUMRKVszKZgPbWX3UPkExliWQ6Kamhe/7Uv15yE04xguoSi+ul10e4Lgh1TgoFNH0phFBP5fiGDerpGiluTilW/Pv14a7DUltjqlWrhr078jPlf6/bl99MdIWM1q2aWRVSmCKgyE6Z3Iw4GKvVyNYLOgrEuv59TrWrLr/QtVtwubyG6yBfwoo6d2inhL6+O0ed2rVcYtu6ZTP7dtI0l7gTjwCuNjUl2XU5Fi9baWNE1q7de13lpnWLpvaLSy9QPK3qKjpcC8sc+to7tlcrmSSdhYPwolsx7J0PXBmvS8d2NnHyDFdSCwUVFZJseo2vaPLpE+ItGAvkELuwBq65bv0mV1XBkmmDLVOS/tFnY53wSZFXgjRaQ5wL66LLgRchD6YwQLECj4ClsuBGj/vGzWO71i2tguZyzvxF9tIbw13xhLn5QIuPgntRcVJRNUYrlGQ+I+Owcwf3D7nFrrjkPBvQt6er5NBAzRIR1199qTse9XXLjVe5GiQT/FsF8/PPHuAsJVuTvVWuDyUIKDddNvgcu+Gay1xTmYkiIaYKcfP1v3DF7w6ntJErLOfceEYGyXaOE1RuT8qF5zjXQ4WFc7Zq3tRdk9hDE5YFFwDvwbj79z3V9Rf//Pfn7PV3RrmQwALYLLecmtLomGhbsmzFsbhPmOjXu4c9/cTDdtN1V7ieZvVqVZwbp9y1ecs216nAg4SC92guUxu967ab7Hf33GanafHPklDMPHzEunfu4Fp5uN7Z8xb6nyocJ0UgsYkuAQ1TLvTtpOn28rAR9uaIUW6FsfJCJyoUxKNRn3xhL7/xrk2aNtOyddzRo9laCD8sDKMIK8rlUnYjTqbJrbJx6NU333OrnIVDvKunVXzJhWc7S3zsyWftsy++Vkzc5+IUY5kxe7599e0kV0WBWOqeAYhhTNiQW2+0a6+8yLn3t9/70LlL1Gm2xoSr5r5o69SW58A1e5+NdrsFggI1i5RSHdZGq4wCdqrIoxwXCmIe7SGsr3LluGMxbqc+xz2xY4HrJTas51KaoqLIBDKALQrgOQqyNGMJ4P947hUXL1ilBPAAweAonuGWIJWmKK6IgI/bCa3yh4JqPscTjzjmPcWal+Xm6O8RV4LYzjVYyTSBaRy/KHe6YkWaJ6QkfrCCgQP62HVXXWJn9O/jugV5gQu86bornWUjXIjXXlYV5a7Flgd6irf/8lotrCreh/KADju9v/Tt222WYjfkNlW8y6s6GRPei8WH5wjglcfMWTJbSX51w9V28QVn++8WjkIJxHIwc7ZKLF+V5twSTV86Day6+hIi7BuJVbwLwMTTsHSWMGu+iwMUxSGzebMUVxBGgYVir9wlDdcpEhdcMzkxwXUWULS4ZSazoQQV2yQA1yaH66w4hwvFxR3UCqcDj3fA1TLWlnKlNRQ7Q1Ud7gxxhJXO1qRzLs5bvVpVfSZZHibOLQoWKk1m/ga1zryIj4tzIgi3vVwLiPjfXM/zAsGGtW7anG4IvhkSODSuGWNM+RgXv2lat5GAqV616L8BXqitrlA++JrECQPEcq689Hw3GNwBq5ydYIF4CcCqYjPPdxIqL78xwgafO9CpPJTaNxOnOUWYVyZT/B03fpJrqSCY2PfiWjQSMOwdYU8LQicoslMwZ+8IapTmM5PIZqXMI5myiJbOTaNsK8dXsl5a2WyeCq7J8e/KLe/e67lbjuvUvq2LzU1EIFsiUNbPDh3mlDDWiSDKDxDLvLCoESSkInQfqGCFgmPYN7Ru/UanVNk2ctlFg9y+nE5T2roNU7htdEYXCT/uuygoMI3gZklAEQMtWzRxVYpBZ51mvSThKQthHTVr1HBd8GSJDnaYsQsNayRvQjrjz5MSEqxtmxZORkMIWxPatmqh87V3qzulUaKzEAI4qz+5UYKd3r+XCOzmOgYoVz5DlwIX00oKlmuw9YFFA9mtWzZ1Yqdd6xbOIiALa8LtJkocdWjrWVEAuvQuB9M4iUm0sC6VCGrRPNW5Wj7PvZNmcH/0F2m20rFopHBBtQhLC4DbdnOlSe+teWCxslS4DoKJuWMh8BnGwf/JWvzccwup7kZSoCxq4mpCg/rWTecPHe+J8JO7EaxgCMsvpnFmEm9cGiC1CBL4vBYIGArHcK7Q87marAQSwT0/y+W1vIGfz5CEk4MG+V0ocOdsguJ6cZo4SMgL5D8FABZrcYIxsxggOADjQJAVNJaCUNZOKuUoVMSUIbJRRmApRxmBpRpm/wd4/+JqEb/powAAAABJRU5ErkJggg==;" vertex="1" parent="1">
          <mxGeometry x="442.53" y="237.5" width="112" height="107" as="geometry" />
        </mxCell>
        <mxCell id="OAXY3ePAZleAso7HOR-Z-24" value="Third Party services" style="text;html=1;strokeColor=none;fillColor=none;align=center;verticalAlign=middle;whiteSpace=wrap;rounded=0;" vertex="1" parent="1">
          <mxGeometry x="-398.47" y="200" width="120" height="30" as="geometry" />
        </mxCell>
        <mxCell id="OAXY3ePAZleAso7HOR-Z-27" value="" style="shape=image;verticalLabelPosition=bottom;labelBackgroundColor=default;verticalAlign=top;aspect=fixed;imageAspect=0;image=data:image/png,iVBORw0KGgoAAAANSUhEUgAAAI0AAAB5CAYAAAAEXaKqAAAAAXNSR0IArs4c6QAAAARnQU1BAACxjwv8YQUAAAAJcEhZcwAADsMAAA7DAcdvqGQAABPiSURBVHhe7Z0LkBTFGcc/7rW39z4EBEQFAqiQA3LyEOURHgf4AEoNhWIJaHyhWIEoVmEiKYkxFUkwVCQgGhUfPKIGQUtQeQRQIGodIoIvShABFfXuuPeTy/fvnd6b3ZvZndmbY2f3+lc1dXd7vT3T3f/5+uuvp3vaNTKkUNggQfupUFhGiUZhGyUahW2UaBS2UaJR2EaJRmEbNeS2wIObyuiFr+oo1eQWO1zbSKtHpNGN+V7tk/hGWRoLfF16RvvNmG5J7ejE6Qbtr/hHiUZhGyUahW2UaBS2UaJR2EaJRmEbJRoLlNcTHa9vFENro+M4H1VtZ/Ck4jRW2HuklvZ/x8oxoYoFNb6Ph/qem6R9Et8o0ShsEzeiqea7ffF/K6io2jwQV1NH9OjETMrxtqMn91TSZz+ZWw+kvX2wl37RLZnWFFbR+yf5AxOQdsbAVLqsR4r2SXwTN6IpqWqkwc8VUwjN0PHqRto2JZNG90qhASuLqajOvOjwU5YMSqV5I9LppnWnaTV3T4j8GgF/Z1E/Dz00LkP7JL6JK0fYm+hrVMwRGR0orTdRJKFMdj+M0shDpNWJBIIxSocD/5P5OgUs59Eid3rXXGSFG3liVwX1WFVCf91eLgTkJpRoXMih7+tp/sc11C2lnfg59vkSKubu1y0o0biQJ3ZX+rvDXiycYyyYIeyvwW9zA0o0LgN+zPJjgc/u4Hc4+CNfKHFFVxVXoqlq8FUoKtjoIBw6jNLIAyBop8coHQ6MnpyKCL+yv0r7LRAIp5hHe799vUz7JHrEVZxmweYyOlVhXhxMByy/JoO6ZicKB3PfKfOWRtq5Q71ieI6Yzk6++81A2nsvTaVxF3u0TyLnimeK6VSNeRkOVzZS4bQsET+KFioi7CLQNY1YczqgazKik6cdvXdrrvbX2cf1otl+uJYawvTjw9kapLLjiDmi8hB3KZBpMUI5WRy6T+nbJUlYJStpe3VKou7tE+nk6QY69K15pBl0zU00nKfad7yO8l8tFc5vKA5XN9KRmTnifNHA1aJBl+P9y09EGSEqkUVykCuwa1Yi5bFph39hCqfdMzVLhPsREf64gh0Ss7ua0y4Z5m2KCJ9kIZil5X8tGuCLCKPbm19YQ2Q2d8mnnMwC23BTtvZBExs/qaYpWyvCi6a2kVYM8dKdw9K0T84u7neEuetGJZodlNxUwbn8O4aqRulw6NMiItwr1TgdDuIuICAibJBGHt04H31EGH8bpcOBfDJMBFXBYrACyih9LHRpsFCwsvgJq9jaIyz3iyYGCWntQpDOgrICfJ6dPzZQu6U/UQ8ehqNLG7axTPzst/Y0ef9RRL2XF9Eft5QLETmNEo2L6JTOzcHdlxUgHCNLJg62dAgFrPy8lvq9eFp0r05aHyUaF9GZnW50X04AUQlhpXFXxlZp8ksl2n9ajhKNi8Bo6AKvM6LRg+7yqp7OPesTd6IJF+M4G8BRDQWCgWbMGZgqRkdOguuZNci5kZarRYN4CtA/xB18UF0jpWmjIkwjGKWRB9J6tLQdPAmGaeSBYbRHO382dxm4W43S4cADW0la2kxWLf42SocD+ZiNnsC1/VMpz5sgfBInQEznsWFe8bSiU7g+uAcHrto8gk+pPCSX4gqXFugrL9ys8dlIGwxGOwu2VNCh0pZPZkGksy9Ipn9em6V94gyuEU1rxxbcCAR+ksVx+Id6sdrh5a/q6EDZGeG8tpTWEgxwhWgQT1i4v4ZIm6VuM+DxVDgIfEg/qKU+mZx1X9zfQ/ePbp1nlqMumuc+qKJb3q0UsQWFfaTvIwOK0zsn0f1XpLXqLHjURYPAE+IIbhj1xALSkgAE8vAwfWcP0fV9PDSCh9VGE6FOo0QTY/Rgf2flpCyq5JFgDlvn9ukJ/oHA2UI1VQwB53bOpV4RBIRFwWMbZ1swIOqiQQxEYRHumib/PFX7I3pEXTRdMpWxswJ8mccHRV8wIOothpld6dgpzMGSYienAlqCsjQxAKzMgr4pjk4FtARXWBpFaGBl7rncHVYGRL3F8AyJwhxpZTBScgtRFw2Gj+EeJWjLYMb8gV9mkJtqyBV9Q35Ooj8crmgCcZkVlzn7WIMTuEI0V/WM3mpBt4KbCNME0VqmEgpXiGZA5yQ17A4Czu8LE925s5YrRNNW9qqzinR+3VovrhANwANDyq/xgUV/Cwvcu3+fa0QzNS9VdVEMdoVYOyUzKhORVnGNaLClR1sHgtkwId31m1i7RjQAjyi21S4KqwYW53tcMYsdDleJ5rbL0ukEdnJoYyAeM7d3cqs90+s0rhINglgP56e2KWsjVw08fo3zqwZaC9csYZFgKYt3aZEjyzjcjrAwP0umJSyYWCqtqywNwKgBziD6+HhG+DDsw8HCxNrt4TpLI4nXB87R9SK0sGFsekw4vUa4VjTopvKe8r0gI16Eg7IgcLfqqoyo7s7ZUlzbHOimdkzPjouAH8QC/+Xmnsn0/q05MS0Y4FpLI5HbpIJYtDgQy+WZCfS30elxM8fmetEAbLM667VSeqfkjHhcIBaAWLBlyIJBqXRjvlf7ND6ICdEA+Dh4nY14Owl3XW60OsLJhWXJThCbE2GvGTfPIUVKzIhGgv1b8JYSvHTCDeKRoyFcy8gOiXTbpV4a1j05LsUiiTnRSCCeVw9U02YWz+7T3HIsHqe26wiHtCjYVBGPqt5wSQoLJSVqO4ifbWJWNBJ0W59+V09bv6yhXScbxA5SIjCoCUcvJDR2OEHJNPgJ/KM3/hvbofTNSqR+7ROooLeHLuqY6KpVAmeLmBdNMNi6TL+71LdlZ+hEZSP9WHNGvN1EWgmBJgwhMD4gMMRRsJs59uQ7L62dWMyHx1F7dUwSuzS0RZEEE3eiMQMWCduVVdb6lFIbtKVdiqaFtJSEgH38FM1pM6JROEeYHl6haI4SjcI2SjQK2yjRKGyjRKOwjRKNwjZREQ1iJnevLxVvP9vyWY32aeyAVy7j2vG+yrZIVESzdl81LT/qe/NFwcYyIaJYAe+JvGu374Xr8z+opkL+u60RFdGUIJavO3O4N6e4iZo6Fri8dk87+qlczkW0HaIimgDwUglFTBF90ShiDiUahW2UaBS2UaJR2KZVRIMhNFYQ4Aj3Pkc7BOfr1FC9tfINBvlarQ+ZNtJrwvfMvoPP9eW1i2PP0+Dkz31YSS9/WUu7i3XD0IZGystJpKk9k+nmfN9rZ/6+q4LmFVaL5SjYyKf47vam254i33UfVdGbX9XRxu907ybmfHtlJtA15yfRjIFe2wvQUHGIF63/otaXL16FiJEc/+yWnkC/utA4371HamnYa2Xi0U8sU3l7QgYVXOzR/mvOmsIqmr6jUryxd/HgVNNtRZD/uoPV9MY39XS4jOtRuyYM77G7xMTeKWGX8yJwuvxQLfVqn0AfzMoVdYv1Yy/wNYj3ZJY0NI1atfaZYWOrE0dEI18pCLtltC5JPGIJ1XPbYOMesJQLhWdxQ4lm4yfVNGVrhfjdLF+AnTDnXpRMfxibaWnP3e2Ha2nmW+X0DV+T0YoGfb6zWeyPTmzK165o0FhzN5XThlP14jvIG+eTjSnBXT9/czmtPl5P3TgdMLouPKqKfP49KdPwRsH5ejxdLG4oXN+KIV4q4y/OL6wJnS/XBUS57NrwGxK0WDRC1UfrREGAv8IhEiZ4hYD8v/zbTDTyZaj6LUdk4UBwY+N/eL5387SskM/xYgrgrl2VolIl+ms2yhd/y0a2Ixp5M2HVgr+8/J3JHZJow03Zvg8YrKyY8Eqp+D343PKagP5/qLfVo9OaLcQTonm2xF9vOJ++TPqyApk3QJovZrcPKxrdZdhn3hssmGOBgsGJJ3VNEgrHATOPxsTFA/xfX3gjMKez8ECTYJAvDqwrejw/VeSLddGd2GQjX3neYjb9E9eVmvbTaERMAUjB4Hv4PvK9r7/HNF/8/hpbPatABONXFftf6CrLi3wW9EmhVdc1bWCERp7IgpH1Iq8J14BrwTXdcVGKWCojrwmgbtDdwRqHAhZaf360BdpEtg/aCp9BRIuGei1texKxpRFdx1sVAYpGhWAf/2CrAf9hFTfY7Per6LygOznY0mBuJ3/1aX/DIl+Yzd+PSW9mQZDv+o+r6YE9Vf48UamoiGAzi4bs9yLnq7tevFn2TwUZhuuVUL453CjowtCtFrIFQ3cQytLgelawJZv3YXUz62K0nhvpJ79UQp+WN/oFgwZcMjKNxhlYL5Rh7uaygOXJyPvIzTn+MgRbGgnyfmyY13DVJ26ykqozltdt6ZrPHlPeCRTMs5en0aNXGvsUuEhs17716ky/WTRj1pvlAYJZ1M8jXkhu1OUgX5jnjVMy/XcgKn85O3sQnx68VV/26UiLHahempZtWlFwNnfemC3uxj3XGfsPIFFrAJxv7PMlPgdfsy44D8rwMJdh64ycZhsAQPDvFJ3xi0t2r0aCAX3PTaK3Z+YKscvyont5bIfP7zMDaVFHqCujVRZoM6uCARGJRjzOoH0TFwRLMGtw+EXu2PYV3Qsq0ghU/AHdRo0FOQn00LjwHj0adNmoNH++EMfTbNkkuEM3siOqbxxsWRYOVCTEHmq3BziZ6E7zXy4V66r0FuACbozC67NoIZfBqLHWflorLBJAeuwfbGVd1b84TylKcZOwiwBH2gjkCwtjJvpIiEg029hESwcKlmOOjRdY4ZV6qFh5p+jBKsnzdJW44Ip08bsVYBkgMoCKfP1kvTD/4H2uVFlS5PvI5db67nCgHPezU42RoPTrAMoGCwXrYtZYaGQpZHnj9TwnUVxzuAP8blDgTfrhN8aPCqBbRJfkJBGJ5kMuLEBhUXEwm1aBKSxg82rEvlOBd4vdDanHc8VLMWK4XKRZrf3f+zYLELA1GB9iiBwJ0oJJcCNN6usxtC6SY+x76Hn3hwbh36CLs3I8daDaf16UDatJg0FdjOqSFPI6IiEi0Rxh51Ve8BAbfaGkD49WjDjKjRzcAHbo01H3NhfO53sEx5hTFbrukLsmpysRjYP141KwuJGGstMdKtp6CoLWyooyVzWwQ8v1ii7OynEsKG8sPw4+G+qiDw/vnSaiJvLqnoEpby7wsNTLhgWIdrYSHhZIM7SGdQp0dxgOH5zeFHeRXL2mxN+dhAOCs3Pov4OAX0/ump29FcyJSDQ9dC8rxS4NdgnohliAcsQ1IDfwDXOh7lQj9nK/7u+G6hqpa5bPol2YFVhMu/magWuFY49AHbroXTzaklvZwnrAGkxbV9rMAoDzWWhSwMjnkgxf/AThArvHojwPzRlh3f9rKRGJZkRXX+OiYnCnIXZhFTiAcqtX5DFZ599gd4YTujtz06fWA2oQAuZrAPLFfAoW8oM8blB/t8WnsxOoCwXy7N+lydHFaKtwapaIPQGUceOP9XTPel+0V8+57KDKkRPoyImxpzDCC3YPjDCd7nJDEZFoxvb2+LfrQP993/bQcQI9j2xrSotK17+KcMJF7KBq3R0sBoJ2Vs3703sr6EBVk0+EiUxZkVdewqMH7a7G9d6yu5KKHbI2DUHXh9HSNh46i8lGBufDkBjTInowtEYkWt58q9mRjZWVGRGJBhWTp+uiYIYxBxWuGRDPQAXKhkVDThvYNHTEnTq9my9wJdNgRBFOOJhBxl58aCCAkdPtQ5vCAOj+ZndvGllBkNdY8DcwsYlyIX87YNS3ely63+LguhYerBHTGHqw1Zr+5it4q7xZUDIYWFRMUZy/rCjsFEJrEZFoADZQlncTGhhxkeHPFBt2VagI7ECub1hU6IaC9GYR5CcmZ9FxbaiMfBFixybURhWEkDkadTomIGW+3AiYSe8RNKrDTLVsIOQLofd+0pdvsHiQ74ObymjM62WiXNO3VNjqggGir7gO6ePg+mDh9OWAuILFnP9qqbi5jIJ1+G7uyiL/tAOi8tGgRbPc4hmR7dxgunkONBoKD8fOm5RAhSUNohvCZ9J6oCIXXJwiph2MwB0+5j+lATPRMl9EWbFLldgmTfvMny//jRA7pgeMEPNPq0oCJizltcl8j7Bg0c0F5AuBT/BtS29nlhuIpwAwqasT9Z7Jmf4oMywHrN7X/FOeT14XtpTNy06gH/gDCKVZPXJejb85x/eHhn7uCf/H9I6VaL0dtNNHBu4mTM9LiwNQOSgUYg4QjP4zgAaAt28mGIA7cNt17FByvvIulHkgRoF88XlAvixERFXNBAP6skNcyENjmS++G5wvZsqD80WXGWlAEI7qlA5JogEB8r6DLYS0brC0b9yYI0Qr08jrQuwGgwYZF5PXhWtHPR68wbysRuCc8JuMrKsdtKqJHAjn4MwcEbtBQWQjAxTQX0iufFQKnEQr80kQzok7c32PBGj5yrwD8uU8kffqUWmigcIBf6z43nNoFDuhUjz6fIE/Xz7vs8PThBADRidaekSXMzyB3asRa6dliXC+PA+EqV8gCOG8d2uueCsLrgnnltelvyZxXfx/ONB4MgA3QTBiGzgZ++L0Hl0vjQ0tK1ksCAR+ZDLtYAXHHvcE8F12sPn+gP2AA9imlUFMZ9C5iTS8e4rtaQEJupVdX9XSTjbzMt/OfOMP6pREY9jMm80KhwOm/K3Pa5rl2++cRBrN1wvrYjSUxeOqyz6poTu5i7X6iCTu7F+zv4LzLB2TbloXSIfZ711f19H+4gbhe2GCFd3USLakGGGGm5GG27Dwf1ViBPln9uVkGZD3u9z1QzhmZbOCo6JRtA0046dQWEeJRmEbJRqFbZRoFLZRolHYRolGYRslGoVtlGgUtlGiUdhGiUZhGyUahU2I/g/tbNZLiRrEsgAAAABJRU5ErkJggg==;" vertex="1" parent="1">
          <mxGeometry x="-122.47" y="199" width="71.08" height="61" as="geometry" />
        </mxCell>
        <mxCell id="OAXY3ePAZleAso7HOR-Z-29" value="" style="shape=image;verticalLabelPosition=bottom;labelBackgroundColor=default;verticalAlign=top;aspect=fixed;imageAspect=0;image=data:image/png,iVBORw0KGgoAAAANSUhEUgAAAEAAAAAlCAYAAADyUO83AAAAAXNSR0IArs4c6QAAAARnQU1BAACxjwv8YQUAAAAJcEhZcwAADsMAAA7DAcdvqGQAAAqWSURBVGhD7VlpUJbXFX7YF9kRRI0KiMgqbpiooLhgg0nUWB2XpmbUGkvVxOgYUxsbO83S2v6gHafRxFHbuMQl2prYsWM0RuuuuKAIyCLIIpvs+/L1Ofd9P8TI8hFtk9Q8DvPe977bvc855znnfJoZCDzBMNePTyx+IEA/PrH4gQD9+MSi0yxQX1+POzl5uBh/DafPxSPpVjpqqmvQrZs9BvT3xsRxERj9zHC4uTrDzMwMxcUl+PLEGVRWVSMoYABGDA/T36ShudnA91xEalomHPiO0SOHo6eXp35Vgyzp8JGvkF9QBB/vPhgb8bSar6mtxfXEFBw8dAQXLyegpLQMdra26jsRfM8Y3te7Zw91r6nolIBtO/bho627kJdfwIUBFhYWar65uVkt1MrKEuPHjsKalUvQt08vJKWkYenKXyMtIwu+Pn1xcPdmdLO3U88Icu8WYNHSN5GYdAuWlpb41aolmDdnOszN7ztjVnYuol94CfUNDZgzcwree3uV2qysZcvf9ihyhWz5tqyhqalJPRcWGoT9Ozaqsamw1I/t4vAXX6GsvBLhw8IQOWoE/Hz6qfn021nYc+AQMrNycPT4afh698UbyxfD06M7PcNHESDekExChg4OUc8I0mX+XokaNzY2IiU1A7V19bC3s1VzgqPHT6nNCynjxoxUZItXbf14r+5Zfnhp9ovo07snmklA1p1cHOMart9M1t/QBYgHdITjJ88asnPy9LMHUVZRYRga8ZzBOzjCEBE9Q581GOL+ssXgFxZlCBg6wUCr6bMaPt51QM37Dx6nnntx7mJDUdE9/aqG2S8vVdeiYmYbSJihpqbWEPv6W2puAN9bVFyi3/kgamvr9JHp6FQEJf569/LSzx6Ek4MDno+ZqMY5efkor6hU47CQQDg5OigrJiWnoYGWFtTR0uI5tXV1eGHyRDg7OSItPRMVVVXquuBeSSmu3khS49DggXBzc6GVm1FWVqHmHBy6Ke1oCzY21vrIdDxyFujHuBeQTBWngkEhAXB1cVKum5mdg6Lie2q+orJSESCYNCESIUH+irTklHQ1J7hyLRENDY2wtrYiAQFwJMmWFpZ4SjdCaVk5/vTBVkWIfPNRYRIBxs1JHP554zZ8SFE8cfo8ikvKYMZ/RsiGBW6uLhg2JFSNs3PuIi+vQI1ls+m376jNjR09QomW4NTZi+ooEHWX97i7uSI40J86YKbu/9HEMXCix8haPtyyE1GTZ2PNuvW4m19IEdS++03QqQiKaksW2Ln3H0yJDfps55g0PhJ79h9CPheYk3sXQ8KCUcC0livjwcF0VxtucIDKBGfOX1YbYwwzO6QqArw8PRDg76u/DSrNxS6Yix17D6r3iSd88unn6k/EcP5PZyImOgpePTz0J0xDhx5AccLqte/jrzs/pWI3IXJkOF6NnY+Vyxbh9aULsXDeLIQGDdTvfhBPhw9hGDgrHUhMTlWp6tKV62ji5oYN1ryjl1cPbrS7CgvJ+VJvFBQWqWuDBwUpTzLC2toai+bPRdzv1mLFsoWIJsGO1BmBPPfO+g1Y9db7Lc+big494PPDx5R1BFOfi8aq116Bh4c7zJmDJfxkU7v2HURC4sPpR4QqaswzOHDwX7iacFMJ4QUWU5K/jeHh0d0NT9F62bTouYtXYW9vq4gQSG3xdVhYmKtnBw8KRlV1tbo3gYK5Pm6TGksobdqyC2tXL9Of6BwdekD8tRvKHR2pvJGjwlXFZslCSPKzLEZis7qqRr/7vgYYMZkuKffeuJmCiooqXElIRA8SaKzWJM6FACFFFn87Mxul1BoXZ6eHKsjWkG9LlpFKdPqUZ7Hhj79Ra5MwkhqiK2iXAHlZHdOVHGWBxgqwNcQKX548o59BiWJrhIUGoidjUsRv2/Z9Srm9Wdq6MDQEtrY28PPtp4gUAi6JAPJ7U+ht1lZW6h5TIER2d3fVz7S1m4p2CZBNS4yKBaX6ksVVsQcwIo/i+Pa7cYi/ekOfAc6cvaSPNNjb27e4+/bdf1dH774kwNlRjQWBA/1UPS8ufPqc9vyMqTHqaISI4webtzMc41tqCiNksydOnUcGs4tAPEfWbio67AXOXriMBbFvqCZEPEDES5Q7l0WPEFJCJQ4fOkjFoZDj5OiI00f3sfbXChUJiR3c+Lr34pRlxdKrXluMn708S10XSBqb/pOfK0IF0j8c3r+Ndf59D5D6YdLUeSikKPfq6YlAfz94erorYm7cvIVkNmiyDRHdz/Zs5j2mN0QW6wh9/BCkAhRhysi8w0VUMafnqULlDpsVDy5g3uzpWL0iVnlI3t1ClaqiIke2VGRiCbHYtetJqriRcJgxLYZNU291XSBd5YX4q1TvYuUJ056fxO4yXOX/FtBEeSRK0mg+Vf5W2m31TkmZUmSJ4EqaXbdmueoMu4JOu0GxomxamBYrmVOApOsTKwQM7A8r5nGpFbLYFIWGDGyxvhHVNTWqHBYdsGPDE8K02bo7FEiDdDsrW4Wb/wAfFXpfRzkbspS0DHWffKuYJbMQ3IOG8PfzRTA3LpaXd3QFJv8qLESIG8tHJQ12Jc4eJ2S5sg6DnnHMzLSM9E1hMgH/r/h+E9DMjFDHRqs8Fahkk9XArtLaCXCmDsifZTf9xvbRNgFlfKENy1Db7vrEdwxsj1HIlHnlXfbPV7nxapaltZxvYmJncWtJHeo3FQjndRs3/aG20XbwZOwD/jkJSN0J1BRy4jvmJPeus4WMZX68Ddh50tp+gGswj/4iElTePN7D+qSRpHSCtj2gkQVP0kfAtT8ALmx2vH8M9HkWcPTmxW9H/B6AuH5znWbp1uuRrZz/Jdf9e655OhC5kV7ccXfYtgdYMk0FvgJEbSOTiayIVgBH+MJTr2rsfttQbi7xzc2XsRH79y+AnC94ynPxCIF4hAka0H7+sLBlvzoBmHWLFRHDoYQulbgB+MSHbeJ4IPc4Y6+CsVevMf8/Ab/TzO/Vs+fIOADsHwrs5UZTd1AEtVIYBWcBK7bJHsN1D+kYpmWBRoqMfETColB+veEjZmyObNy10OhNoux7MUR8WdqxyrOw0Z57HBBxE4WXeJdNZh8m+ceo/qXaGrxGA0FL6PLTaJBKYDfX4BoCjKX3Ot3/QaU9mJ4Gm6mwkm4y2dQkbdbGCnQ7C9bt1swaQoBTf5LRk0T0oX4EaMJkxzjszB1lGUJ0LXuCshSgNEnbeHUuv5VGAjI0yzfLr1L8prx74ELAb472PZm7tR04uQgY/g4QulwjqBOYToARkmpEB25uAhLiuGjtl+AWqApR/hhdEqvm7AusuHkrdoDqj2NzeogsTkgVMWvixuvLtZASK6qwkv/skGqPy2u9REu6d9ibQMACEsuSmZWggqTGQ9Ha+2LoJRIGJqDrBLRGVQ4L+d30is80C9WQGFn844RoUTeGlwO1x5u53WcmLd7Gz/TiJZeZ94f9lvfeb7Y6w6MRoMDHJR5FJIuoD8XXmDkS6MYUzwZatcs1BC1q68rQYfqVWHYP0wRNzqXKU97VBoR4EUgTLW/EYyCgFcQNJY7FjWuLNJ0oYdEiZFRmakWVuLnEsXzWguEhm7KlK0uNITWHbFoKG9EU2Yx4gNHN/wt4vAR87wD8B+BhVos83LPLAAAAAElFTkSuQmCC;" vertex="1" parent="1">
          <mxGeometry x="-135.47" y="130" width="64" height="37" as="geometry" />
        </mxCell>
        <mxCell id="OAXY3ePAZleAso7HOR-Z-30" value="" style="shape=image;verticalLabelPosition=bottom;labelBackgroundColor=default;verticalAlign=top;aspect=fixed;imageAspect=0;image=data:image/png,iVBORw0KGgoAAAANSUhEUgAAAQQAAABKCAYAAABdLSqiAAAAAXNSR0IArs4c6QAAAARnQU1BAACxjwv8YQUAAAAJcEhZcwAADsMAAA7DAcdvqGQAAByHSURBVHhe7V0JfBRF1n+5yOQiB4FwSAIioCiHxyp+XF6r3Lru6occugcCSlAX5VRAQW704wgsIJ+7Loe4q6uABnFdxQNFfyqXCAgI4QhH7jshCfneq+7q6e6pnumZTNDi6z/z8vrVv6p6XlX3q6NnhpA6BDhw4MABIlTVDhw4cOAEBAcOHLjhBAQHDhxosL2HUP3lTPUIC4WEABUTaT1sVn1JEfGriQDhLtWSCBeroebrearhRn3b2NyHlwIRt05Xj+RCXWU+1OzKUC3/ILpXvOmGhlUf2A4IlUvjAGqqoA7/YTEUfPP4Tzbb9USxtAGhcnGMhz/S2aHhEPVUOdrygQJC5YoUPApie/wMdogrCVyPn8M0T9heMly8iIJ1U/jgIqMtM4Lh/y/Blhkif2S0reDHHgJGmbrLQGSGyB8ZRWaI/JFN2IxBDNsBoQ5nCLS6UKKMvFpm2PHvl67xJTXs+vmL1ngvW8H2HkLZy/FQV1OpWsFFaLOuEN5+kGoFBzXfr4WLRVmq5Ubs+CJp9xBKF8WqRsMgvP1ggMh41nYNhtAIiH2mVDXkAu0hlC1toVrBBd0DofFpUHN4M7MjbkyH2iNbhNdwfRESlQQx486olhG2A0LJoniA2oYJCLFPnYOQyATVCg6oIctWdlAtN+KeljcglCxsmIBAF6PrzkUQltqb2dR2Fz6fBdUNERgwIMRNkDcglC4JbkCg675Rz+eg0U3joK6qEEoX06YlXqeTqpiuon74JoNxwQJtKsY+We+AgDdsA80Q4iZXQvmGu6H2xKdqSv0QSQ2MUjLP88aPewYbVtaAsCBONYKDEFcCRN65ECI6j8AgcAIq3xvJ0iN7TsPg0MsdGPatY+lBQRgFhBLVkAt1lQV4wwYvIDS6KZ1dp0CPGrGtQ5t10a5Zuicunt/L0qgfqv4zAWp+VGYP9QXNEGKfzFYtI/zYQ1DWf8paJLia1S9ID1grVQp5mSHyJ1AdgRdjzJiDEN5hMFR+OAFKVnSAmqxPoRqlbP2vUe7Gi/QEuAasgZjHDkH4dcNt1etL03UkLdABX/7Z0WGte0P0H76CyLsWQfXhd6F0RUeoVm92no9AaSXIUT9E3f8PiBr6AUDjNJ/1+9T0xwJ+PWWoY7uUVLGyW2m0zdo+z2HFi7U1T5xnfYomWlYY/QmsfcJxWRD7+CFwqRdjyfKOUPV1hke+mqzPoHTd3Sww0OwhauAaVq4RCwzW9bu1mGfH0sK3f954wOVB1IBXIHoY3tg4Kyhbfw9UbBkJFytwGUs8gednxyFwsTBL64fQ+DYQR32AswpaapjrN2ov7y8YTxl4hGkIIYjSAxalSiEnM0T+2JUQHFlihm1D+YDd4CVrboHyzY/ixVgozM+l+vinULr2bnZRssAwaA3EjT2IywxlxhCIyAyRP3aElrF0M0d0HAzlW0ZBySu3sLbV8pjqZ8c6m/IWZ3SEys9ehMibxyl1NUAf2J8hqFHHLaI0vdjnS9f2hdqze3WckReLNx45goiTGQZfzLZZFJ5GElev56Bx+iEITWjDLsbSv98jaG+zGOuvOY4zBixXuhbLntsH0YNegcYYGBp1HmHI5xaL9+dldJICmi/6Y5EofHhqH9ZOrt7PwYW966B4WUe4sGedxhuEYDjW2apUfjIbg0l3qDnxKeuD2OEfQFizrh75fL4/C9jfQ8ATXMQ/NFPgmvYj9bYVXxfZGEJTezHNebJD4lOZfeH4JwDxaRCS0tnAgy5/SEoXzKPkN9fPbS1de8+evMzw8FPgn15HdBnGAkHkLelQ8elsKFp9M1TuXqvxdvtPn34BR6qSNx6AwmVXs2VF9GAMDOkH8FzDDfmsynt7Bi4DfPnHNV3PMQ+8AbEjtrGZVRHOCMq2PQO1uDwQlUdlqJ/DXC/pmoLj2AcPQgkGaArycY/uBNevFxruL9JW7w+VJeoxQ+BrFGvhfHhKN2j88AdMc47sRl3co0vM3YuY6PkwXX7iInX5SazPr75lESczTL5Y+R+R1gfi8EKMwZu1Gm/aolXdoWL7bKirKDbks9t/IrlYcAJKN42CwqXXsHPQuRLGHWTrXJ5HVN7b+lUK6H3RHeslCmcD8Y9+BeFt+kDZptFQ/BrOqs7s88hnLG+qnw4pzZDHKNU4aytccjWUb5sIkd0exvY/BK6b0zXe6v2xdAtcsj0EgtkmaGl0rLMJGkeiJBnTLITDGycdBL6YJYRGpcGrIO7h9yEkKhEvxL5QsvFBqC3IEuYPhlDd5RhsaI0bmpDGPlwjyqeJ5DMEoU+qRHQcBAlPHICoPs9C5VcZULAY1/w4IxPl1Qv1G5WtqyrW0gjhaTSL9tGeKBU7lXNdOLQFou9ZCI1H7cTBtIswLxcr+D1DMEcdXzbtrEZ2Hc6qIE2NRUIIT+ut2WG4HCDR8/r8xFH+sBTjesny/AS9rU+XFQJ/uB3ZdQQkjN4Jja6+F0rfGQ1Ff+kO1cc+s26fINnUN3Te8ObdoOz9SXABz6nnzfll30Pw1h5x//0GXKwsxpuzE5R/PIfNyOy0X+KTByDUlQAlrz+o8SUbh0AYLgeIozzsg3uYblUfnav0bez3v/XFdxnCAoN1fsUXEWx/MCl3VhLU1SifnvIHcb9ZDa5uw1Sr/qirLILcuS1VS4yY25+F6NumQs6MGDXFjeRpeRAi4weTaqshZ6b1pzmTp2Tj+v4zKHl7FGujhkbk1YMgpt98vGjTcIRaDmUf45LEznlDw6HpjIZ/fw2BixUFkDfvCtXyRNMXynC2NIe1hS9EtOkFsf0WYCDtwsqUf5nh0X4hrniIvjWdXcu1hTgTw3ord69XWWvQ9U/1F/6VgoMnQnH22GTyKdUywn5AmNlEDQiUHaOMBrGd8Mf38U31ZCnVxz+Hwlf5m7NX3g23HXP7VIhG0SNnOt30xvwsIGC+nOn0UV9jfcnTc+UNCC8k4oG4fZrOLGWjknIxittPQf3ssIRUDPKrIKJtL9avJf8ahRfrCZVLg6hbH8P0HVB1YAtL86gvjAJC8D6GeynBAsJcCgji9nH3wRxmKzD6H+JqzK7PqFvHQs3Zfaz9SLvh2f40U4jpPx+D8EA26yvdOgnL7NV4c34WENr2Vu85Tz40KgmaTDmp2kY02B5CSeZEfEP9NGdFefwWVhOwerl4yyfiZIbIHy6M95GnPkJfeorpOx+Sxv8AoYlpULThISj4375QU5DFOBrFksbvxws9nV3sojqYXMZ7CIz3kqcRzqoSH/8SXNePYDd1/vJbofrMXmFevVAbF60fwq53avvEx7/AoLyStbsoP74YhBwK3ctWCHgPgSr2Zldn74ULP32ufQrLV367NoHqrfrpM6at8jPobH15aSHwx5e/wbCju4+F5Kd/gKgbRkDZR3Mgb9G1UPkDzgCQc3UbDkl4kcfcMRW5uTj1XYHp+LKozzhayQev7UXQ0rlW+DBcGsQPfR1qC06yQFC2Y7mBt2ovvU3Xe+6iTlCaORkirxkMje9f7TW/pe2lD2wHBKqQnmP6q1nZepTXa/zL6qtPPpkh8odrAlqWfCA6HJd8SWO/gNgB8zEAvAs5C6+Bkv/MYTytURP+lAmNf7uKTV9zMEiU/Ge28slHei8W9dIvb8kMsz96zXgUER+CozmhFNuoOl956iPKZ0eX7siAsi8y2B6DiMe/7FxW5b3N0vyeIdiVxgMWQNKftkJ4i84BlbcUBNXLRZiHhGCVLitE/nDxxfshtBeQMGwjJI3cCnWVxZC/pj8UvTkGb3blcwxxuJ4ljnbGiStY+xDU5p9w1+HtvUg+QxD6xMUbr/ltSq+PEETpJL44C9R7D8Hb3gJ9gYM3hIgn8bU3oec1UL2qiMpz0LGZlxX01vV+cOH+cVjxVqLnaRSLuWMKNJ2wHyJadoFCDAK5q/tB1VF6fKnkoc3EmB5jcaSbCzlL/wsqdRwJB7c9zi/zDMHsC4rePw5vvJ4j8ad/9MIh4jnoWFg+mDMEWoNwiWjRFRJ+txKSHs1k0gSl8cAFjCvaMhnyVvWHmmz6zDy9Ec/y5jp988pbycV6Sah+cXkln2d5FJmh80Xzhx8zHl+qbea5bcWHY18mP/EFxN01FUo+xJt9SQ+o+GaDR3kmiKqjnxvKc561va6/zTwfIGQF90XoH+PdefS84jtl0OVXRW/zY9881eVZn5kT8l76wI89BPfnoLkkjtgAkVfSr+zQCZQTcS68RRccTXqyxyxosjRzeX9tfDE0wnpJqH49z/NziOqTGd7ah0DKivdlNx44D2oKTsDZeddB8b/nQm05feZenJ+dS2frecZ54S/yTJLC7I/e5vDG621R+9i1WV0W9XHOsnwwZgg8wuglLDEVyr9ZD7krB2hStHky4+IHzYPk0Zls6qlU4Fk+IEFQvVyEeUgIVumyQuQPF1+8L0FcwFG/Nv+kmOeih4gn8cqRSAyRT1y88XqI+EDEW11eORIx/AgIivAoQ5qlq5w+nXTBpsmQgwGiOvt7ls/MB6RZTcDqPY9CmtKV4POeJlE3DWUfIRXVIzNE/uj9ImXF+9L+lCdY8fjyzkv+lMHKL9IEUt54UXogGl/W9amcqBzXVrC/h8CWAxRhqEJFM+hsva4+vQ8qj+xgj6GUyGTkA9FMEFRv1ZHPmWa8FvEUXXV0B5xf0V9cj8QQ+qP3C48teRuai898BG+8RTrT0s8QTP7odH15fzV9ajSUPXo0pnOxKse0BezPEDCy0z4CRReuWTqJKd2tlTyUy5ju5o22D57Xxm1VCt6ZBOdWDEDpz3Te62PgAgYkdx53vTJD74eiuSh+0V9uuzm9Xf/y7k7gnJKuaZV0c0b+cvgcgtsfo814lseTN7abdfsYtTVfhdd3aHQCtJi6D2J7jjHy/FQsTZeu01awHxAosmNkUaKMqhXCMx2l2eOZkPpSIUS2o+8zePKKxpcw3YpnZ8R6i1Shn/8SlbMqjyIzdH6Y/VN4t23mxVrHs/7V2Waea3WEF+dX0jxnkzpeLS8rjP6YbJaBRMAb2s2ivIe25sv3vQfZszpD+feZkHjfPGg+/nNwtevlLmfRP1xbwc8ZglFYOokpnaT06/VQtI12rk9a5vFXOKjeQhTSonzehL0ZSSHyhwuHiLMjHCLOLF7zEeeNvyxmCGJhvJc8jBekByIRLTuzJ0G5Gx6Dc8sHYpylQfhdaDJkBYRGKd+KFZXjYoUA9hBMUUZn63XpV69Dwdb5UJNHn2Czzue3RlC9hSikbZfjWmL48ssr71PjS5ju1vT/OMT+aig7V00eBnoTz7XX/pZ8hmDpF4kX/mJ5MaMT7pmMs+Zelvl8aWr/VtP2QstnPoOmf1wP4YlpUHF4B2Qv6AX5b0+F6C4DIa73GMyPL0F50t76wI8ZAl9/uIXDnK4XDhHnr3CIOLsiM0T+cOEQcXaEQ8SR0NKv5YRPIbrzQMjDC68aA70oH4eII7mcPodgFg4RV3VqH5xZRv9dYQg0T9/ChNpUlFcklPeK6XsgeegKqMk/yfrAdVUv1ifx90xieYq2/wVOPt8FZ+evm/bQjOJtH6feewh0AlEUSvrNXGiBTjdqdZ2aT1Deb82qYvVSg5K2V86tpR6hBP64/SIeX6Z0u9qqPM0KUv60DlqM28IuxFPze0Pxxyst62HXA1Xlka5o2WcIVn4xzXj6I+YraSRfOghy1qdDeFIaa1O6jmmUF+UnTTc9Xee8/c8sGwxnsI4i7IOTz3eFEpyJJ/abDK1n7GF5a3EmkrNuLOS+NVVYH9PBmSFYP8s0p/NBoE79LgN9WtHVrgdGuR710mFJrd31opA2n9eXlhm+/CJlxfvUgvJRnQdA6vO7wdW+F+T+61k4vWQQmxl4q4dAyoonLSvordvxy4rnunjnBsia0RXOr0uHiCZp0BrbuOmwDAhNTNXyua7qCc3HbcZAsJld59lLB7P2L//xc62eGtpDwBv/1Pw+UI3BgvKmjFxrqEekve3j2P7FpJ/+3BLqqo2/mNQuIw8KMudDfuYCXbqbJyT1nwiJ/SepVv1x4fT3cHJuH9UimM9rPL85/cr/yYaQiEgipEJdbTX89GRzOkLx9I/6omj7Ksh9cwqz3TD6b1W+5ZOb2QiWnzmPbUo1G5EBMV36Q9neTDi/Nl35PImX8lwn/242zgo7Q/aSwUQijHxIWDhcueQcEdKhtrwAjk9sh0di/9tl5LOlQc66cUwrMPrv1hx1ENd9KN4nk3DW0BpKMFiEY5CIat+DzQhy35zK+sBbeZ6e1H8y3msT2W+QHJtwJZEIc7k6CItJhDbzj+KxJ/x+yqBEGdpPoBMop1FsT57s3PfmswuKkPvms3BqMUY6FELJzo2aXYU3Oome1+cnjvJnzeltqN99PvH5zbzMMPpj9K8Qp5Dxt41mN7brqh4ePB0bbSPP6kchm5Z5FAyo/bNXDccbwf2/O1mVD09KZeeOv20MuxnMPB0zW+anDAZ/PP07s3oEhEUnwBWTt0PT4ctYm3j4r9nu8sVfboDj07qygTWm60CcNaSye+b4tG5Qsuc9LS/Pby5PM/DEfpMg/vbR7Cvq+e/RFwzdvLl80PYQqEK+DlHWIkbbg1ftC/SkAVGJF0rFjztw2rOD2TT95PZF+jINip6nC0vPU35R/dy2Or+Blxje/Mv5pxI8aXRv9dRmHOGXQwRekHbbh4HbiqWMcirvrTzNAFtP+YRdyGdWjWDvRc8byhtGNwmh88fsX+nuTDj2XDc49/d0iO7QC9Jm7oIU7AfaL9D81+U3l897dz4cfbotq6Poy9c9eFH5xrc8BG1m7YakAZOg8KNVrGzBR3yPR1zeWx/4PUPQC0snMaVzUaKTmomg2ixNMQ02wcCrx5ptSuP1W4mIlxlmX8z+lR/aAVmz+8BZvCBjuw6AtFm72JKN/7KOWfTlWf3qOXh/cc5KXDitbYPnaIIXYwFejMdf7AMleFNw3qp/ZIbeDyv/6GamtsjDkZr6IXXqdmE/WJXn4o2nJQX1b8rDy6F0z1YMBNdDLgYU+mwCz+OtvBVs7yEcHtdK3UNwo8PKXIxqC5jIgvbLTku7h3B4bAvV8o3Q6HhIvGM0JN5Jz6Tr4DyO2sVfblRZT7Qev5ltWFFfRnfoAVeM3wSnXr5Xm63pQXU3f3gZxHbrjzO4L7DuqVB1UvkSmy+EhEVA++VnVEsu1JYV4AjeXrXswdwPFDhJaMYbCKhvkgZOZNrftuegPYR2Lx1WLSMC3ENQNEsnMaUHqmnNlTRgom7tZa+cP1pm2PGP65qyIsjdsgCOzboN16FbofkjGdB29ndsVBflxxcDtwmifPF4cV/54ncQ3bEnnH1tHGS9NBgqT3zvkc9a4x+JYd9PRZv7oQnezGnPfgxx3YfYKs91GN4TKRiEKVDT0uzES/eiDIYKbHs75fWaxAp+7iHQusStFcIzPVAdjo4mD8KAgNpO/oC0xLDln0lX556EM38dB8dn3Q7Veacg9elNOBvYBK4rOhvz6+tX15j6z55Ed+gJac9th5QHZ+OU+A04OuUGKNyBMw6V90dLDYE/djTvB2q3chzZW/w+A66cswviuz/ktVxYVAILIu3mfAdx1w+AM39T6zj0hddy3rQW/QWwHxDUCKMXDhEXqAS7PrPIDJE/doVGkqyF98KpFY9ARHIqtJn2MV6UtBPemvEcPD8/Do2Kh2YPvoiB5B1MCYGsRffB2Y3PspGP5/VXZIbIH3/kAgaG7FfHwbGZFKBPQos/LGNtG4VLAHPexDtGYdD4FpLuGoOzjIVwZLIShM35AhEr2A4ISmRRows/Zuk628wHYhP0dkPULytE/vhpl3yXCUcm3Qjn3piGI05/aDv9YzYroxtfyavmR8R17Qft5n4LCT0eYvmPvXA7lB+k36Bw1+fv+dkoJTP89NfKrjyxH7IW3IdB+j5MCIG0Z95hQnsD8bcOgavmfgcpQ2ZD6e6trL9yNi2E2jL61evAzudhW8D2puKBMTiSVFdhfZSdKqyDDgt24XrG+v+6CwS1FcVweOKN7Nl3CP7Tny8Y9jUrT0q7qXhgVCsPf+pjh0cnQNKvR0HTwRPQBsjZvBDOb1oArtTO0G7GRyytZNdWOP3qE0HrD/qv3DqtzkZbPtCm4sEnOuBR4P5b2XHX94MWD83W7qcyXBLQTOJCLj2yD+75wmMSoePSHzHNE7YDwg+jUzEgVKqWgojk1pDYY4hqBQfFeAHSJlVDodMqeQPCD4+2Uq3ggvdj3r9Xs8dWhLgb+rFv6JXRjCCIoKcMnV45rVpyobasEA6Oo4DQcEjAfqClRLDbXQ96ynD1skOqZYTtgLB/lGdAkBHXrpY3IOwf2TAB4VKCAsK1a+QNCAfSGzYgXApQQLgmQxwQ/NhDIMGph+wiM0T+SCby7yF4+iSdsCWEGH49ZeDPMGUWmSHyRzaxOSH9xULkk2xCv21iBT8CginKyCoyQ+SPjCIzRP5IJrS9aAXbewhn/7VQPZIbzQY9AaGS7iGc27RYteqHEPY7Ekq3648vFZrfrzzVkA21pYWQ88ErP0ubBRtWfWA7IDhw4ODyh/1NRQcOHFz2cAKCAwcONDgBwYEDBxqcgODAgQMNTkBw4MCBBicgOHDgQIMTEBw4cKChwQPC0WNZ0Kffg3BVtz4G+e2Ix6Cg0P27cv98J9PAf/3tbpXxrIPyOvCNYLS9mRPlceAdC5esErah/jqm/qB+4dz4KbOgotL9ZUJzX5r5oIE+mNSQOPLT8br7h41m2gr/ePu9uvuHj6nLLyhkNmmyv/pmV115RUXd9NkvaeXt1OdAQX3bnkD8nyfPZP3AQZy+jAPvWLB4JRMr8DantubQtzv1X+++D2h9QqD6zP0SDPzsSwaKjBvf2gKTnhoNiQnxLI002Rvf3MLsF6aOh3Zt09hxyxYpkNa6FXy3Zz+zHQQOX21vNQK1b9cWEuMbA17IaoqD+uDD7Tsg7YqWMLDvHWoKaMf79h+EvPwCSE5uwtqd4/7BfSHr5GnIPhPc/wXrZw8Ih48eY1rvLOHmG7vBy3OnQZTLpaYoqKysgqxT2RgUWqopDgKFv23PQeUKioohKTFBTXEQKCjofvnVt3DrLTca2puOqQ+oL3j/3PfQo2zpQKAB8q11K7WBMli4JAEhNy8f7vnNw9r6h4TWVRwUHV0ue184WvPaRuh+UzfWUA58Ixhtv3nrh9C5+z1a+QnPzYEFMydrswoHvrHqrxsMfUD7AfzmJngb4Kid31r7F0gf/XutL83lg4VLEhCSmyTBtrf/Dkd2f6LJhCdHqyywEZ9Gfl+gC/nM2fPYMI+oKQ58IRhtP7jfXbBv5zZWdvQfhuJ09s6gj0yXO6jd9H3wydZ/GNow66Tv35l84L7+WvmFL06FidPnGTaHg4GffcnAp0N8+spB0W/GnJfZlIqEdlUJ3qayDvyDnbY3Y+QjQ2DnN7udJz1BAl3LtFygZYO5vWkApKc51Nbm9qa+a4h9nJ89INB0aMhvB8H8xau0aEeaot91na5mDZax6jVo0byZYWRzUH/YaXsztE3Ht7YEfXT6/4q7buvBZmrvvq/80jWBAgAFXrrxb+h6LWx8c7NhiUAbkQ2xj9Pgv4dATvzx8Qlw2rQb2qpFCry6YqE2baIGmPL8fHZMmPv8JDZFootu5LjJsGffDyqjgPMOrFHfticQR6PX7BkTtABBI9mzLyx0grRN0EhPewhm0DKCt5/5Ou/auROsWTZP26cx96WZDxYaPCA4cOBAHvzsSwYHDhz8UgDwf0AxeXTNzQuUAAAAAElFTkSuQmCC;" vertex="1" parent="1">
          <mxGeometry x="-61.47" y="130" width="140.54" height="40" as="geometry" />
        </mxCell>
      </root>
    </mxGraphModel>
  </diagram>
</mxfile>
